<?xml version="1.0" encoding="UTF-8"?>
<svg version="1.1" xmlns="http://www.w3.org/2000/svg" width="512" height="512">
<path d="M0 0 C2.30582442 0.00315136 4.61034924 -0.02036856 6.91601562 -0.0456543 C20.41256354 -0.10324585 33.44596653 1.8052874 46.44726562 5.50317383 C47.54433838 5.81399902 47.54433838 5.81399902 48.66357422 6.13110352 C88.24214116 17.84750239 122.64926567 45.08368953 142.88476562 81.12817383 C156.1583052 105.58796761 163.02436197 131.65241647 162.88476562 159.44067383 C162.88261047 160.2129129 162.88045532 160.98515198 162.87823486 161.78079224 C162.8257568 173.50660611 162.43565958 184.88782483 159.57226562 196.31567383 C159.27425049 197.51305176 159.27425049 197.51305176 158.97021484 198.73461914 C152.13873789 225.21106991 138.4050505 247.23386163 123.70996094 270.00024414 C120.27595628 275.3261673 116.86181766 280.66476657 113.44726562 286.00317383 C112.7842041 287.03909668 112.12114258 288.07501953 111.43798828 289.14233398 C107.09854888 295.9234398 102.76875468 302.71061572 98.44726562 309.50317383 C97.87661377 310.40003906 97.30596191 311.2969043 96.71801758 312.22094727 C93.8469846 316.73472459 90.97914058 321.25049629 88.11523438 325.76879883 C82.01330776 335.3877374 75.86199696 344.97123261 69.63085938 354.50708008 C68.60551086 356.07770203 68.60551086 356.07770203 67.55944824 357.68005371 C65.89754994 360.22558486 64.23514951 362.77078646 62.57226562 365.31567383 C63.69677628 365.31265762 64.82128693 365.30964142 65.97987366 365.30653381 C76.58825939 365.28263787 87.19605206 365.29549418 97.80436039 365.34414005 C103.25803101 365.36797267 108.71109084 365.37895024 114.16479492 365.36035156 C119.43012726 365.34287153 124.69436335 365.35941789 129.9595623 365.39935112 C131.96613106 365.40863033 133.97279493 365.40574174 135.97932625 365.39036751 C138.79545983 365.37088874 141.60814759 365.39505133 144.42407227 365.42919922 C145.24982254 365.41338303 146.07557281 365.39756683 146.92634583 365.38127136 C151.66420351 365.49149274 154.05711286 366.29968561 157.4750824 369.66770935 C158.53366957 370.86096482 159.56777653 372.07653418 160.57226562 373.31567383 C161.05610749 373.89426179 161.53994936 374.47284975 162.0384531 375.06897068 C163.33776677 376.64525264 164.58303401 378.25430434 165.82226562 379.87817383 C166.7779183 381.11130603 167.73364967 382.34437724 168.68945312 383.57739258 C169.16866211 384.1992041 169.64787109 384.82101562 170.14160156 385.46166992 C172.39566195 388.38271678 174.6696138 391.28800352 176.94726562 394.19067383 C177.39481201 394.76172852 177.8423584 395.3327832 178.3034668 395.92114258 C181.86320397 400.44863024 185.49163937 404.91765903 189.13476562 409.37817383 C193.86062227 415.16434537 198.44894474 421.03053864 202.97851562 426.97192383 C205.93437625 430.81454264 209.0033437 434.56318693 212.07226562 438.31567383 C216.82495349 444.12696502 221.43878555 450.01698915 225.99023438 455.98754883 C228.878741 459.74272015 231.88226601 463.40149329 234.88476562 467.06567383 C241.18925488 474.76448829 247.25510632 482.63395735 253.23535156 490.58666992 C254.40423048 492.09835738 255.64880235 493.55089603 256.90429688 494.99145508 C258.80623391 497.64169521 259.1669507 499.0820823 259.19726562 502.31567383 C259.23078125 503.14067383 259.26429688 503.96567383 259.29882812 504.81567383 C258.22435149 508.51279775 255.80181194 510.4358444 252.57226562 512.31567383 C249.5358385 512.79815925 247.0689788 512.99003421 244.04205322 512.94487953 C243.19274089 512.95214674 242.34342856 512.95941394 241.4683795 512.96690136 C238.61486383 512.9851876 235.76268614 512.96777928 232.90917969 512.95059204 C230.84587033 512.95635179 228.78256609 512.96429191 226.71927261 512.97422826 C221.04348638 512.99514477 215.36811927 512.98476439 209.69233131 512.96929717 C203.57362622 512.95800732 197.45499436 512.97543463 191.33630371 512.98919678 C180.04066868 513.0101717 168.74520491 513.00831673 157.44957411 512.99463944 C147.01491167 512.98206653 136.58029834 512.97877586 126.14562988 512.98475266 C125.45373968 512.98513458 124.76184948 512.98551651 124.0489929 512.98591 C121.24045455 512.98746667 118.43191623 512.98905867 115.62337793 512.99070882 C89.2718123 513.00600723 62.92033199 512.99213115 36.56877953 512.96522434 C13.1519271 512.9414959 -10.26478938 512.94361903 -33.68164062 512.9675293 C-59.98469759 512.99429675 -86.28767914 513.00492232 -112.59074783 512.98946798 C-115.39419808 512.98786437 -118.19764835 512.98630017 -121.00109863 512.98475266 C-122.03653618 512.98415957 -122.03653618 512.98415957 -123.09289166 512.98355451 C-133.52154317 512.97786478 -143.95014021 512.98452292 -154.37878418 512.99715042 C-166.23547869 513.01143541 -178.09201263 513.00741474 -189.9487009 512.9807467 C-196.00107501 512.9675835 -202.05317283 512.96249901 -208.10554504 512.97899246 C-213.64227889 512.99385282 -219.17847944 512.98576811 -224.71516466 512.9591047 C-226.72180289 512.95350315 -228.72848585 512.95639743 -230.7350955 512.96848364 C-233.45655078 512.98362257 -236.1761639 512.96816503 -238.89752197 512.94487953 C-239.68221753 512.95658536 -240.46691308 512.96829119 -241.27538729 512.98035175 C-247.11319717 512.88006379 -249.50309612 511.34821799 -253.42773438 507.31567383 C-254.99383364 503.79981243 -254.53735503 500.95114149 -253.42773438 497.31567383 C-250.6728692 492.94312619 -247.45357055 489.10466857 -244.06591797 485.21166992 C-241.32155499 482.03540719 -238.69420682 478.76501631 -236.05273438 475.50317383 C-235.23724121 474.5050769 -235.23724121 474.5050769 -234.40527344 473.48681641 C-230.49789376 468.692179 -226.72219544 463.81011873 -222.99023438 458.87817383 C-217.97209394 452.24844561 -212.76470877 445.80523111 -207.44970703 439.41186523 C-203.1574686 434.23744655 -199.04366201 428.96090953 -194.97460938 423.60864258 C-192.10246581 419.86142834 -189.10786268 416.21683968 -186.11523438 412.56567383 C-181.6261469 407.08516381 -177.26433974 401.52777111 -172.99023438 395.87817383 C-168.39981398 389.82008232 -163.69379978 383.87343 -158.86523438 378.00317383 C-157.98943726 376.93595093 -157.98943726 376.93595093 -157.09594727 375.84716797 C-153.96779241 372.06862729 -153.96779241 372.06862729 -152.42773438 370.31567383 C-151.9177742 369.63094498 -151.40781403 368.94621613 -150.88240051 368.24073792 C-147.3411408 365.46351628 -143.93672019 365.74381825 -139.62011719 365.76977539 C-138.73195816 365.75943771 -137.84379913 365.74910004 -136.9287262 365.7384491 C-133.99591988 365.70897437 -131.06380229 365.70752093 -128.13085938 365.70629883 C-126.09632039 365.69132034 -124.06179359 365.6745939 -122.02728271 365.65618896 C-116.67449389 365.61246609 -111.32186911 365.59250535 -105.96893311 365.57745361 C-100.50588258 365.55790038 -95.04300966 365.51592836 -89.58007812 365.47583008 C-78.86268493 365.40047442 -68.14533138 365.35021533 -57.42773438 365.31567383 C-57.84514389 364.67686783 -58.26255341 364.03806183 -58.69261169 363.37989807 C-60.6244408 360.42267722 -62.55538786 357.46488138 -64.48632812 354.50708008 C-65.14258179 353.50277954 -65.79883545 352.498479 -66.47497559 351.46374512 C-72.62491619 342.04090726 -78.67007134 332.55336335 -84.69384766 323.04956055 C-87.5995442 318.46803563 -90.51407456 313.89213685 -93.42773438 309.31567383 C-96.90546273 303.85157078 -100.38260196 298.38709576 -103.85742188 292.92114258 C-105.00583737 291.115139 -106.15427493 289.30914946 -107.30273438 287.50317383 C-107.87145264 286.60848389 -108.4401709 285.71379395 -109.02612305 284.79199219 C-112.1885258 279.82086278 -115.36220748 274.85725594 -118.54882812 269.90161133 C-140.47950157 235.79204611 -157.56221979 204.36187968 -157.66796875 162.69238281 C-157.67758009 160.41473511 -157.70862736 158.13802895 -157.74023438 155.8605957 C-157.83747404 142.39212709 -155.93056513 129.41540816 -152.24023438 116.44067383 C-151.92940918 115.34360107 -151.92940918 115.34360107 -151.61230469 114.22436523 C-139.89590581 74.64579829 -112.65971867 40.23867378 -76.61523438 20.00317383 C-52.79215448 7.0751583 -27.11294819 -0.07709031 0 0 Z M-33.42773438 25.31567383 C-34.5339917 25.61320557 -34.5339917 25.61320557 -35.66259766 25.91674805 C-71.38182846 35.71362196 -100.75576487 60.12291871 -119.10742188 91.90942383 C-124.92906131 102.30757511 -129.29932278 112.82420625 -132.42773438 124.31567383 C-132.74097656 125.41274658 -132.74097656 125.41274658 -133.06054688 126.53198242 C-142.41155843 160.36281774 -136.2928184 197.76167416 -119.62304688 228.21606445 C-116.01825298 234.54801451 -112.04124829 240.65221494 -108.078125 246.76342773 C-105.80051541 250.28563641 -103.55329027 253.82683855 -101.30517578 257.36791992 C-99.53867992 260.15031087 -97.76885427 262.93055644 -95.99804688 265.71020508 C-92.47293815 271.24429849 -88.95015924 276.77987189 -85.42773438 282.31567383 C-84.55955078 283.67982422 -84.55955078 283.67982422 -83.67382812 285.0715332 C-80.78089159 289.61711611 -77.88869406 294.16316593 -74.99804688 298.71020508 C-68.8230707 308.42175852 -62.63437227 318.12432013 -56.42773438 327.81567383 C-48.49921998 340.19565129 -40.60533037 352.59743282 -32.71875 365.00415039 C-25.80043083 375.88650079 -18.87240009 386.76261553 -11.92773438 397.62817383 C-11.26918457 398.65982666 -10.61063477 399.69147949 -9.93212891 400.75439453 C-6.16019583 406.65135354 -2.33715063 412.50888027 1.57226562 418.31567383 C4.9273187 417.1973228 5.17906252 416.80818844 6.92773438 413.94067383 C7.37681152 413.21581787 7.82588867 412.49096191 8.28857422 411.74414062 C8.77406738 410.94274658 9.25956055 410.14135254 9.75976562 409.31567383 C10.83815201 407.57154036 11.91763558 405.82808493 12.99804688 404.08520508 C13.57506348 403.15015137 14.15208008 402.21509766 14.74658203 401.25170898 C17.92792589 396.13552267 21.19133943 391.07209014 24.44726562 386.00317383 C25.8173945 383.86536908 27.18718612 381.72734814 28.55664062 379.58911133 C29.56500977 378.01468262 29.56500977 378.01468262 30.59375 376.40844727 C35.36233026 368.95430428 40.1071385 361.48500529 44.85449219 354.01733398 C48.3435546 348.52984611 51.8356538 343.04429012 55.32714844 337.55834961 C58.21971793 333.01322858 61.11162071 328.46768659 64.00195312 323.92114258 C70.85153976 313.14861087 77.72174043 302.38952558 84.60644531 291.6394043 C89.55570299 283.90932881 94.49303949 276.17177879 99.41503906 268.42431641 C102.33561098 263.82728956 105.26319564 259.23503594 108.20507812 254.65161133 C123.31774161 231.47593739 123.31774161 231.47593739 134.57226562 206.31567383 C135.13880859 204.71852539 135.13880859 204.71852539 135.71679688 203.08911133 C136.78885707 199.8528547 137.71220013 196.61450283 138.57226562 193.31567383 C138.87261719 192.17227539 139.17296875 191.02887695 139.48242188 189.85083008 C144.04713716 168.93806471 143.42430624 144.87284215 137.57226562 124.31567383 C137.27473389 123.2094165 137.27473389 123.2094165 136.97119141 122.08081055 C127.1743175 86.36157974 102.76502074 56.98764334 70.97851562 38.63598633 C60.58036434 32.8143469 50.0637332 28.44408542 38.57226562 25.31567383 C37.47519287 25.00243164 37.47519287 25.00243164 36.35595703 24.68286133 C14.29883247 18.58616213 -11.48012523 19.06781429 -33.42773438 25.31567383 Z M-146.5789032 394.79516602 C-147.26140621 396.0515746 -147.91946081 397.32166527 -148.54879761 398.60552979 C-149.74445836 400.93192252 -151.31234126 402.79826898 -153.02929688 404.76098633 C-153.53501221 405.37707764 -154.04072754 405.99316895 -154.56176758 406.62792969 C-155.05378662 407.22613525 -155.54580566 407.82434082 -156.05273438 408.44067383 C-165.52381256 418.25079674 -165.52381256 418.25079674 -171.42773438 429.31567383 C-163.92665481 429.64194788 -156.42631984 429.88972597 -148.919734 430.04104424 C-145.43228086 430.1137346 -141.94972206 430.21201265 -138.46508789 430.37182617 C-122.44940541 431.94783845 -122.44940541 431.94783845 -108.31933594 426.42260742 C-105.80413354 423.5557031 -103.98076096 420.44100754 -102.30667114 417.02581787 C-101.11101039 414.69942514 -99.54312749 412.83307868 -97.82617188 410.87036133 C-97.32045654 410.25427002 -96.81474121 409.63817871 -96.29370117 409.00341797 C-95.80168213 408.4052124 -95.30966309 407.80700684 -94.80273438 407.19067383 C-85.33165619 397.38055092 -85.33165619 397.38055092 -79.42773438 386.31567383 C-86.92881394 385.98939978 -94.42914891 385.74162168 -101.93573475 385.59030342 C-105.42318789 385.51761306 -108.90574669 385.41933501 -112.39038086 385.25952148 C-132.17349162 383.52180091 -132.17349162 383.52180091 -146.5789032 394.79516602 Z M-61.91699219 398.23657227 C-64.477722 401.76067943 -67.27558954 405.08649146 -70.05273438 408.44067383 C-79.52524201 418.25101186 -79.52524201 418.25101186 -85.42773438 429.31567383 C-62.65773437 429.31567383 -39.88773438 429.31567383 -16.42773438 429.31567383 C-20.89142388 421.66363468 -25.34794415 414.16445451 -30.22216797 406.79443359 C-32.53228181 403.28774502 -34.7642733 399.78015062 -36.81835938 396.11645508 C-40.30406306 389.74631492 -40.30406306 389.74631492 -45.59960938 384.96020508 C-53.50496744 383.54452925 -57.99264949 392.67906877 -61.91699219 398.23657227 Z M40.69726562 397.75317383 C40.01111477 398.89773811 39.32163607 400.04031371 38.62890625 401.1809082 C37.24450065 403.46664866 35.87783305 405.76018253 34.51855469 408.0612793 C31.8265976 412.5625071 28.9627131 416.94038097 26.07226562 421.31567383 C23.10560857 425.11451555 23.10560857 425.11451555 21.57226562 429.31567383 C44.34226562 429.31567383 67.11226563 429.31567383 90.57226562 429.31567383 C86.56038653 423.29785519 82.64582828 417.78207607 78.00976562 412.31567383 C74.19292117 407.79976242 70.48762809 403.27820258 67.08789062 398.43676758 C66.52787354 397.65237305 65.96785645 396.86797852 65.39086914 396.05981445 C64.32758129 394.55615578 63.28757065 393.03567974 62.27514648 391.49731445 C60.27284012 388.69521435 58.69154778 386.77086755 55.4609375 385.45703125 C47.11359142 384.28329728 44.32436047 391.41755772 40.69726562 397.75317383 Z M84.57226562 386.31567383 C86.32637026 389.27369723 88.05060622 392.06213855 90.25195312 394.70629883 C90.76250244 395.32529053 91.27305176 395.94428223 91.79907227 396.58203125 C92.34297607 397.2366333 92.88687988 397.89123535 93.44726562 398.56567383 C99.87233524 406.37792246 106.03790833 414.36872979 112.13110352 422.44140625 C112.60668701 423.05991455 113.08227051 423.67842285 113.57226562 424.31567383 C114.14091843 425.16762329 114.70957123 426.01957275 115.29545593 426.89733887 C117.35007955 429.53436439 117.35007955 429.53436439 120.29315186 429.91694641 C121.33239807 429.90584335 122.37164429 429.8947403 123.44238281 429.88330078 C125.21376617 429.8827343 125.21376617 429.8827343 127.02093506 429.88215637 C128.2908429 429.85634995 129.56075073 429.83054352 130.86914062 429.80395508 C132.17304749 429.79688034 133.47695435 429.7898056 134.82037354 429.78251648 C138.27976761 429.76346458 141.73810481 429.71438254 145.19708252 429.65899658 C148.7295502 429.60776317 152.2621894 429.5849939 155.79492188 429.55981445 C162.72113611 429.50625972 169.64665007 429.42097061 176.57226562 429.31567383 C175.64110243 427.89746196 174.70700905 426.48117378 173.77172852 425.06567383 C173.25187881 424.27676758 172.73202911 423.48786133 172.19642639 422.67504883 C169.68926545 419.03296305 166.86786964 415.68474222 164.00976562 412.31567383 C162.90065441 411.0062504 161.7954001 409.69355348 160.69335938 408.37817383 C160.04955322 407.64719482 159.40574707 406.91621582 158.74243164 406.16308594 C156.92610857 403.77994093 155.65001263 401.63444087 154.27514648 399.00146484 C150.84676923 392.93567586 147.48563512 387.43695374 140.47647095 385.4286499 C132.11296523 384.27321624 123.72897352 384.67752306 115.32946777 385.14837646 C111.85814402 385.32414358 108.38467148 385.4003021 104.91015625 385.4855957 C98.1256359 385.66647418 91.349574 385.95547362 84.57226562 386.31567383 Z M-196.5789032 457.79516602 C-197.26140621 459.0515746 -197.91946081 460.32166527 -198.54879761 461.60552979 C-199.74445836 463.93192252 -201.31234126 465.79826898 -203.02929688 467.76098633 C-203.53501221 468.37707764 -204.04072754 468.99316895 -204.56176758 469.62792969 C-205.05378662 470.22613525 -205.54580566 470.82434082 -206.05273438 471.44067383 C-215.52381256 481.25079674 -215.52381256 481.25079674 -221.42773438 492.31567383 C-213.92665481 492.64194788 -206.42631984 492.88972597 -198.919734 493.04104424 C-195.43228086 493.1137346 -191.94972206 493.21201265 -188.46508789 493.37182617 C-172.44940541 494.94783845 -172.44940541 494.94783845 -158.31933594 489.42260742 C-155.80413354 486.5557031 -153.98076096 483.44100754 -152.30667114 480.02581787 C-151.11101039 477.69942514 -149.54312749 475.83307868 -147.82617188 473.87036133 C-147.32045654 473.25427002 -146.81474121 472.63817871 -146.29370117 472.00341797 C-145.80168213 471.4052124 -145.30966309 470.80700684 -144.80273438 470.19067383 C-135.33165619 460.38055092 -135.33165619 460.38055092 -129.42773438 449.31567383 C-136.92881394 448.98939978 -144.42914891 448.74162168 -151.93573475 448.59030342 C-155.42318789 448.51761306 -158.90574669 448.41933501 -162.39038086 448.25952148 C-182.17349162 446.52180091 -182.17349162 446.52180091 -196.5789032 457.79516602 Z M-113.42773438 463.31567383 C-114.59757823 464.82178154 -115.78968612 466.31175886 -117.02929688 467.76098633 C-117.53501221 468.37707764 -118.04072754 468.99316895 -118.56176758 469.62792969 C-119.05378662 470.22613525 -119.54580566 470.82434082 -120.05273438 471.44067383 C-129.52381256 481.25079674 -129.52381256 481.25079674 -135.42773438 492.31567383 C-44.34773438 492.31567383 46.73226562 492.31567383 140.57226562 492.31567383 C136.56037094 486.2978318 132.64677084 480.78167074 128.00976562 475.31567383 C126.90065441 474.0062504 125.7954001 472.69355348 124.69335938 471.37817383 C124.0910594 470.67995042 123.48875942 469.98172701 122.86820793 469.26234531 C121.04926498 466.92786709 119.56433022 464.70091575 118.04953194 462.17819881 C112.31242543 452.85151722 112.31242543 452.85151722 103.06568527 447.72737312 C97.71895212 446.91985185 92.3847826 447.04793401 86.99365234 447.16357422 C84.94056865 447.14541811 82.88753847 447.11999248 80.83462524 447.08790588 C75.29158511 447.02355374 69.75412271 447.06537878 64.21128225 447.13093495 C58.39478341 447.18540396 52.57863201 447.15398729 46.76199341 447.13560486 C36.9984724 447.11843639 27.23716909 447.17062441 17.47412109 447.26416016 C6.20461603 447.37125748 -5.06075378 447.36759883 -16.33049977 447.30486304 C-27.19820753 447.24700127 -38.06439786 447.26843212 -48.93206406 447.32543755 C-53.54544732 447.34821587 -58.15755881 447.343343 -62.77090836 447.31584358 C-68.20813503 447.28696759 -73.64060354 447.32774614 -79.0770607 447.42117882 C-81.06543704 447.44437932 -83.05425464 447.44411629 -85.04259491 447.4180069 C-100.02260409 447.2432707 -105.78200249 450.47828666 -113.42773438 463.31567383 Z M134.57226562 449.31567383 C136.32637026 452.27369723 138.05060622 455.06213855 140.25195312 457.70629883 C140.76250244 458.32529053 141.27305176 458.94428223 141.79907227 459.58203125 C142.34297607 460.2366333 142.88687988 460.89123535 143.44726562 461.56567383 C149.87233524 469.37792246 156.03790833 477.36872979 162.13110352 485.44140625 C162.60668701 486.05991455 163.08227051 486.67842285 163.57226562 487.31567383 C164.14091843 488.16762329 164.70957123 489.01957275 165.29545593 489.89733887 C167.35007955 492.53436439 167.35007955 492.53436439 170.29315186 492.91694641 C171.33239807 492.90584335 172.37164429 492.8947403 173.44238281 492.88330078 C175.21376617 492.8827343 175.21376617 492.8827343 177.02093506 492.88215637 C178.2908429 492.85634995 179.56075073 492.83054352 180.86914062 492.80395508 C182.17304749 492.79688034 183.47695435 492.7898056 184.82037354 492.78251648 C188.27976761 492.76346458 191.73810481 492.71438254 195.19708252 492.65899658 C198.7295502 492.60776317 202.2621894 492.5849939 205.79492188 492.55981445 C212.72113611 492.50625972 219.64665007 492.42097061 226.57226562 492.31567383 C225.64110243 490.89746196 224.70700905 489.48117378 223.77172852 488.06567383 C223.25187881 487.27676758 222.73202911 486.48786133 222.19642639 485.67504883 C219.68926545 482.03296305 216.86786964 478.68474222 214.00976562 475.31567383 C212.90065441 474.0062504 211.7954001 472.69355348 210.69335938 471.37817383 C210.04955322 470.64719482 209.40574707 469.91621582 208.74243164 469.16308594 C206.92610857 466.77994093 205.65001263 464.63444087 204.27514648 462.00146484 C200.84676923 455.93567586 197.48563512 450.43695374 190.47647095 448.4286499 C182.11296523 447.27321624 173.72897352 447.67752306 165.32946777 448.14837646 C161.85814402 448.32414358 158.38467148 448.4003021 154.91015625 448.4855957 C148.1256359 448.66647418 141.349574 448.95547362 134.57226562 449.31567383 Z " fill="#000000" transform="translate(253.427734375,-0.315673828125)"/>
<path d="M0 0 C1.15242187 0.37382813 2.30484375 0.74765625 3.4921875 1.1328125 C15.41221783 5.36792916 25.40362901 11.85614094 35 20 C36.01320313 20.79470703 36.01320313 20.79470703 37.046875 21.60546875 C54.82643812 36.00691488 65.925116 59.6051885 69 82 C70.06767936 97.30181889 69.82865284 112.37155664 65 127 C64.63777344 128.12921875 64.27554688 129.2584375 63.90234375 130.421875 C54.92646399 155.85860545 36.15370441 175.65757607 12.00390625 187.46484375 C-11.0338752 197.53048797 -37.94833852 199.94795725 -62 192 C-63.15242188 191.62617188 -64.30484375 191.25234375 -65.4921875 190.8671875 C-76.83899727 186.83573273 -86.81639308 180.73698565 -96 173 C-96.80050781 172.34515625 -97.60101563 171.6903125 -98.42578125 171.015625 C-114.15920216 157.60673751 -124.0601807 139.92457668 -129 120 C-129.18546387 119.26483154 -129.37092773 118.52966309 -129.56201172 117.7722168 C-133.4269682 100.79019794 -132.45621361 81.51128694 -127 65 C-126.62617188 63.84757812 -126.25234375 62.69515625 -125.8671875 61.5078125 C-121.63207084 49.58778217 -115.14385906 39.59637099 -107 30 C-106.20529297 28.98679687 -106.20529297 28.98679687 -105.39453125 27.953125 C-81.26337261 -1.83842887 -35.45135432 -11.71502638 0 0 Z M-83 36 C-83.969375 36.77472656 -84.93875 37.54945312 -85.9375 38.34765625 C-98.71811013 49.02084664 -108.26935894 67.51690407 -110 84 C-111.55107627 108.02621559 -107.16024352 129.47927148 -91 148 C-89.84177734 149.45212891 -89.84177734 149.45212891 -88.66015625 150.93359375 C-77.91563441 163.80524461 -59.48428032 172.86994977 -43 175 C-20.28822587 176.83736604 1.16615797 172.6556812 19.0078125 157.73828125 C19.66523438 157.16464844 20.32265625 156.59101563 21 156 C21.969375 155.22527344 22.93875 154.45054687 23.9375 153.65234375 C36.71811013 142.97915336 46.26935894 124.48309593 48 108 C49.55107627 83.97378441 45.16024352 62.52072852 29 44 C28.22527344 43.030625 27.45054687 42.06125 26.65234375 41.0625 C15.97915336 28.28188987 -2.51690407 18.73064106 -19 17 C-43.02621559 15.44892373 -64.47927148 19.83975648 -83 36 Z " fill="#000000" transform="translate(287,64)"/>
<path d="M0 0 C3.43016576 1.190345 4.9015757 2.65900417 6.90234375 5.66015625 C8.27622171 14.64040488 4.02953428 20.63210909 -0.53515625 27.97265625 C-1.30356293 29.23943453 -2.07021795 30.50727683 -2.83520508 31.77612305 C-4.42958981 34.41342179 -6.03535086 37.04327042 -7.65039062 39.66796875 C-10.06427843 43.59527636 -12.43573048 47.54705857 -14.80078125 51.50390625 C-16.29402543 53.9944206 -17.78933356 56.48368994 -19.28515625 58.97265625 C-19.63601288 59.55761871 -19.98686951 60.14258118 -20.34835815 60.74526978 C-30.79935107 78.1279528 -30.79935107 78.1279528 -36.09765625 81.66015625 C-43.04443496 82.33242516 -43.04443496 82.33242516 -47.03515625 79.78515625 C-49.8517436 76.88321777 -50.06516972 76.09392002 -50.375 71.95703125 C-50.30405553 67.6303904 -48.90922889 64.54653062 -46.66015625 60.91015625 C-46.07874878 59.92354004 -46.07874878 59.92354004 -45.4855957 58.91699219 C-44.04291109 56.48555598 -42.57070498 54.07331788 -41.09765625 51.66015625 C-39.77680391 49.47298217 -38.4565332 47.28545678 -37.13671875 45.09765625 C-34.95224781 41.48098167 -32.76195018 37.86806397 -30.55566406 34.26464844 C-27.16373019 28.7240178 -23.79420799 23.17585269 -20.54296875 17.55078125 C-20.00841064 16.63264648 -19.47385254 15.71451172 -18.9230957 14.76855469 C-17.94690321 13.08554023 -16.98108149 11.39644715 -16.02807617 9.70019531 C-12.22024633 3.17006711 -8.01835782 -1.58520318 0 0 Z " fill="#000000" transform="translate(296.09765625,292.33984375)"/>
<path d="M0 0 C3.125 1.875 3.125 1.875 5 5 C5.98876625 10.02622846 5.7769173 13.70513784 3.125 18.125 C-1.29486216 20.7769173 -4.97377154 20.98876625 -10 20 C-13.125 18.125 -13.125 18.125 -15 15 C-15.98876625 9.97377154 -15.7769173 6.29486216 -13.125 1.875 C-8.70513784 -0.7769173 -5.02622846 -0.98876625 0 0 Z " fill="#000000" transform="translate(321,260)"/>
</svg>
