<?xml version="1.0" encoding="UTF-8"?>
<svg version="1.1" xmlns="http://www.w3.org/2000/svg" width="256" height="256">
<path d="M0 0 C0.72445312 -0.01611328 1.44890625 -0.03222656 2.1953125 -0.04882812 C7.43522287 -0.05366199 7.43522287 -0.05366199 9.98828125 1.6015625 C11.64156419 4.39746183 11.17871652 7.15517486 11 10.3125 C11.825 10.456875 12.65 10.60125 13.5 10.75 C19.69579285 13.51597895 24.35302274 19.06513188 27 25.3125 C28.30688024 29.51137972 28.69522336 33.96058234 28 38.3125 C25.38184261 40.93065739 23.49531662 40.57362488 19.92773438 40.5859375 C19.14720703 40.57820313 18.36667969 40.57046875 17.5625 40.5625 C16.39750977 40.57410156 16.39750977 40.57410156 15.20898438 40.5859375 C11.29947832 40.57246806 9.32052968 40.52618645 6 38.3125 C4.92863949 36.01105891 3.92010283 33.6784787 3 31.3125 C0.08347826 31.14568891 0.08347826 31.14568891 -3 31.3125 C-5.21896136 33.13721891 -5.21896136 33.13721891 -5.375 35.75 C-5.2571729 38.40246894 -5.2571729 38.40246894 -3.296875 39.921875 C-0.69337347 41.49814463 1.11581511 41.79600748 4.125 42.125 C11.24000708 43.30291839 17.14759654 45.95812078 21.88671875 51.53125 C26.10597962 57.66092681 28.27730391 62.58595643 28.125 70.125 C28.10695312 71.28644531 28.08890625 72.44789062 28.0703125 73.64453125 C28.04710937 74.52496094 28.02390625 75.40539062 28 76.3125 C29.46373047 76.27769531 29.46373047 76.27769531 30.95703125 76.2421875 C32.86548828 76.21511719 32.86548828 76.21511719 34.8125 76.1875 C36.07707031 76.16429688 37.34164062 76.14109375 38.64453125 76.1171875 C42 76.3125 42 76.3125 45 78.3125 C46.20185694 84.13771651 45.13035458 89.47700792 42.19140625 94.56640625 C38.6583543 99.74435451 34.12753462 103.71058738 28 105.3125 C22.34310084 105.78027156 16.66366052 105.5441952 11 105.3125 C11.02289678 109.18878965 11.10033848 113.06216469 11.1875 116.9375 C11.19330078 118.03191406 11.19910156 119.12632812 11.20507812 120.25390625 C11.28143666 127.12999655 11.28143666 127.12999655 14.5 132.96875 C15.325 133.7421875 16.15 134.515625 17 135.3125 C18.87411696 139.63738529 18.76111243 145.02916272 17.28125 149.46875 C14.65186698 155.15161007 11.64545133 158.24414465 5.75 160.625 C-0.08638866 161.69500459 -5.41749769 161.65208185 -10.5 158.3125 C-13 156.3125 -13 156.3125 -14 155.3125 C-15.44570391 155.18317758 -16.89754361 155.12141992 -18.34863281 155.08789062 C-19.27339417 155.06537231 -20.19815552 155.042854 -21.15093994 155.01965332 C-25.39432977 154.94888349 -29.63753716 154.8911135 -33.88134766 154.85253906 C-36.120172 154.82592889 -38.35887367 154.78500058 -40.59716797 154.72949219 C-43.82049241 154.65044479 -47.04147398 154.61724406 -50.265625 154.59375 C-51.76431122 154.54426208 -51.76431122 154.54426208 -53.29327393 154.49377441 C-58.42971804 154.39226181 -58.42971804 154.39226181 -62.70495605 156.84936523 C-63.96425142 158.61776672 -64.97621641 160.40201304 -66 162.3125 C-66.66 162.9725 -67.32 163.6325 -68 164.3125 C-65.03 171.5725 -62.06 178.8325 -59 186.3125 C-56.958125 186.3125 -54.91625 186.3125 -52.8125 186.3125 C-46.62411742 186.77662869 -46.62411742 186.77662869 -44.09375 188.94921875 C-41.67396112 192.82235644 -40.40575714 196.98375885 -39 201.3125 C-38.01 201.25449219 -37.02 201.19648438 -36 201.13671875 C-23.0055327 200.59871029 -23.0055327 200.59871029 -17.58203125 204.74609375 C-12.27317792 210.00251397 -9.85937239 214.87387693 -9.75 222.375 C-9.71132813 223.97021484 -9.71132813 223.97021484 -9.671875 225.59765625 C-9.83429688 226.94150391 -9.83429688 226.94150391 -10 228.3125 C-13.42127447 230.59334965 -14.63542899 230.56351202 -18.65551758 230.56646729 C-19.83328766 230.57210693 -21.01105774 230.57774658 -22.22451782 230.58355713 C-24.16492447 230.57748444 -24.16492447 230.57748444 -26.14453125 230.57128906 C-27.51940089 230.57399885 -28.89426909 230.57755971 -30.26913452 230.58190918 C-34.00461248 230.59103695 -37.73998013 230.58748736 -41.47546005 230.58115101 C-45.38183645 230.57609302 -49.28820331 230.5807819 -53.19458008 230.58392334 C-59.75506285 230.58756357 -66.31550062 230.5827624 -72.87597656 230.57324219 C-80.46442554 230.56235751 -88.05276705 230.56588305 -95.64121342 230.576895 C-102.15252891 230.58596626 -108.66381203 230.58725395 -115.1751318 230.58201766 C-119.06579793 230.57889707 -122.95641352 230.57849106 -126.84707642 230.58509064 C-130.50455388 230.59086113 -134.16189257 230.58687271 -137.81935501 230.57530212 C-139.80472878 230.57138907 -141.79011427 230.57734373 -143.77548218 230.58355713 C-145.5421373 230.57509766 -145.5421373 230.57509766 -147.34448242 230.56646729 C-148.37022873 230.56571323 -149.39597504 230.56495918 -150.45280457 230.56418228 C-153 230.3125 -153 230.3125 -156 228.3125 C-157.0918681 221.91867779 -156.57406087 215.62588043 -153.2734375 209.99609375 C-150.34283273 206.12158254 -146.55573067 203.04801645 -142 201.3125 C-139.37573495 201.17291143 -136.86707253 201.12318631 -134.25 201.1875 C-133.55261719 201.19652344 -132.85523438 201.20554688 -132.13671875 201.21484375 C-130.42433042 201.23830112 -128.71211996 201.27416896 -127 201.3125 C-126.56107422 199.96091797 -126.56107422 199.96091797 -126.11328125 198.58203125 C-123.21629111 190.07402864 -123.21629111 190.07402864 -120 187.3125 C-115.52993611 186.29805589 -111.63362561 186.3125 -107 186.3125 C-104.03 178.7225 -101.06 171.1325 -98 163.3125 C-99.65 161.6625 -101.3 160.0125 -103 158.3125 C-103.66 157.3225 -104.32 156.3325 -105 155.3125 C-107.05733042 154.84835251 -107.05733042 154.84835251 -109.4621582 154.90844727 C-110.38684402 154.89576309 -111.31152985 154.88307892 -112.26423645 154.87001038 C-113.76732613 154.87441383 -113.76732613 154.87441383 -115.30078125 154.87890625 C-116.3293071 154.8736644 -117.35783295 154.86842255 -118.41752625 154.86302185 C-120.59727067 154.856589 -122.77704976 154.85795489 -124.95678711 154.86645508 C-128.28888151 154.87493986 -131.61924813 154.84626088 -134.95117188 154.81445312 C-137.06770782 154.81284042 -139.1842468 154.81341996 -141.30078125 154.81640625 C-142.79476189 154.79955528 -142.79476189 154.79955528 -144.31892395 154.78236389 C-149.98048577 154.8220043 -149.98048577 154.8220043 -154.99682617 157.26147461 C-155.65787354 157.93831299 -156.3189209 158.61515137 -157 159.3125 C-162.11577702 161.75412085 -166.59365998 161.60286338 -172 160.3125 C-177.28186456 158.31367674 -180.27396845 155.24032627 -183 150.3125 C-184.69046907 145.24109278 -184.68902929 140.43570836 -182.6875 135.5 C-181 132.3125 -181 132.3125 -179.42651367 130.9597168 C-177.3923483 128.61083544 -177.56957194 126.84231938 -177.48828125 123.76953125 C-177.45283203 122.69638672 -177.41738281 121.62324219 -177.38085938 120.51757812 C-177.35830078 119.39802734 -177.33574219 118.27847656 -177.3125 117.125 C-177.27833984 115.99384766 -177.24417969 114.86269531 -177.20898438 113.69726562 C-177.12643686 110.9024426 -177.05730818 108.10793602 -177 105.3125 C-178.134375 105.35890625 -179.26875 105.4053125 -180.4375 105.453125 C-190.43010252 105.74226793 -196.69723694 105.65112432 -204.75 99.0625 C-209.6498967 93.07373737 -211.44561117 88.17731725 -211.43359375 80.4140625 C-211 78.3125 -211 78.3125 -208 76.3125 C-206.68 76.3125 -205.36 76.3125 -204 76.3125 C-204.28875 75.52488281 -204.5775 74.73726563 -204.875 73.92578125 C-209.25118382 61.08593636 -209.43030013 49.89801912 -204 37.3125 C-197.70316004 26.02806403 -188.54820267 18.69338458 -176.125 15 C-164.32110831 12.56352536 -152.45366297 14.66743555 -142.1875 21 C-134.9726332 26.26526125 -129.26087323 32.96660169 -126 41.3125 C-125.64421875 42.20195313 -125.2884375 43.09140625 -124.921875 44.0078125 C-123.78508829 48.08290383 -123.61789687 51.78873131 -123.625 56 C-123.62371094 56.79003418 -123.62242188 57.58006836 -123.62109375 58.39404297 C-123.73841666 64.92279616 -125.09591665 70.42654536 -128 76.3125 C-127.236875 76.250625 -126.47375 76.18875 -125.6875 76.125 C-123 76.3125 -123 76.3125 -121.18359375 77.51953125 C-119.18094576 80.55324554 -119.95450452 83.21186275 -120.4296875 86.6796875 C-121.96822528 93.78225233 -125.10124734 98.18337314 -131 102.3125 C-136.24067728 105.57615531 -140.4040978 105.68569792 -146.375 105.5 C-147.20644531 105.48646484 -148.03789062 105.47292969 -148.89453125 105.45898438 C-150.92997066 105.42389059 -152.96507291 105.37009228 -155 105.3125 C-154.89047884 109.10478144 -154.75976759 112.8960384 -154.625 116.6875 C-154.5940625 117.76773438 -154.563125 118.84796875 -154.53125 119.9609375 C-154.47324219 121.5078125 -154.47324219 121.5078125 -154.4140625 123.0859375 C-154.3826416 124.03903809 -154.3512207 124.99213867 -154.31884766 125.97412109 C-154.21444204 128.50145176 -154.21444204 128.50145176 -152 130.3125 C-149.94353705 130.65212136 -149.94353705 130.65212136 -147.55371094 130.65063477 C-146.63225281 130.67307755 -145.71079468 130.69552032 -144.76141357 130.71864319 C-143.76249084 130.73028 -142.76356812 130.74191681 -141.734375 130.75390625 C-140.70822083 130.76767807 -139.68206665 130.78144989 -138.62481689 130.79563904 C-136.44931453 130.81894548 -134.27374023 130.83619329 -132.09814453 130.84790039 C-128.77633351 130.87478686 -125.45772495 130.9496553 -122.13671875 131.02539062 C-120.02345895 131.04205105 -117.91017394 131.05581641 -115.796875 131.06640625 C-114.31063629 131.11118858 -114.31063629 131.11118858 -112.79437256 131.15687561 C-107.50330932 131.17315919 -107.50330932 131.17315919 -102.99768066 128.70309448 C-101.50288585 126.97125015 -100.20434794 125.25503798 -99 123.3125 C-100.48817981 120.18050316 -101.93997186 118.19663457 -104.51171875 115.8515625 C-105.18654297 115.21476562 -105.86136719 114.57796875 -106.55664062 113.921875 C-107.9796285 112.59670939 -109.41202292 111.28157483 -110.85351562 109.9765625 C-112.7595933 108.16020414 -114.47998047 106.4633305 -116 104.3125 C-116.01953125 100.8984375 -116.01953125 100.8984375 -115 98.3125 C-113.22335397 96.53585397 -110.63168513 97.16638819 -108.22680664 97.15136719 C-106.99205093 97.14175964 -105.75729523 97.1321521 -104.48512268 97.12225342 C-103.1268024 97.11740632 -101.76847999 97.11312727 -100.41015625 97.109375 C-99.02632137 97.10362626 -97.64248654 97.0978685 -96.25865173 97.09210205 C-93.3541527 97.0815841 -90.44968142 97.07574654 -87.54516602 97.07226562 C-83.81789738 97.06677672 -80.09099331 97.04274412 -76.36383915 97.01429367 C-73.50458189 96.99569833 -70.64541302 96.99046339 -67.78610039 96.98892975 C-66.41172732 96.98589602 -65.03735606 96.97784332 -63.66304207 96.96474457 C-61.7429637 96.94774945 -59.82273583 96.95139961 -57.90258789 96.95605469 C-56.26163902 96.95058624 -56.26163902 96.95058624 -54.58753967 96.94500732 C-53.73365158 97.06627991 -52.87976349 97.18755249 -52 97.3125 C-50 100.3125 -50 100.3125 -50.15014648 102.75073242 C-51.14536287 105.75067656 -52.33641474 107.11075994 -54.59765625 109.30078125 C-55.31630859 110.00654297 -56.03496094 110.71230469 -56.77539062 111.43945312 C-57.53013672 112.16068359 -58.28488281 112.88191406 -59.0625 113.625 C-60.20041992 114.73584961 -60.20041992 114.73584961 -61.36132812 115.86914062 C-63.23219159 117.69293834 -65.11174492 119.50674304 -67 121.3125 C-64.62383934 126.24931403 -64.62383934 126.24931403 -61 130.3125 C-57.15316648 131.0382739 -53.34323335 131.01198813 -49.4375 131 C-47.35278369 131.01657573 -45.26811069 131.04096226 -43.18359375 131.07421875 C-42.26118896 131.07381592 -41.33878418 131.07341309 -40.38842773 131.07299805 C-38 131.3125 -38 131.3125 -35 133.3125 C-34.8125 136.4375 -34.8125 136.4375 -35 139.3125 C-37.45275141 140.5388757 -39.0505781 140.42665314 -41.7890625 140.41015625 C-42.73007813 140.40693359 -43.67109375 140.40371094 -44.640625 140.40039062 C-45.62546875 140.39201172 -46.6103125 140.38363281 -47.625 140.375 C-48.61757812 140.37048828 -49.61015625 140.36597656 -50.6328125 140.36132812 C-53.0886016 140.34952145 -55.54427104 140.333054 -58 140.3125 C-58 141.9625 -58 143.6125 -58 145.3125 C-44.8 145.3125 -31.6 145.3125 -18 145.3125 C-18 143.6625 -18 142.0125 -18 140.3125 C-20.31 139.9825 -22.62 139.6525 -25 139.3125 C-25.75 137.5625 -25.75 137.5625 -26 135.3125 C-24.5625 133.125 -24.5625 133.125 -22 131.3125 C-19.33963517 130.77203141 -16.7085762 130.57462028 -14 130.3125 C-11.43863779 127.75113779 -11.70333143 126.64688669 -11.5859375 123.0859375 C-11.52792969 121.5390625 -11.52792969 121.5390625 -11.46875 119.9609375 C-11.4378125 118.88070312 -11.406875 117.80046875 -11.375 116.6875 C-11.31699219 115.05554688 -11.31699219 115.05554688 -11.2578125 113.390625 C-11.16333753 110.69808835 -11.07777569 108.00556243 -11 105.3125 C-12.19496094 105.37050781 -13.38992187 105.42851563 -14.62109375 105.48828125 C-31.71962044 106.07763778 -31.71962044 106.07763778 -38 100.3125 C-43.20010552 94.89713957 -45.58893423 89.58758401 -46.3125 82.0625 C-46 79.3125 -46 79.3125 -44.9609375 77.65234375 C-41.94209207 75.58966649 -38.82848213 75.99696704 -35.3125 76.125 C-34.61060547 76.13853516 -33.90871094 76.15207031 -33.18554688 76.16601562 C-31.45670171 76.20129818 -29.72825235 76.25510417 -28 76.3125 C-28.185625 75.384375 -28.37125 74.45625 -28.5625 73.5 C-29 70.3125 -29 70.3125 -28 67.3125 C-25.703463 66.1642315 -24.41686833 66.19688825 -21.8671875 66.21484375 C-21.06152344 66.21806641 -20.25585938 66.22128906 -19.42578125 66.22460938 C-18.16314453 66.23717773 -18.16314453 66.23717773 -16.875 66.25 C-16.02550781 66.25451172 -15.17601562 66.25902344 -14.30078125 66.26367188 C-12.20049091 66.27547126 -10.1002367 66.29340694 -8 66.3125 C-7.72285156 66.87839844 -7.44570312 67.44429688 -7.16015625 68.02734375 C-6.79792969 68.76082031 -6.43570313 69.49429688 -6.0625 70.25 C-5.52302734 71.34634766 -5.52302734 71.34634766 -4.97265625 72.46484375 C-4.13628173 74.27499027 -4.13628173 74.27499027 -3 75.3125 C-0.66055264 75.02519945 1.6739143 74.69313221 4 74.3125 C4.76716851 71.46171909 4.76716851 71.46171909 5 68.3125 C3.34980131 65.91117639 2.30379128 65.37399808 -0.56640625 64.79296875 C-2.04947266 64.64794922 -2.04947266 64.64794922 -3.5625 64.5 C-11.90562602 63.25912394 -18.26095443 59.94433601 -23.5 53.25 C-28.32321231 46.0355613 -29.95575236 38.30707418 -28.375 29.6875 C-26.09656792 21.17335906 -20.89703881 15.56521168 -14 10.3125 C-13.34 9.9825 -12.68 9.6525 -12 9.3125 C-11.855625 8.178125 -11.71125 7.04375 -11.5625 5.875 C-11.376875 4.699375 -11.19125 3.52375 -11 2.3125 C-7.27078729 -0.17364181 -4.31628318 -0.01920055 0 0 Z M-3 9.3125 C-2.979375 10.199375 -2.95875 11.08625 -2.9375 12 C-4 15.3125 -4 15.3125 -5.859375 16.54296875 C-7.45169925 17.32577245 -9.0441533 18.10831215 -10.63671875 18.890625 C-15.30565542 21.69970425 -18.29774978 26.20574935 -20 31.3125 C-20.90502507 38.83459364 -19.21561251 44.00178726 -14.73828125 50.00390625 C-10.35768805 54.59145661 -4.81657199 55.65851713 1.22558594 56.75683594 C6.24825008 57.7536453 8.75080486 59.38281305 12 63.3125 C13.28446919 65.88143838 13.32977144 68.07826337 13.5625 70.9375 C13.64628906 71.94039062 13.73007813 72.94328125 13.81640625 73.9765625 C13.87699219 74.74742188 13.93757813 75.51828125 14 76.3125 C15.65 76.3125 17.3 76.3125 19 76.3125 C20.36876286 69.34425274 19.81229332 64.57909568 15.859375 58.58203125 C10.50484871 51.71942635 4.58848544 50.66117369 -3.625 49.25390625 C-8.12097293 47.99982121 -10.99470792 46.0837289 -13.3125 42 C-14.56268329 37.11291989 -14.67195133 33.09897887 -12.375 28.5625 C-10.15015729 25.10076922 -7.96781133 23.60966909 -4 22.3125 C1.15199815 21.59385193 4.71635387 22.28874979 9 25.3125 C9.66 25.3125 10.32 25.3125 11 25.3125 C11.4640625 26.5190625 11.4640625 26.5190625 11.9375 27.75 C12.76335345 30.20330405 12.76335345 30.20330405 14 31.3125 C15.66617115 31.35313832 17.33388095 31.355221 19 31.3125 C17.73183836 26.76825413 16.35181115 23.66431115 13 20.3125 C11.47471414 19.46965042 9.93118391 18.65933667 8.375 17.875 C4.90263021 16.08464842 4.17565943 15.68489798 2.4375 12 C2.293125 11.113125 2.14875 10.22625 2 9.3125 C0.35 9.3125 -1.3 9.3125 -3 9.3125 Z M-193.25 36.6875 C-198.80091498 45.01387247 -200.79557923 52.97192361 -199.375 62.875 C-198.30938007 67.91893431 -196.78498797 72.65060107 -193 76.3125 C-189.7859186 76.98262422 -189.7859186 76.98262422 -187 76.3125 C-187.34933594 75.62542969 -187.69867188 74.93835938 -188.05859375 74.23046875 C-188.51363281 73.32941406 -188.96867187 72.42835937 -189.4375 71.5 C-189.88996094 70.60667969 -190.34242188 69.71335938 -190.80859375 68.79296875 C-192.82257022 64.59993577 -193.13539955 61.42989862 -193.125 56.8125 C-193.12757813 55.6678125 -193.13015625 54.523125 -193.1328125 53.34375 C-193 50.3125 -193 50.3125 -192 47.3125 C-189 46.3125 -189 46.3125 -186 47.3125 C-186.03480469 48.0859375 -186.06960937 48.859375 -186.10546875 49.65625 C-186.3161585 57.76278909 -186.08145319 63.75697709 -180.5625 70.125 C-174.8784561 74.97723259 -171.15337681 76.7025104 -163.62890625 76.58203125 C-158.45841313 76.05192126 -154.73341512 74.18942225 -151.20703125 70.37109375 C-146.65840423 64.50433729 -145.15808648 59.72133899 -146 52.3125 C-147.82779031 46.23454668 -151.52506475 41.52014336 -157 38.3125 C-163.23489036 35.88667345 -167.81592164 36.10129078 -173.94921875 38.57421875 C-176.67690886 39.55618719 -179.13236604 39.53308723 -182 39.3125 C-182 37.3325 -182 35.3525 -182 33.3125 C-173.83565896 29.26645488 -166.14681753 27.63687241 -157.19140625 30.078125 C-150.07829166 32.7415795 -144.97276702 36.23764835 -141.078125 42.84375 C-138.04299296 49.79376249 -137.09717502 57.8319691 -139.15234375 65.16796875 C-140.70814569 69.10407597 -142.77515791 72.72048395 -145 76.3125 C-142.69 76.3125 -140.38 76.3125 -138 76.3125 C-132.84710223 66.68208426 -130.2992065 58.09733319 -133.125 47.3125 C-136.47680405 37.30364068 -142.74588921 30.12973807 -152.0859375 25.21484375 C-168.24421031 18.75754142 -182.11853625 24.93762159 -193.25 36.6875 Z M-19 74.3125 C-19 74.9725 -19 75.6325 -19 76.3125 C-17.35 76.3125 -15.7 76.3125 -14 76.3125 C-14 75.6525 -14 74.9925 -14 74.3125 C-15.65 74.3125 -17.3 74.3125 -19 74.3125 Z M-202 85.3125 C-200.7370817 90.36417321 -198.9081024 93.03852058 -194.5625 95.93994141 C-189.56534588 97.86524297 -184.99853885 97.74183351 -179.6875 97.7109375 C-178.05687622 97.71524277 -178.05687622 97.71524277 -176.39331055 97.71963501 C-174.10041786 97.7216718 -171.80750765 97.71616896 -169.51464844 97.70361328 C-166.01197325 97.68755489 -162.51045195 97.70347583 -159.0078125 97.72265625 C-156.77603913 97.72067375 -154.54426647 97.71682994 -152.3125 97.7109375 C-151.26860107 97.71701019 -150.22470215 97.72308289 -149.14916992 97.7293396 C-142.91658896 97.66927316 -138.16706692 97.20122612 -133.35546875 92.8125 C-131.41284403 90.3176241 -130.00720872 88.33412616 -129 85.3125 C-153.09 85.3125 -177.18 85.3125 -202 85.3125 Z M-37 85.3125 C-34.00285089 91.30679822 -33.00726401 92.66136999 -28 96.3125 C-25.11283748 97.27488751 -23.20260479 97.46028487 -20.1965332 97.50537109 C-19.22154373 97.52143402 -18.24655426 97.53749695 -17.24201965 97.55404663 C-12.77829781 97.59865376 -8.31472296 97.63957346 -3.85083008 97.66259766 C-1.5007943 97.67913693 0.84919159 97.7063998 3.19897461 97.74462891 C6.59515364 97.79957166 9.9901543 97.82130058 13.38671875 97.8359375 C14.42970627 97.85860687 15.47269379 97.88127625 16.54728699 97.90463257 C23.32715925 97.88512928 27.74870529 96.69543427 33 92.3125 C35.51977973 89.63523404 36 89.02158301 36 85.3125 C11.91 85.3125 -12.18 85.3125 -37 85.3125 Z M-168 105.3125 C-168 111.9125 -168 118.5125 -168 125.3125 C-166.35 125.3125 -164.7 125.3125 -163 125.3125 C-163 118.7125 -163 112.1125 -163 105.3125 C-164.65 105.3125 -166.3 105.3125 -168 105.3125 Z M-102 105.3125 C-100.02 107.6225 -98.04 109.9325 -96 112.3125 C-95.175 113.446875 -94.35 114.58125 -93.5 115.75 C-90.47255672 118.64271413 -87.48064309 119.05400587 -83.375 119.4375 C-76.72645294 119.21823941 -73.54789476 116.98815561 -69.125 112.375 C-65.72223628 109.18824768 -65.72223628 109.18824768 -64 105.3125 C-76.54 105.3125 -89.08 105.3125 -102 105.3125 Z M-3 105.3125 C-3 111.9125 -3 118.5125 -3 125.3125 C-1.35 125.3125 0.3 125.3125 2 125.3125 C2 118.7125 2 112.1125 2 105.3125 C0.35 105.3125 -1.3 105.3125 -3 105.3125 Z M-96.4375 132.9375 C-99.70900014 137.91018021 -99.59628965 142.45726695 -99 148.3125 C-96.81473658 152.76396251 -94.0605479 155.50135145 -90 158.3125 C-85.01920617 159.97276461 -80.69726371 159.91153425 -75.8125 158.1875 C-71.92803322 155.59785548 -69.11342979 152.53935959 -67 148.3125 C-66.47886829 143.08409666 -66.35726466 138.67213246 -68.625 133.875 C-73.09581302 129.05122806 -77.13705449 126.61265803 -83.69140625 126.1484375 C-89.06324062 126.53019223 -92.85077102 129.07486879 -96.4375 132.9375 Z M-173 136.3125 C-175.4915904 140.0498856 -175.45793285 141.88581583 -175 146.3125 C-173.20437595 149.06579021 -171.94745078 150.83877461 -169 152.3125 C-164.84219956 152.87947279 -163.27412815 152.48835579 -159.6875 150.1875 C-156.70405745 146.99591029 -155.90971856 145.6460089 -156 141.3125 C-157.60837371 137.67249635 -159.51304189 135.26109424 -163 133.3125 C-167.21907155 132.66341207 -169.60263395 133.83334099 -173 136.3125 Z M-9 138.3125 C-10.37593491 142.11655533 -10.20221782 143.75906175 -8.8125 147.5625 C-6.93512623 150.41092917 -6.22620643 151.39072673 -3 152.3125 C0.92032447 152.81296695 2.48702261 152.65448493 5.8125 150.4375 C8.60921179 147.72069426 8.94303123 146.91636898 9.3125 143 C8.94115803 138.61816476 8.34168746 137.15293434 5 134.3125 C-1.22165844 131.92973719 -4.75511018 133.44640679 -9 138.3125 Z M-148 140.3125 C-148 141.9625 -148 143.6125 -148 145.3125 C-134.8 145.3125 -121.6 145.3125 -108 145.3125 C-108 143.6625 -108 142.0125 -108 140.3125 C-121.2 140.3125 -134.4 140.3125 -148 140.3125 Z M-90 167.3125 C-91.17076229 170.26927211 -92.33676671 173.22776743 -93.5 176.1875 C-94.00080078 177.45013672 -94.00080078 177.45013672 -94.51171875 178.73828125 C-94.82753906 179.54394531 -95.14335938 180.34960938 -95.46875 181.1796875 C-95.76201172 181.92331543 -96.05527344 182.66694336 -96.35742188 183.43310547 C-97.10783991 185.29687213 -97.10783991 185.29687213 -97 187.3125 C-87.76 187.3125 -78.52 187.3125 -69 187.3125 C-71.34157858 179.35664418 -71.34157858 179.35664418 -74.1875 171.6875 C-74.785625 170.24375 -75.38375 168.8 -76 167.3125 C-80.62 167.3125 -85.24 167.3125 -90 167.3125 Z M-115 195.3125 C-115.66 197.2925 -116.32 199.2725 -117 201.3125 C-110.07 201.8075 -110.07 201.8075 -103 202.3125 C-102.505 205.2825 -102.505 205.2825 -102 208.3125 C-103.06436279 208.32708252 -104.12872559 208.34166504 -105.2253418 208.35668945 C-109.18596469 208.4147978 -113.14602648 208.49202945 -117.10620117 208.57495117 C-118.81802238 208.60814169 -120.52995148 208.63619189 -122.24194336 208.65893555 C-124.70733479 208.69259032 -127.17174281 208.74490974 -129.63671875 208.80078125 C-130.39836838 208.80717117 -131.16001801 208.8135611 -131.94474792 208.82014465 C-136.46654392 208.94439361 -139.38898145 209.54981065 -143 212.3125 C-145.90671724 215.46144368 -146.94302399 217.08459597 -148 221.3125 C-105.1 221.3125 -62.2 221.3125 -18 221.3125 C-20.77506585 214.83734636 -21.98588455 212.31955772 -28 209.3125 C-30.03160472 209.19212039 -32.0670744 209.13510878 -34.10205078 209.10717773 C-35.38322784 209.08723251 -36.66440491 209.06728729 -37.98440552 209.04673767 C-39.38803994 209.02975331 -40.79167563 209.01287451 -42.1953125 208.99609375 C-43.62735597 208.9755246 -45.05939337 208.95452814 -46.49142456 208.93312073 C-50.26266563 208.87789597 -54.03396152 208.82848853 -57.80529785 208.78027344 C-61.65280036 208.73006133 -65.50022313 208.67437376 -69.34765625 208.61914062 C-76.89837 208.51155413 -84.44915 208.41011029 -92 208.3125 C-91.67 206.3325 -91.34 204.3525 -91 202.3125 C-77.14 201.9825 -63.28 201.6525 -49 201.3125 C-49.99 198.3425 -49.99 198.3425 -51 195.3125 C-72.12 195.3125 -93.24 195.3125 -115 195.3125 Z " fill="#F56F08" transform="translate(211,12.6875)"/>
<path d="M0 0 C3.01431213 3.16502774 4.23988828 5.76252814 4.5 10.0625 C3.94431848 14.438492 3.17011328 16.00600412 0 19 C-3.26934278 21.28853994 -6.0698152 21.47162218 -10 21 C-13.6578218 18.96006092 -15.66946174 17.49580738 -18 14 C-18.46581983 9.26416503 -18.44892907 6.93239115 -16.375 2.625 C-11.63950697 -2.60896598 -6.17540357 -2.96944937 0 0 Z M-8 7 C-8.99 8.485 -8.99 8.485 -10 10 C-9.67 10.66 -9.34 11.32 -9 12 C-7.68 12 -6.36 12 -5 12 C-4.67 11.01 -4.34 10.02 -4 9 C-5.32 8.34 -6.64 7.68 -8 7 Z " fill="#F56F08" transform="translate(135,146)"/>
<path d="M0 0 C2.4375 0.1875 2.4375 0.1875 3.4375 1.1875 C3.50929964 2.70678038 3.52142007 4.22917482 3.5 5.75 C3.49097656 6.57628906 3.48195313 7.40257812 3.47265625 8.25390625 C3.46105469 8.89199219 3.44945312 9.53007813 3.4375 10.1875 C4.22125 10.14625 5.005 10.105 5.8125 10.0625 C8.4375 10.1875 8.4375 10.1875 10.4375 12.1875 C10.75 14.6875 10.75 14.6875 10.4375 17.1875 C7.315498 19.26883467 6.50483011 19.4612822 2.9375 19.4375 C1.77734375 19.44523437 1.77734375 19.44523437 0.59375 19.453125 C-1.5625 19.1875 -1.5625 19.1875 -4.5625 17.1875 C-4.83918225 14.59323202 -4.93545242 12.27486354 -4.875 9.6875 C-4.87822266 8.99785156 -4.88144531 8.30820312 -4.88476562 7.59765625 C-4.80708034 0.35173759 -4.80708034 0.35173759 0 0 Z " fill="#F46F09" transform="translate(45.5625,54.8125)"/>
<path d="M0 0 C1.875 0.6875 1.875 0.6875 2.875 1.6875 C3.0625 4.125 3.0625 4.125 2.875 6.6875 C2.215 7.3475 1.555 8.0075 0.875 8.6875 C-3.68055556 8.13194444 -3.68055556 8.13194444 -5.125 6.6875 C-5.375 4.25 -5.375 4.25 -5.125 1.6875 C-2.125 -0.3125 -2.125 -0.3125 0 0 Z " fill="#F56D08" transform="translate(46.125,151.3125)"/>
<path d="M0 0 C4.55555556 0.55555556 4.55555556 0.55555556 6 2 C6.1875 4.4375 6.1875 4.4375 6 7 C5.34 7.66 4.68 8.32 4 9 C-0.55555556 8.44444444 -0.55555556 8.44444444 -2 7 C-2.1875 4.5625 -2.1875 4.5625 -2 2 C-1.34 1.34 -0.68 0.68 0 0 Z " fill="#F56E08" transform="translate(209,151)"/>
</svg>
