<svg xmlns="http://www.w3.org/2000/svg" version="1.1" width="256" height="256">
<path d="M0 0 C3.54661007 1.287487 7.03622491 2.68594854 10.52008057 4.13180542 C11.86324719 4.6725014 13.20717491 5.21130987 14.55178833 5.74839783 C17.45216456 6.90998057 20.34802088 8.08199128 23.2411499 9.26150513 C27.96856239 11.18546605 32.71179652 13.06818728 37.45855713 14.94381714 C44.19459329 17.60700176 50.92781975 20.27700789 57.65679932 22.95797729 C58.50245075 23.29487768 59.34810219 23.63177807 60.21937943 23.97888756 C61.9359649 24.66282906 63.65253156 25.34681778 65.36907959 26.03085327 C72.29335094 28.78994866 79.21843194 31.54700924 86.14388657 34.30313301 C88.51965918 35.24897215 90.8950314 36.19581098 93.27035522 37.14277649 C96.80748447 38.55236897 100.34740847 39.95474666 103.88880157 41.3535881 C105.79801843 42.11108666 107.70321551 42.87805854 109.6081543 43.64624023 C110.75326477 44.10110809 111.89837524 44.55597595 113.07818604 45.02462769 C114.06608124 45.42110001 115.05397644 45.81757233 116.07180786 46.22605896 C119.59455304 47.37355959 122.83797183 47.64793286 126.52398682 47.59664917 C132.56763 48.98271236 136.52697601 54.94422612 140.02789307 59.69039917 C140.45263916 60.25436401 140.87738525 60.81832886 141.31500244 61.39938354 C142.49667387 62.97065737 143.66886005 64.54905175 144.84039307 66.12789917 C145.43980713 66.86524292 146.03922119 67.60258667 146.65679932 68.36227417 C147.84039307 70.12789917 147.84039307 70.12789917 147.59039307 72.81539917 C146.84039307 75.12789917 146.84039307 75.12789917 145.84039307 76.12789917 C144.0596806 76.2151614 142.27556167 76.23488958 140.49273682 76.22555542 C139.41314697 76.22233276 138.33355713 76.21911011 137.22125244 76.21578979 C136.08494385 76.20741089 134.94863525 76.19903198 133.77789307 76.19039917 C132.63771729 76.18588745 131.4975415 76.18137573 130.32281494 76.17672729 C127.49528955 76.16489664 124.66786667 76.14841327 121.84039307 76.12789917 C118.67184004 101.79197473 118.67184004 101.79197473 127.2011261 125.19013977 C130.15721082 128.76659313 133.33221902 132.01863788 136.71539307 135.19039917 C137.36027679 135.80531219 138.00516052 136.42022522 138.66958618 137.05377197 C147.19658081 145.01869978 147.19658081 145.01869978 158.11773682 148.25289917 C158.97101563 148.21551636 159.82429443 148.17813354 160.70343018 148.13961792 C162.84039307 148.12789917 162.84039307 148.12789917 165.52789307 150.06539917 C167.40187884 154.43803264 167.16813837 158.43932052 166.84039307 163.12789917 C167.98508057 163.28258667 167.98508057 163.28258667 169.15289307 163.44039917 C172.20538033 164.221268 173.03564796 164.58367398 174.84039307 167.12789917 C175.19373048 169.71609572 175.35030792 171.98009993 175.34039307 174.56539917 C175.38679932 176.54346558 175.38679932 176.54346558 175.43414307 178.56149292 C174.84039307 182.12789917 174.84039307 182.12789917 172.80723572 184.32142639 C169.07326828 186.5949917 166.01653667 186.67070194 161.77716064 186.59786987 C160.97985031 186.60006027 160.18253998 186.60225067 159.36106873 186.60450745 C156.7352602 186.60681225 154.11058262 186.58060307 151.48492432 186.55368042 C149.65840511 186.54875563 147.83188085 186.54545733 146.00535583 186.54371643 C142.18303232 186.53608403 138.36108428 186.51554291 134.53887939 186.48458862 C129.6325564 186.44493024 124.72647713 186.42696558 119.82001209 186.41727924 C115.14578299 186.40732164 110.47161372 186.38742723 105.79742432 186.36618042 C104.90235483 186.36278467 104.00728535 186.35938892 103.08509254 186.35589027 C100.56180262 186.34434864 98.03866924 186.32583485 95.51544189 186.30490112 C94.38786972 186.30086777 94.38786972 186.30086777 93.23751831 186.29675293 C88.07022485 186.24281506 88.07022485 186.24281506 85.84039307 185.12789917 C85.84039307 182.81789917 85.84039307 180.50789917 85.84039307 178.12789917 C88.86803637 176.61407752 91.99940859 176.99805664 95.31939697 177.01437378 C96.47563316 177.01415474 96.47563316 177.01415474 97.65522766 177.01393127 C100.20916535 177.01462928 102.76303058 177.02241642 105.31695557 177.03024292 C107.08529623 177.0321075 108.8536374 177.03353121 110.62197876 177.03453064 C115.28104066 177.03835267 119.94007149 177.04818029 124.59912109 177.05923462 C129.35141581 177.06945548 134.10371553 177.07402971 138.85601807 177.07907104 C148.18415673 177.08980283 157.51227232 177.1068755 166.84039307 177.12789917 C166.84039307 175.47789917 166.84039307 173.82789917 166.84039307 172.12789917 C133.18039307 172.12789917 99.52039307 172.12789917 64.84039307 172.12789917 C64.84039307 173.77789917 64.84039307 175.42789917 64.84039307 177.12789917 C65.68343994 177.10469604 66.52648682 177.08149292 67.39508057 177.05758667 C68.49078369 177.03953979 69.58648682 177.02149292 70.71539307 177.00289917 C71.80593994 176.97969604 72.89648682 176.95649292 74.02008057 176.93258667 C76.84039307 177.12789917 76.84039307 177.12789917 78.84039307 179.12789917 C79.15289307 181.62789917 79.15289307 181.62789917 78.84039307 184.12789917 C73.72773238 187.53633963 67.79773497 186.75425521 61.84039307 186.12789917 C58.46539307 184.44039917 58.46539307 184.44039917 56.84039307 181.12789917 C55.94746187 175.11600894 55.62056779 170.02939151 58.96539307 164.81539917 C62.24124522 162.89261638 64.10447605 162.69349021 67.84039307 163.12789917 C67.79398682 162.38024292 67.74758057 161.63258667 67.69976807 160.86227417 C67.41112477 152.98643576 67.41112477 152.98643576 69.15289307 149.50289917 C72.16259299 147.9630527 73.26914201 148.16893858 76.56304932 148.28805542 C85.58533932 147.49957767 91.68430695 141.17957442 97.96539307 135.19039917 C98.62292572 134.57395538 99.28045837 133.9575116 99.95791626 133.3223877 C109.96213226 123.61715075 113.79283253 115.00382155 114.21295166 101.06906128 C114.20922512 92.69313131 113.65781853 84.4656389 112.84039307 76.12789917 C100.30039307 76.12789917 87.76039307 76.12789917 74.84039307 76.12789917 C74.99812342 83.47261992 74.99812342 83.47261992 75.20074463 90.81613159 C75.28253335 98.35982214 75.28253335 98.35982214 73.01226807 102.30368042 C69.04911408 105.63244465 64.9904472 105.30253307 60.06695557 105.33102417 C59.3061972 105.33672424 58.54543884 105.34242432 57.7616272 105.34829712 C56.15280545 105.35773665 54.54396445 105.36427695 52.93511963 105.36813354 C50.48132391 105.37783618 48.02836717 105.40886697 45.57476807 105.44039917 C44.00966886 105.44693002 42.44456368 105.45218017 40.87945557 105.45602417 C40.14909088 105.46837097 39.4187262 105.48071777 38.66622925 105.49343872 C34.21389662 105.47409233 31.32291213 104.9655073 27.84039307 102.12789917 C25.72228725 99.09430713 25.6027075 96.56885754 25.64508057 92.92477417 C25.65152588 91.94508667 25.65797119 90.96539917 25.66461182 89.95602417 C25.68974854 88.43235229 25.68974854 88.43235229 25.71539307 86.87789917 C25.7244165 85.84664917 25.73343994 84.81539917 25.74273682 83.75289917 C25.76627169 81.21113301 25.80214175 78.66948645 25.84039307 76.12789917 C19.24039307 76.12789917 12.64039307 76.12789917 5.84039307 76.12789917 C6.07302101 79.16601303 6.07302101 79.16601303 6.31034851 82.26550293 C6.82459467 89.4845528 7.1161718 96.69264943 7.32110596 103.92623901 C7.36026627 105.22550827 7.39942657 106.52477753 7.43977356 107.86341858 C7.54560518 111.37686723 7.64790646 114.89041028 7.74950337 118.40398359 C7.85683287 122.09421415 7.96750706 125.78434448 8.07780457 129.4744873 C8.28551289 136.44027435 8.49027598 143.40614462 8.69394249 150.37205088 C8.92622925 158.31183389 9.16185792 166.25151667 9.39774716 174.19119334 C9.88230956 190.50332104 10.36274066 206.81556764 10.84039307 223.12789917 C11.64863525 223.23746948 12.45687744 223.34703979 13.28961182 223.45993042 C14.35824463 223.61848511 15.42687744 223.77703979 16.52789307 223.94039917 C18.11150635 224.16662964 18.11150635 224.16662964 19.72711182 224.39743042 C24.08398127 225.4196821 26.92484132 226.88536465 29.59039307 230.50289917 C31.6257042 234.77705255 32.02870068 238.99069783 32.15289307 243.69039917 C32.20896729 245.08452026 32.20896729 245.08452026 32.26617432 246.50680542 C31.84039307 249.12789917 31.84039307 249.12789917 30.47418213 251.26290894 C26.3316022 254.19627639 22.2269269 253.66015737 17.27398682 253.58883667 C16.24354752 253.58792023 15.21310822 253.58700378 14.15144348 253.58605957 C11.97520333 253.58002227 9.79897153 253.5642725 7.62286377 253.53952026 C4.28686003 253.50299734 0.95196654 253.49850104 -2.38421631 253.49899292 C-4.49815822 253.48916235 -6.6120926 253.47750562 -8.72601318 253.46383667 C-9.72604874 253.46161102 -10.72608429 253.45938538 -11.75642395 253.45709229 C-12.68426193 253.44433258 -13.61209991 253.43157288 -14.5680542 253.41842651 C-15.3842775 253.41080292 -16.20050079 253.40317932 -17.04145813 253.39532471 C-19.15960693 253.12789917 -19.15960693 253.12789917 -22.15960693 251.12789917 C-22.34710693 248.00289917 -22.34710693 248.00289917 -22.15960693 245.12789917 C-19.85140185 243.97379663 -18.55176417 244.00686947 -15.98529053 244.01437378 C-14.69417862 244.01448708 -14.69417862 244.01448708 -13.37698364 244.01460266 C-11.98160873 244.02234459 -11.98160873 244.02234459 -10.55804443 244.03024292 C-9.6064444 244.03165787 -8.65484436 244.03307281 -7.67440796 244.03453064 C-4.62777596 244.04013905 -1.58121681 244.05269298 1.46539307 244.06539917 C3.52789201 244.07041309 5.5903921 244.07497618 7.65289307 244.07907104 C12.71542124 244.09011121 17.77789479 244.1073815 22.84039307 244.12789917 C22.55911886 242.64672116 22.26505574 241.16796668 21.96539307 239.69039917 C21.80297119 238.86668823 21.64054932 238.04297729 21.47320557 237.19430542 C21.15996338 236.17143433 21.15996338 236.17143433 20.84039307 235.12789917 C18.37815492 233.8967801 16.73291401 233.98783214 13.97930908 233.96676636 C12.96808487 233.95715881 11.95686066 233.94755127 10.91499329 233.93765259 C9.81916428 233.93340271 8.72333527 233.92915283 7.59429932 233.92477417 C6.47224594 233.9190741 5.35019257 233.91337402 4.19413757 233.90750122 C1.81768744 233.89804329 -0.55877586 233.8915141 -2.9352417 233.88766479 C-6.5786207 233.87794847 -10.2214383 233.8469275 -13.86468506 233.81539917 C-16.17002024 233.80887043 -18.47535947 233.80361945 -20.78070068 233.79977417 C-21.87450546 233.78742737 -22.96831024 233.77508057 -24.09526062 233.76235962 C-25.10963699 233.76536072 -26.12401337 233.76836182 -27.16912842 233.77145386 C-28.50910133 233.76598541 -28.50910133 233.76598541 -29.87614441 233.76040649 C-32.20873604 233.95856993 -32.20873604 233.95856993 -33.92854309 235.41970825 C-35.85536192 238.09330999 -35.85629802 240.91282471 -36.15960693 244.12789917 C-35.37585693 244.08664917 -34.59210693 244.04539917 -33.78460693 244.00289917 C-31.15960693 244.12789917 -31.15960693 244.12789917 -29.15960693 246.12789917 C-28.84710693 248.62789917 -28.84710693 248.62789917 -29.15960693 251.12789917 C-32.28160894 253.20923384 -33.09227682 253.40168137 -36.65960693 253.37789917 C-37.81976318 253.38563354 -37.81976318 253.38563354 -39.00335693 253.39352417 C-41.15960693 253.12789917 -41.15960693 253.12789917 -44.15960693 251.12789917 C-44.49252571 248.28459285 -44.62337923 245.72008442 -44.59710693 242.87789917 C-44.62707764 241.75061401 -44.62707764 241.75061401 -44.65765381 240.60055542 C-44.65225405 234.41243656 -42.72344666 230.88165295 -38.47210693 226.31539917 C-35.98723016 225.03938137 -34.27475167 224.8234604 -31.51507568 224.55368042 C-30.70062988 224.47158325 -29.88618408 224.38948608 -29.04705811 224.30490112 C-28.42419922 224.24649048 -27.80134033 224.18807983 -27.15960693 224.12789917 C-27.17628418 222.83400269 -27.19296143 221.5401062 -27.21014404 220.20700073 C-27.40016527 197.21608196 -26.54465048 174.24512766 -25.82720947 151.26876831 C-25.68704978 146.74686818 -25.55106474 142.2248467 -25.4151926 137.70281601 C-25.28188693 133.27549962 -25.14675626 128.84824042 -25.0110302 124.42099762 C-24.94729855 122.3402948 -24.88391519 120.25958128 -24.82092476 118.1788559 C-24.39425338 104.15442201 -23.82384998 90.14324835 -23.15960693 76.12789917 C-30.74960693 76.12789917 -38.33960693 76.12789917 -46.15960693 76.12789917 C-46.48960693 78.10789917 -46.81960693 80.08789917 -47.15960693 82.12789917 C-49.07692214 84.65526921 -50.07466102 85.09958387 -53.15960693 86.12789917 C-56.61354778 86.38214866 -60.07228117 86.3591839 -63.53460693 86.37789917 C-64.48077881 86.39852417 -65.42695068 86.41914917 -66.40179443 86.44039917 C-71.46909002 86.46886712 -75.07129573 86.48324622 -79.15960693 83.12789917 C-82.07530582 80.21220029 -81.50316079 77.14374856 -81.53070068 73.23336792 C-81.53972916 72.44899857 -81.54875763 71.66462921 -81.55805969 70.85649109 C-81.57258022 69.19463934 -81.5814534 67.53273018 -81.58514404 65.87081909 C-81.5970148 63.33507968 -81.64615489 60.80179454 -81.69671631 58.26657104 C-81.70618361 56.65134854 -81.71341718 55.03611109 -81.71820068 53.42086792 C-81.74749916 52.28780464 -81.74749916 52.28780464 -81.77738953 51.1318512 C-81.7443721 47.25349304 -81.29343457 45.31118125 -78.98602295 42.15109253 C-75.78931787 39.86284039 -74.26491385 39.48599131 -70.37835693 39.46383667 C-69.28909912 39.45739136 -68.19984131 39.45094604 -67.07757568 39.44430542 C-65.949646 39.46364136 -64.82171631 39.48297729 -63.65960693 39.50289917 C-62.53167725 39.48356323 -61.40374756 39.46422729 -60.24163818 39.44430542 C-51.05849347 39.49864355 -51.05849347 39.49864355 -47.87835693 42.47946167 C-46.15960693 45.12789917 -46.15960693 45.12789917 -46.15960693 48.12789917 C-37.90960693 48.12789917 -29.65960693 48.12789917 -21.15960693 48.12789917 C-21.15960693 45.15789917 -21.15960693 42.18789917 -21.15960693 39.12789917 C-20.99639138 36.40589555 -20.81006717 33.70217767 -20.57366943 30.98727417 C-20.48090225 29.89216522 -20.48090225 29.89216522 -20.38626099 28.77493286 C-20.25546207 27.24885703 -20.12260233 25.7229565 -19.98773193 24.19723511 C-19.78392173 21.87007529 -19.592635 19.5420916 -19.40179443 17.21383667 C-19.27234732 15.72158294 -19.14216484 14.22939278 -19.01116943 12.73727417 C-18.92822128 11.7027713 -18.92822128 11.7027713 -18.84359741 10.64736938 C-18.4921756 6.82715619 -17.92062639 3.55687282 -16.15960693 0.12789917 C-11.279142 -2.3123333 -5.08502455 -1.40354614 0 0 Z M-9.15960693 8.12789917 C-10.99729622 21.42182165 -12.11747294 34.75105384 -13.15960693 48.12789917 C-10.18960693 48.12789917 -7.21960693 48.12789917 -4.15960693 48.12789917 C-4.53856724 42.75182708 -4.9294412 37.37680634 -5.33148193 32.00241089 C-5.46661629 30.17322449 -5.59846645 28.34379243 -5.72698975 26.51412964 C-5.91207959 23.88727762 -6.1088848 21.26152968 -6.30804443 18.63571167 C-6.3633432 17.81483063 -6.41864197 16.99394958 -6.47561646 16.14819336 C-6.67592119 11.66960096 -6.67592119 11.66960096 -9.15960693 8.12789917 Z M0.84039307 10.12789917 C1.83039307 22.66789917 2.82039307 35.20789917 3.84039307 48.12789917 C12.63588585 48.41702887 12.63588585 48.41702887 21.43170166 48.6960144 C23.06873047 48.75317627 23.06873047 48.75317627 24.73883057 48.81149292 C25.85950928 48.84815063 26.98018799 48.88480835 28.13482666 48.9225769 C30.84039307 49.12789917 30.84039307 49.12789917 32.84039307 50.12789917 C33.33539307 53.09789917 33.33539307 53.09789917 33.84039307 56.12789917 C7.44039307 56.45789917 -18.95960693 56.78789917 -46.15960693 57.12789917 C-46.15960693 60.75789917 -46.15960693 64.38789917 -46.15960693 68.12789917 C13.24039307 68.12789917 72.64039307 68.12789917 133.84039307 68.12789917 C130.97669001 62.18347797 130.97669001 62.18347797 126.84039307 57.12789917 C123.74158957 56.41287335 121.67149411 56.18706058 118.57769775 56.2572937 C117.3500621 56.24353951 117.3500621 56.24353951 116.09762573 56.22950745 C113.40154501 56.20725776 110.70826944 56.23392882 108.01226807 56.26071167 C106.13849483 56.25386504 104.26473082 56.24380012 102.39099121 56.23065186 C97.46571698 56.20407526 92.54140681 56.21833025 87.6161499 56.24197388 C81.61797628 56.26363186 75.6198485 56.23950472 69.62169266 56.21992302 C64.95851476 56.20524843 60.2957519 56.19824865 55.63256836 56.21411133 C54.77845367 56.2154155 53.92433899 56.21671967 53.04434204 56.21806335 C51.44288999 56.22071684 49.84143828 56.22717654 48.24002075 56.23802185 C46.43977078 56.23886247 44.63960835 56.18893242 42.84039307 56.12789917 C41.84039307 55.12789917 41.84039307 55.12789917 41.77789307 52.56539917 C41.79851807 51.76102417 41.81914307 50.95664917 41.84039307 50.12789917 C44.30463203 48.89577969 45.9927397 48.97010009 48.74908447 48.9225769 C49.76999176 48.90263168 50.79089905 48.88268646 51.84274292 48.86213684 C52.94798309 48.84542435 54.05322327 48.82871185 55.19195557 48.81149292 C56.32112396 48.79071182 57.45029236 48.76993073 58.61367798 48.7485199 C62.23085278 48.68298582 65.84810187 48.62412143 69.46539307 48.56539917 C71.9133175 48.52221763 74.36123435 48.47860346 76.80914307 48.43453979 C82.81948056 48.3273005 88.82989242 48.2255413 94.84039307 48.12789917 C92.48074789 46.55480239 90.66205566 45.55877078 88.08306885 44.53414917 C86.94749039 44.08001144 86.94749039 44.08001144 85.78897095 43.61669922 C84.96289337 43.2903952 84.1368158 42.96409119 83.28570557 42.62789917 C81.97540878 42.1054512 81.97540878 42.1054512 80.63864136 41.57244873 C77.74883437 40.42103111 74.85713457 39.27444869 71.96539307 38.12789917 C69.96037447 37.33022607 67.95549343 36.53220713 65.95074463 35.7338562 C62.81905349 34.48685512 59.68722922 33.24019666 56.55487061 31.99487305 C48.99104326 28.98739629 41.43361225 25.96426524 33.87945557 22.93258667 C31.7985686 22.09793887 29.71767676 21.26330326 27.63677979 20.42868042 C24.61844206 19.21797823 21.60027159 18.0068683 18.5826416 16.79440308 C15.78898068 15.67221837 12.99447652 14.55215951 10.19976807 13.43258667 C9.36337799 13.09597015 8.52698792 12.75935364 7.66525269 12.41253662 C4.34742785 10.83334917 4.34742785 10.83334917 0.84039307 10.12789917 Z M-73.15960693 49.12789917 C-73.24727806 51.20051993 -73.26656566 53.27610211 -73.25726318 55.35055542 C-73.25404053 56.61061401 -73.25081787 57.87067261 -73.24749756 59.16891479 C-73.23914097 60.50941026 -73.23067601 61.84990505 -73.22210693 63.19039917 C-73.21709354 64.53479859 -73.21253035 65.87919977 -73.20843506 67.22360229 C-73.19660181 70.52507858 -73.18011664 73.8264672 -73.15960693 77.12789917 C-70.180381 77.15473904 -67.20139399 77.17465954 -64.22210693 77.19039917 C-63.37197021 77.19877808 -62.5218335 77.20715698 -61.64593506 77.21578979 C-60.83704834 77.21901245 -60.02816162 77.22223511 -59.19476318 77.22555542 C-58.44589844 77.23079224 -57.69703369 77.23602905 -56.92547607 77.24142456 C-55.13292954 77.32131669 -55.13292954 77.32131669 -54.15960693 76.12789917 C-54.05977636 74.14032889 -54.0287994 72.14922397 -54.02679443 70.15914917 C-54.02550537 68.94871948 -54.02421631 67.73828979 -54.02288818 66.49118042 C-54.02868896 64.5788562 -54.02868896 64.5788562 -54.03460693 62.62789917 C-54.03073975 61.35301636 -54.02687256 60.07813354 -54.02288818 58.76461792 C-54.02417725 57.55418823 -54.02546631 56.34375854 -54.02679443 55.09664917 C-54.02792236 53.97709839 -54.02905029 52.85754761 -54.0302124 51.70407104 C-53.86744326 49.19648115 -53.86744326 49.19648115 -55.15960693 48.12789917 C-58.00295741 48.02802942 -60.81657856 47.98912036 -63.65960693 48.00289917 C-64.45753662 47.99903198 -65.25546631 47.99516479 -66.07757568 47.99118042 C-69.92800013 47.61890307 -69.92800013 47.61890307 -73.15960693 49.12789917 Z M-14.15960693 76.12789917 C-14.48960693 79.75789917 -14.81960693 83.38789917 -15.15960693 87.12789917 C-11.52401033 83.69428015 -8.79847347 80.33053847 -6.15960693 76.12789917 C-8.79960693 76.12789917 -11.43960693 76.12789917 -14.15960693 76.12789917 Z M33.84039307 76.12789917 C33.81976807 79.05664917 33.79914307 81.98539917 33.77789307 85.00289917 C33.76878906 85.92441772 33.75968506 86.84593628 33.75030518 87.79537964 C33.74780762 88.52128296 33.74531006 89.24718628 33.74273682 89.99508667 C33.7375 90.7387146 33.73226318 91.48234253 33.72686768 92.24850464 C33.7225267 94.21922485 33.7225267 94.21922485 34.84039307 96.12789917 C39.23695479 96.15255421 43.63348027 96.17073759 48.03009033 96.18283081 C49.52684225 96.18787038 51.02358922 96.19470204 52.52032471 96.20333862 C54.66739114 96.21542076 56.81439269 96.22113108 58.96148682 96.22555542 C60.25498047 96.23079224 61.54847412 96.23602905 62.88116455 96.24142456 C65.72691711 96.46786849 65.72691711 96.46786849 66.84039307 95.12789917 C66.92690918 93.71219794 66.94744211 92.29230417 66.93804932 90.87399292 C66.93555176 90.10498657 66.9330542 89.33598022 66.93048096 88.54367065 C66.92137695 87.56084106 66.91227295 86.57801147 66.90289307 85.56539917 C66.88226807 82.45102417 66.86164307 79.33664917 66.84039307 76.12789917 C55.95039307 76.12789917 45.06039307 76.12789917 33.84039307 76.12789917 Z M-3.15960693 86.12789917 C-4.71791813 88.10745517 -6.23029695 90.09922035 -7.72210693 92.12789917 C-8.14685303 92.70024292 -8.57159912 93.27258667 -9.00921631 93.86227417 C-10.0622047 95.2820338 -11.11126958 96.7047018 -12.15960693 98.12789917 C-9.61791942 100.70149071 -7.1784209 103.11535653 -4.15960693 105.12789917 C-3.49960693 105.12789917 -2.83960693 105.12789917 -2.15960693 105.12789917 C-2.15960693 98.85789917 -2.15960693 92.58789917 -2.15960693 86.12789917 C-2.48960693 86.12789917 -2.81960693 86.12789917 -3.15960693 86.12789917 Z M-15.15960693 108.12789917 C-16.09814699 115.16694961 -16.26768725 122.03062489 -16.15960693 129.12789917 C-12.43341036 124.50741541 -8.79730021 119.81807111 -5.15960693 115.12789917 C-8.28582319 111.73372152 -10.7250172 109.52162737 -15.15960693 108.12789917 Z M-2.15960693 124.12789917 C-3.92413148 126.34989305 -5.61562308 128.58588865 -7.28460693 130.87789917 C-7.76542725 131.51211792 -8.24624756 132.14633667 -8.74163818 132.79977417 C-9.191521 133.41852417 -9.64140381 134.03727417 -10.10491943 134.67477417 C-10.73164551 135.52313843 -10.73164551 135.52313843 -11.37103271 136.38864136 C-12.33957691 138.13157472 -12.33957691 138.13157472 -11.9286499 140.22360229 C-10.7585658 143.12095341 -8.72473284 144.17267343 -6.15960693 145.87789917 C-5.25210693 146.49149292 -4.34460693 147.10508667 -3.40960693 147.73727417 C-1.45867636 149.21552323 -1.45867636 149.21552323 -0.15960693 149.12789917 C-0.48960693 140.87789917 -0.81960693 132.62789917 -1.15960693 124.12789917 C-1.48960693 124.12789917 -1.81960693 124.12789917 -2.15960693 124.12789917 Z M108.02398682 133.81149292 C106.87833252 134.95521362 106.87833252 134.95521362 105.70953369 136.12203979 C104.90709229 136.92834839 104.10465088 137.73465698 103.27789307 138.56539917 C102.47158447 139.36784058 101.66527588 140.17028198 100.83453369 140.99703979 C100.07205322 141.76080933 99.30957275 142.52457886 98.52398682 143.31149292 C97.81814453 144.01846313 97.11230225 144.72543335 96.3850708 145.4538269 C94.72737087 146.87074929 94.72737087 146.87074929 94.84039307 148.12789917 C100.78039307 148.12789917 106.72039307 148.12789917 112.84039307 148.12789917 C112.84039307 142.18789917 112.84039307 136.24789917 112.84039307 130.12789917 C110.86039514 130.12789917 109.32074313 132.51680551 108.02398682 133.81149292 Z M121.84039307 130.12789917 C121.84039307 136.06789917 121.84039307 142.00789917 121.84039307 148.12789917 C127.78039307 148.12789917 133.72039307 148.12789917 139.84039307 148.12789917 C136.11025256 143.5912418 132.16985741 139.34848795 128.02789307 135.19039917 C127.53571289 134.69370728 127.04353271 134.19701538 126.53643799 133.68527222 C124.53410039 131.21458113 124.53410039 131.21458113 121.84039307 130.12789917 Z M-16.15960693 149.12789917 C-17.41013824 150.15504578 -17.41013824 150.15504578 -17.27313232 152.35275269 C-17.26789551 153.31109009 -17.26265869 154.26942749 -17.25726318 155.25680542 C-17.25404053 156.29127808 -17.25081787 157.32575073 -17.24749756 158.39157104 C-17.23911865 159.48018433 -17.23073975 160.56879761 -17.22210693 161.69039917 C-17.21759521 162.78287964 -17.2130835 163.87536011 -17.20843506 165.00094604 C-17.1966052 167.70998412 -17.18012237 170.41891516 -17.15960693 173.12789917 C-13.79416579 169.85676111 -10.7482629 166.50330929 -7.84710693 162.81539917 C-7.14972412 161.93239136 -6.45234131 161.04938354 -5.73382568 160.13961792 C-5.2143335 159.47575073 -4.69484131 158.81188354 -4.15960693 158.12789917 C-6.72884749 155.41978074 -9.21007105 153.2976207 -12.40960693 151.37789917 C-13.11601318 150.94993042 -13.82241943 150.52196167 -14.55023193 150.08102417 C-15.08132568 149.76649292 -15.61241943 149.45196167 -16.15960693 149.12789917 Z M75.84039307 156.12789917 C75.84039307 158.43789917 75.84039307 160.74789917 75.84039307 163.12789917 C102.90039307 163.12789917 129.96039307 163.12789917 157.84039307 163.12789917 C157.84039307 160.81789917 157.84039307 158.50789917 157.84039307 156.12789917 C130.78039307 156.12789917 103.72039307 156.12789917 75.84039307 156.12789917 Z M-1.15960693 167.12789917 C-3.01319935 169.35340018 -4.81543926 171.59591567 -6.59710693 173.87789917 C-7.10048584 174.51211792 -7.60386475 175.14633667 -8.12249756 175.79977417 C-8.60782959 176.41852417 -9.09316162 177.03727417 -9.59320068 177.67477417 C-10.25920288 178.52313843 -10.25920288 178.52313843 -10.93865967 179.38864136 C-12.22872372 181.22635707 -13.20471337 183.09871563 -14.15960693 185.12789917 C-11.84911633 186.79741496 -9.53636111 188.46361531 -7.22210693 190.12789917 C-6.56275146 190.60485229 -5.903396 191.08180542 -5.22406006 191.57321167 C-2.43754524 194.01150375 -2.43754524 194.01150375 0.84039307 195.12789917 C0.86979764 191.96125251 0.88732621 188.7946417 0.90289307 185.62789917 C0.91127197 184.74102417 0.91965088 183.85414917 0.92828369 182.94039917 C0.94802903 177.56966831 0.628752 172.44156254 -0.15960693 167.12789917 C-0.48960693 167.12789917 -0.81960693 167.12789917 -1.15960693 167.12789917 Z M-18.15960693 193.12789917 C-18.48960693 202.36789917 -18.81960693 211.60789917 -19.15960693 221.12789917 C-15.07598105 217.09397619 -15.07598105 217.09397619 -11.48382568 212.79586792 C-11.04876709 212.22545776 -10.6137085 211.65504761 -10.16546631 211.06735229 C-9.73040771 210.48920776 -9.29534912 209.91106323 -8.84710693 209.31539917 C-8.3927124 208.7179187 -7.93831787 208.12043823 -7.47015381 207.50485229 C-6.36326777 206.04842329 -5.26095429 204.588521 -4.15960693 203.12789917 C-6.8573313 200.28818932 -9.57163253 198.02184605 -12.84710693 195.87789917 C-13.63472412 195.35711792 -14.42234131 194.83633667 -15.23382568 194.29977417 C-16.92626578 193.04125967 -16.92626578 193.04125967 -18.15960693 193.12789917 Z M0.84039307 210.12789917 C-0.886991 212.25095754 -2.56499987 214.38859415 -4.22210693 216.56539917 C-4.69454834 217.17705933 -5.16698975 217.78871948 -5.65374756 218.41891479 C-8.06864986 221.00965642 -8.06864986 221.00965642 -9.15960693 224.12789917 C-5.52960693 224.12789917 -1.89960693 224.12789917 1.84039307 224.12789917 C1.84039307 219.50789917 1.84039307 214.88789917 1.84039307 210.12789917 C1.51039307 210.12789917 1.18039307 210.12789917 0.84039307 210.12789917 Z " fill="#cb2115" transform="translate(81.15960693359375,1.872100830078125)"/>
</svg>