<?xml version="1.0" encoding="UTF-8"?>
<svg version="1.1" xmlns="http://www.w3.org/2000/svg" width="256" height="256">
<path d="M0 0 C6.19900858 2.84983892 11.68598389 7.65856294 14.55078125 13.9140625 C16.72353384 20.55302874 16.80238643 26.81306577 16.73828125 33.7265625 C16.73376953 34.65339844 16.72925781 35.58023438 16.72460938 36.53515625 C16.71289699 38.80735959 16.69649497 41.07942638 16.67578125 43.3515625 C17.48709 43.34490067 18.29839874 43.33823883 19.1342926 43.33137512 C26.79920525 43.27113656 34.46400229 43.22552358 42.12909031 43.19612598 C46.06931766 43.18050403 50.00934857 43.15932977 53.94946289 43.12524414 C57.75553747 43.09252604 61.56142369 43.07468341 65.3676281 43.06693077 C66.81602885 43.0614095 68.26441989 43.0506279 69.71273994 43.03437233 C78.58943723 42.93875101 85.11988296 43.01057042 92.48828125 48.4140625 C95.52277971 52.48896043 96.38451234 56.31339762 96.67578125 61.3515625 C95.99499321 64.86896737 95.23808764 67.44116167 93.36328125 70.4765625 C93.02296875 71.4046875 93.02296875 71.4046875 92.67578125 72.3515625 C93.65513049 74.03044691 94.65922044 75.69494489 95.67578125 77.3515625 C97.00267216 83.67981144 96.89144446 88.76429825 93.36328125 94.4765625 C93.02296875 95.4046875 93.02296875 95.4046875 92.67578125 96.3515625 C93.65513049 98.03044691 94.65922044 99.69494489 95.67578125 101.3515625 C97.06133004 107.38859653 96.90411308 111.94410668 93.67578125 117.3515625 C91.78585412 119.4274665 90.02898914 120.74937841 87.67578125 122.3515625 C87.01578125 122.3515625 86.35578125 122.3515625 85.67578125 122.3515625 C86.02640625 123.1353125 86.37703125 123.9190625 86.73828125 124.7265625 C87.98059457 129.530174 87.98713083 133.55338745 86.67578125 138.3515625 C84.14912728 142.58856685 81.21189784 145.40787314 76.67578125 147.3515625 C74.38574219 147.67041016 74.38574219 147.67041016 71.91015625 147.765625 C71.02070313 147.80429688 70.13125 147.84296875 69.21484375 147.8828125 C67.83425781 147.92921875 67.83425781 147.92921875 66.42578125 147.9765625 C65.48992187 148.01523438 64.5540625 148.05390625 63.58984375 148.09375 C61.28535071 148.18781094 58.98086112 148.27345649 56.67578125 148.3515625 C57.09553223 148.95476318 57.5152832 149.55796387 57.94775391 150.17944336 C65.71630268 161.59615602 68.3367142 175.68080495 66.015625 189.1953125 C64.19005147 198.07801667 61.20545117 205.05037361 55.67578125 212.3515625 C54.56203125 213.929375 54.56203125 213.929375 53.42578125 215.5390625 C42.86616164 226.33867347 30.1403263 231.86221542 15.05078125 232.41796875 C5.18811079 232.22391158 -6.29337771 230.297627 -14.1484375 223.85546875 C-15.8469693 221.68292808 -15.60563098 220.02497865 -15.32421875 217.3515625 C-14.32421875 216.3515625 -14.32421875 216.3515625 -11.609375 216.13671875 C-8.05320604 216.36928628 -5.92734749 217.19949359 -2.76171875 218.7890625 C6.81642587 223.55775578 17.09872875 223.63155396 27.36328125 220.7890625 C37.87465849 217.17538034 46.88762924 210.43589872 52.1796875 200.5390625 C57.54562358 189.04281198 58.98693502 176.49741413 54.61328125 164.3515625 C49.65467424 153.21205881 41.7832057 144.68491528 30.42578125 139.9765625 C19.80792203 135.98619057 8.16513359 135.95336485 -2.32421875 140.3515625 C-14.44283696 146.16849924 -21.98644734 154.38350785 -26.61328125 167.1171875 C-27.49986448 169.90359193 -28.08081591 172.43072839 -28.32421875 175.3515625 C-28.38738281 176.05410156 -28.45054687 176.75664062 -28.515625 177.48046875 C-28.9466086 186.14184881 -26.65152849 194.89997678 -22.07421875 202.2890625 C-20.14839876 205.65924749 -19.86985682 207.53492231 -20.32421875 211.3515625 C-21.32421875 212.3515625 -21.32421875 212.3515625 -23.6953125 212.625 C-26.32421875 212.3515625 -26.32421875 212.3515625 -27.984375 210.953125 C-33.4234638 203.28688842 -36.62740756 195.75851351 -37.32421875 186.3515625 C-39.34467317 186.95339999 -41.34532914 187.62462346 -43.32421875 188.3515625 C-45.16957674 192.04227848 -44.61325062 196.77730623 -44.66601562 200.87890625 C-44.86156139 206.09042824 -45.75559472 209.29770388 -49.32421875 213.3515625 C-54.82559897 216.08821549 -60.24646695 215.68208303 -66.26171875 215.6640625 C-67.33357422 215.68017578 -68.40542969 215.69628906 -69.50976562 215.71289062 C-79.75328423 215.71923336 -79.75328423 215.71923336 -84.32421875 212.3515625 C-88.03131047 208.0911735 -87.86286548 203.42755104 -88.01171875 198.0390625 C-88.04587891 197.20310547 -88.08003906 196.36714844 -88.11523438 195.50585938 C-88.19727336 193.45488478 -88.26243385 191.40324712 -88.32421875 189.3515625 C-90.65617652 187.88329279 -92.00985323 187.33912715 -94.79296875 187.44921875 C-98.03205165 188.60389182 -99.52083402 190.25452824 -101.82421875 192.7890625 C-105.65632706 196.99223764 -108.57444091 199.00052703 -114.26171875 199.7265625 C-120.95234183 198.90730253 -125.93350352 193.19170946 -130.57421875 188.6640625 C-131.198125 188.08978516 -131.82203125 187.51550781 -132.46484375 186.92382812 C-136.90218944 182.58689651 -138.95572922 178.61290681 -139.32421875 172.3515625 C-138.06180817 166.91348617 -135.64288592 164.60920831 -131.57421875 160.8515625 C-128.4136288 158.03069264 -128.4136288 158.03069264 -126.890625 154.2578125 C-127.08766708 152.11610099 -127.08766708 152.11610099 -128.32421875 149.3515625 C-132.0488262 147.48925877 -136.80251852 148.02012281 -140.93945312 147.921875 C-145.46321748 147.73322106 -148.79831294 147.47285617 -152.32421875 144.3515625 C-155.81848617 138.49980899 -155.77980112 132.98187595 -155.69921875 126.2890625 C-155.71662109 124.83790039 -155.71662109 124.83790039 -155.734375 123.35742188 C-155.70843778 117.04170873 -154.97525088 112.554893 -150.82421875 107.5390625 C-146.6130483 104.20521923 -140.52299649 105.04040707 -135.39648438 104.921875 C-133.36522932 104.83775055 -131.34148417 104.6039793 -129.32421875 104.3515625 C-127.14834485 101.08775164 -126.7005624 100.13885744 -127.32421875 96.3515625 C-129.44844496 93.88552169 -129.44844496 93.88552169 -132.19921875 91.6015625 C-136.20577307 87.77686596 -138.46504092 85.08895438 -139.53125 79.65234375 C-138.85908501 72.18243469 -134.21584176 67.56814489 -129.13671875 62.5390625 C-128.50185547 61.87197266 -127.86699219 61.20488281 -127.21289062 60.51757812 C-122.78514525 56.08087876 -119.55748645 54.23356659 -113.32421875 53.3515625 C-106.8891388 54.29001166 -101.96250467 59.31787456 -97.8125 64.08984375 C-96.18669684 65.76555454 -96.18669684 65.76555454 -92.69921875 65.1015625 C-89.5015794 64.70788165 -89.5015794 64.70788165 -88.32421875 63.3515625 C-88.18783782 59.64275881 -88.07626496 55.93987247 -88.0703125 52.22851562 C-87.94410029 48.16647519 -87.65717198 45.19188713 -85.15234375 41.89453125 C-79.49561144 36.80816007 -73.63026226 37.01229405 -66.38671875 37.0390625 C-65.08444336 37.01489258 -65.08444336 37.01489258 -63.75585938 36.99023438 C-56.95060293 36.98509057 -52.15714185 37.81805404 -46.921875 42.5 C-44.75176532 46.37330089 -44.76544695 49.60711249 -44.76171875 53.9765625 C-44.89562087 59.3943994 -44.89562087 59.3943994 -43.109375 64.375 C-40.57567563 65.76104999 -39.17559226 65.85752051 -36.32421875 65.3515625 C-33.91216578 63.46965253 -33.91216578 63.46965253 -31.76171875 60.9765625 C-26.86170186 55.6264574 -26.86170186 55.6264574 -23.32421875 54.3515625 C-22.00421875 54.3515625 -20.68421875 54.3515625 -19.32421875 54.3515625 C-19.34742188 53.07539062 -19.370625 51.79921875 -19.39453125 50.484375 C-19.41328704 48.81511 -19.43148744 47.1458387 -19.44921875 45.4765625 C-19.46597656 44.63480469 -19.48273438 43.79304688 -19.5 42.92578125 C-19.50644531 42.12011719 -19.51289063 41.31445312 -19.51953125 40.484375 C-19.53000488 39.74074707 -19.54047852 38.99711914 -19.55126953 38.23095703 C-19.32421875 36.3515625 -19.32421875 36.3515625 -17.32421875 34.3515625 C-14.82421875 34.0390625 -14.82421875 34.0390625 -12.32421875 34.3515625 C-9.82405831 38.10180316 -10.04564225 41.02697887 -10.06884766 45.36791992 C-10.06341698 46.59288177 -10.06341698 46.59288177 -10.05787659 47.84259033 C-10.05098097 49.61701019 -10.04847746 51.39145127 -10.04982376 53.16588402 C-10.05078868 55.97868044 -10.0378493 58.79109434 -10.02084351 61.60383606 C-9.97457151 69.60150143 -9.94998087 77.59912925 -9.94335938 85.59692383 C-9.938332 90.48942282 -9.91401545 95.38152511 -9.87803268 100.27388954 C-9.86825877 102.13449021 -9.86588955 103.99514564 -9.87120438 105.85576439 C-9.87831058 108.46701475 -9.86091894 111.07709268 -9.83837891 113.68823242 C-9.84655136 114.44956985 -9.85472382 115.21090729 -9.86314392 115.99531555 C-9.77604961 121.69913731 -8.14273516 125.39799249 -5.32421875 130.3515625 C-4.08671875 130.0421875 -2.84921875 129.7328125 -1.57421875 129.4140625 C11.1521958 126.65435638 24.84456251 126.15425745 36.67578125 132.3515625 C39.43966037 125.92141274 39.43966037 125.92141274 38.796875 119.35546875 C37.28203201 117.55834572 37.28203201 117.55834572 34.67578125 115.3515625 C32.72120584 111.44241169 33.29811038 106.6235773 33.67578125 102.3515625 C35.23828125 99.4140625 35.23828125 99.4140625 36.67578125 97.3515625 C36.46238535 95.00420755 35.81658115 93.59675776 34.6484375 91.5625 C32.79952039 87.35974062 33.13192301 82.84155491 33.67578125 78.3515625 C34.74320582 75.65051425 35.97722809 73.74015288 37.67578125 71.3515625 C36.68578125 70.206875 36.68578125 70.206875 35.67578125 69.0390625 C32.65859256 64.5932403 33.16107735 59.51547707 33.67578125 54.3515625 C34.00578125 53.6915625 34.33578125 53.0315625 34.67578125 52.3515625 C34.06581299 52.36727295 33.45584473 52.3829834 32.82739258 52.39916992 C30.04778415 52.46176063 27.26832433 52.50062872 24.48828125 52.5390625 C23.52857422 52.56419922 22.56886719 52.58933594 21.58007812 52.61523438 C12.60161682 52.7084364 12.60161682 52.7084364 8.67578125 49.3515625 C7.3590121 46.7180242 7.53210404 44.69664305 7.5 41.75 C7.47615234 40.61949219 7.45230469 39.48898438 7.42773438 38.32421875 C7.38518866 35.94939425 7.35371132 33.57434241 7.33398438 31.19921875 C7.16228199 24.14744162 6.52268857 19.3262464 2.67578125 13.3515625 C-1.39598515 9.91318199 -5.24675432 8.57015396 -10.32421875 7.3515625 C-10.31261719 8.32738281 -10.30101562 9.30320312 -10.2890625 10.30859375 C-10.28003906 11.58089844 -10.27101562 12.85320313 -10.26171875 14.1640625 C-10.25011719 15.42863281 -10.23851562 16.69320313 -10.2265625 17.99609375 C-10.32421875 21.3515625 -10.32421875 21.3515625 -11.32421875 24.3515625 C-13.63671875 24.9765625 -13.63671875 24.9765625 -16.32421875 25.3515625 C-17.31421875 24.6915625 -18.30421875 24.0315625 -19.32421875 23.3515625 C-19.62847138 20.32991624 -19.7419674 17.55759234 -19.69921875 14.5390625 C-19.71082031 13.73146484 -19.72242188 12.92386719 -19.734375 12.09179688 C-19.71119834 7.37534611 -19.39767578 4.16714696 -16.32421875 0.3515625 C-11.67130178 -1.97489598 -4.90642978 -1.36885268 0 0 Z M-77.32421875 46.3515625 C-79.85367665 50.14574935 -79.69842913 53.38272606 -79.82421875 57.7890625 C-80.09890424 67.36265968 -80.09890424 67.36265968 -82.32421875 70.3515625 C-87.28367512 74.1235434 -92.24796533 75.1355952 -98.32421875 74.3515625 C-103.30990099 71.85872138 -106.66625406 67.99877382 -110.296875 63.86328125 C-112.21798405 62.13278399 -112.21798405 62.13278399 -114.6796875 62.26171875 C-118.37684805 63.78536394 -120.83534922 66.28213798 -123.57421875 69.1015625 C-124.38632813 69.89046875 -124.38632813 69.89046875 -125.21484375 70.6953125 C-127.4629211 72.96587062 -129.17962439 75.0161839 -130.44921875 77.9609375 C-130.54331635 80.51617297 -130.54331635 80.51617297 -128.55859375 82.6328125 C-127.73875 83.365 -126.91890625 84.0971875 -126.07421875 84.8515625 C-121.56385492 88.93099985 -118.59753733 91.9697863 -117.88671875 98.1640625 C-118.06756022 102.70232224 -119.5716908 106.73249797 -122.32421875 110.3515625 C-126.51587748 113.47235951 -132.2156357 112.77530992 -137.21289062 112.91796875 C-141.05618751 113.07210271 -143.05554435 113.17244623 -146.32421875 115.3515625 C-146.7729997 117.63958849 -146.7729997 117.63958849 -146.6875 120.2890625 C-146.68685547 121.26617187 -146.68621094 122.24328125 -146.68554688 123.25 C-146.66943359 124.27351563 -146.65332031 125.29703125 -146.63671875 126.3515625 C-146.63994141 127.37507813 -146.64316406 128.39859375 -146.64648438 129.453125 C-146.96735801 134.95223384 -146.96735801 134.95223384 -144.32421875 139.3515625 C-140.58994472 139.57844568 -136.89215341 139.66937675 -133.15234375 139.65429688 C-127.15565802 139.80717291 -124.50667161 141.01275627 -120.32421875 145.3515625 C-117.9295321 149.37899005 -117.61545415 153.76276605 -118.32421875 158.3515625 C-120.81705987 163.33724474 -124.67700743 166.69359781 -128.8125 170.32421875 C-130.53399906 172.24050765 -130.53399906 172.24050765 -130.44140625 174.66796875 C-128.79156413 178.63105104 -126.14948051 181.22376577 -123.13671875 184.2265625 C-122.57146484 184.83242187 -122.00621094 185.43828125 -121.42382812 186.0625 C-117.94382399 189.58943387 -117.94382399 189.58943387 -113.19921875 190.546875 C-109.6512794 189.07178065 -108.00354395 187.26075809 -105.51171875 184.3515625 C-100.06890943 178.65578903 -100.06890943 178.65578903 -95.69921875 177.9765625 C-90.16582553 177.96675152 -85.59418207 180.19168978 -81.6328125 183.9609375 C-79.686015 187.51747502 -79.83252379 190.91863532 -79.76171875 194.9140625 C-79.75975621 200.93822467 -79.75975621 200.93822467 -77.32421875 206.3515625 C-75.03619276 206.80034345 -75.03619276 206.80034345 -72.38671875 206.71484375 C-70.92105469 206.71387695 -70.92105469 206.71387695 -69.42578125 206.71289062 C-68.40226562 206.69677734 -67.37875 206.68066406 -66.32421875 206.6640625 C-65.30070312 206.66728516 -64.2771875 206.67050781 -63.22265625 206.67382812 C-57.72354741 206.99470176 -57.72354741 206.99470176 -53.32421875 204.3515625 C-53.06417006 200.58828646 -52.95766708 196.86228224 -52.93359375 193.09179688 C-52.81817517 189.17718338 -52.59407499 186.82832929 -50.6328125 183.36328125 C-47.95687615 181.03145854 -46.21455335 180.62484981 -42.76171875 179.9765625 C-39.76472238 179.14945971 -39.76472238 179.14945971 -37.32421875 177.3515625 C-35.97535678 173.70963519 -35.47953475 170.12718727 -34.96484375 166.3046875 C-33.43546179 155.36696963 -26.21599537 146.6430138 -18.32421875 139.3515625 C-16.69007446 138.2992554 -15.031819 137.27993697 -13.32421875 136.3515625 C-13.72640625 135.3925 -13.72640625 135.3925 -14.13671875 134.4140625 C-14.52859375 133.4034375 -14.92046875 132.3928125 -15.32421875 131.3515625 C-15.57311356 130.76564835 -15.82200836 130.17973419 -16.07844543 129.57606506 C-18.7862856 122.56372226 -18.79835337 115.79384523 -18.8359375 108.34765625 C-18.8538887 107.02862808 -18.8718399 105.70959991 -18.89033508 104.3506012 C-18.93749266 100.8737374 -18.96752174 97.39693691 -18.99377441 93.91986084 C-19.02375467 90.35985821 -19.07022411 86.80007308 -19.11523438 83.24023438 C-19.2008766 76.27746842 -19.26839384 69.31462972 -19.32421875 62.3515625 C-19.79110107 62.75205811 -20.2579834 63.15255371 -20.73901367 63.56518555 C-21.35881104 64.09668213 -21.9786084 64.62817871 -22.6171875 65.17578125 C-23.22844482 65.70002686 -23.83970215 66.22427246 -24.46948242 66.7644043 C-33.66537284 74.63362683 -33.66537284 74.63362683 -40.22265625 74.5859375 C-43.31136968 74.24147132 -45.65509879 72.8767739 -48.32421875 71.3515625 C-48.98421875 71.3515625 -49.64421875 71.3515625 -50.32421875 71.3515625 C-53.01675725 65.99905652 -52.73403844 60.53521466 -52.890625 54.68164062 C-52.85040781 50.03777131 -52.85040781 50.03777131 -55.32421875 46.3515625 C-58.97175542 45.899239 -62.65185136 46.02749963 -66.32421875 46.0390625 C-67.34773438 46.02294922 -68.37125 46.00683594 -69.42578125 45.99023438 C-70.40289062 45.98958984 -71.38 45.98894531 -72.38671875 45.98828125 C-73.28519531 45.98530029 -74.18367188 45.98231934 -75.109375 45.97924805 C-75.84027344 46.10211182 -76.57117188 46.22497559 -77.32421875 46.3515625 Z M41.67578125 57.3515625 C41.61236533 61.02968566 41.67959018 63.27823791 44.23657227 66.03320312 C47.67684942 67.89262627 50.94817864 67.81928884 54.765625 67.8203125 C55.93793419 67.83173279 55.93793419 67.83173279 57.13392639 67.84338379 C58.78383191 67.85416971 60.43380561 67.857044 62.08374023 67.85253906 C64.60191221 67.85156689 67.11703362 67.8931954 69.63476562 67.9375 C71.24087909 67.9427076 72.8470031 67.94539518 74.453125 67.9453125 C75.20222641 67.96170776 75.95132782 67.97810303 76.72312927 67.99499512 C80.6828787 67.94291132 82.5101678 67.47869087 85.68579102 65.04101562 C88.0255826 62.42333975 88.0255826 62.42333975 87.73828125 58.7265625 C86.53756768 54.91253114 86.11180698 54.20868781 82.67578125 52.3515625 C79.90284103 52.03509663 77.35935096 51.8835562 74.5859375 51.8828125 C73.80439804 51.87519897 73.02285858 51.86758545 72.21763611 51.85974121 C70.56773059 51.84895529 68.91775689 51.846081 67.26782227 51.85058594 C64.74965029 51.85155811 62.23452888 51.8099296 59.71679688 51.765625 C58.11068341 51.7604174 56.5045594 51.75772982 54.8984375 51.7578125 C54.14933609 51.74141724 53.40023468 51.72502197 52.62843323 51.70812988 C47.27201911 51.77858444 44.85403462 53.0561829 41.67578125 57.3515625 Z M41.67578125 81.3515625 C41.61236533 85.02968566 41.67959018 87.27823791 44.23657227 90.03320312 C47.67684942 91.89262627 50.94817864 91.81928884 54.765625 91.8203125 C55.93793419 91.83173279 55.93793419 91.83173279 57.13392639 91.84338379 C58.78383191 91.85416971 60.43380561 91.857044 62.08374023 91.85253906 C64.60191221 91.85156689 67.11703362 91.8931954 69.63476562 91.9375 C71.24087909 91.9427076 72.8470031 91.94539518 74.453125 91.9453125 C75.20222641 91.96170776 75.95132782 91.97810303 76.72312927 91.99499512 C80.68375724 91.94289977 82.51186513 91.47722488 85.68969727 89.04101562 C88.03468532 86.42277049 88.03468532 86.42277049 87.67578125 82.7265625 C86.59505863 78.79947155 86.59505863 78.79947155 83.67578125 76.3515625 C80.8644142 76.0288051 78.27886746 75.88354087 75.46484375 75.8828125 C74.6596933 75.87519897 73.85454285 75.86758545 73.0249939 75.85974121 C71.32203266 75.84893936 69.61900518 75.84608747 67.91601562 75.85058594 C65.31657616 75.8515566 62.72010556 75.80997674 60.12109375 75.765625 C58.46484989 75.7604165 56.8085958 75.75772983 55.15234375 75.7578125 C54.37823151 75.74141724 53.60411926 75.72502197 52.80654907 75.70812988 C47.37707466 75.77727324 44.89057515 76.97187296 41.67578125 81.3515625 Z M43.13671875 102.69555664 C41.41461172 105.30289286 41.41461172 105.30289286 41.73828125 108.4765625 C42.67742921 111.35661624 43.30212197 112.54758145 45.67578125 114.3515625 C50.34811746 116.6877306 57.31391576 115.6634821 62.50561523 115.70166016 C64.15549841 115.71820928 65.8053102 115.74548606 67.45483398 115.78369141 C69.83745383 115.83857399 72.21839497 115.8603496 74.6015625 115.875 C75.33506424 115.89766937 76.06856598 115.92033875 76.82429504 115.94369507 C80.77760568 115.92745759 82.50351144 115.4873898 85.64526367 113.01025391 C87.89004099 110.48752374 87.89004099 110.48752374 88.23828125 107.2890625 C87.52514403 103.56490147 86.71718104 102.60439623 83.67578125 100.3515625 C80.69597733 99.94176444 78.09256808 99.7666391 75.11328125 99.78515625 C74.28497803 99.77895767 73.4566748 99.77275909 72.60327148 99.76637268 C70.85499241 99.75928033 69.10664571 99.76243839 67.35839844 99.77514648 C64.68428301 99.7890184 62.01366393 99.75493104 59.33984375 99.71679688 C57.63932206 99.71584569 55.938796 99.71770448 54.23828125 99.72265625 C53.04126587 99.70276894 53.04126587 99.70276894 51.82006836 99.68247986 C47.89213849 99.74833163 46.06894103 99.98860798 43.13671875 102.69555664 Z M48.67578125 125.3515625 C46.33028451 128.86980761 46.09586722 130.20931944 46.67578125 134.3515625 C48.75973427 137.36024202 50.40354964 139.09584408 54.06860352 139.83251953 C56.95361495 140.02586763 59.7850857 140.03331699 62.67578125 139.9765625 C63.660625 139.99589844 64.64546875 140.01523438 65.66015625 140.03515625 C70.4494541 140.00279613 72.90398797 139.92634287 76.828125 137.00390625 C78.87508891 134.45562006 78.87508891 134.45562006 79.23828125 131.2890625 C78.55386921 127.71491073 77.52759256 126.55153122 74.67578125 124.3515625 C70.67092772 123.01661132 66.99375543 123.16739555 62.80078125 123.1640625 C61.99769531 123.15181641 61.19460937 123.13957031 60.3671875 123.12695312 C56.07524473 123.11634701 52.50076261 123.16274237 48.67578125 125.3515625 Z " fill="#F56F08" transform="translate(157.32421875,0.6484375)"/>
<path d="M0 0 C8.1501062 7.33509558 13.25399466 16.68387485 14.23828125 27.65625 C14.50883495 38.02272853 12.50516213 48.11633957 5.6953125 56.2265625 C-3.25946353 65.59400102 -12.54371163 70.85684803 -25.6875 71.375 C-37.94274041 71.1119456 -47.15297272 66.78561896 -55.7421875 58.2734375 C-61.06908306 52.46950652 -64.67980219 46.00494523 -65 38 C-63 36 -63 36 -60.5625 35.5625 C-58 36 -58 36 -56.4375 38 C-55.963125 38.99 -55.48875 39.98 -55 41 C-50.55702903 50.25930084 -46.22378256 55.13403124 -37 60 C-28.86776758 62.71074414 -19.06600211 62.06587741 -11.375 58.4375 C-3.95369696 54.12349051 0.37699187 48.95300985 3.3046875 40.87109375 C5.58043776 31.47403511 4.64149292 22.45819093 0 14 C-4.1218605 7.282894 -11.52512243 3.03091013 -19 1 C-28.00723298 0.12979054 -36.19179849 0.49015557 -43.6328125 5.921875 C-49.92248785 11.23967632 -53.45680619 16.16465941 -55.9375 23.9375 C-57 26 -57 26 -59.4375 27 C-62 27 -62 27 -63.6875 25.75390625 C-65 24 -65 24 -65.06640625 22.08984375 C-62.59877122 11.54979027 -56.96219209 3.13848773 -48 -3 C-31.79880506 -11.38208541 -14.84979031 -11.27301358 0 0 Z " fill="#F56F08" transform="translate(117,96)"/>
<path d="M0 0 C1.299375 0.185625 1.299375 0.185625 2.625 0.375 C9.51736424 9.65513661 8.40676828 24.48615878 6.90429688 35.38916016 C3.64185679 56.13361846 -7.46907949 74.20965088 -24.51171875 86.66796875 C-43.08569436 98.60998202 -64.0231427 102.39968898 -85.8125 98.7578125 C-99.24383799 95.54225913 -111.12412776 88.50221894 -121.375 79.375 C-121.9421875 78.91222656 -122.509375 78.44945312 -123.09375 77.97265625 C-125.68797526 75.71712151 -126.34954803 74.59558374 -126.75 71.125 C-126.375 68.375 -126.375 68.375 -125.375 67.375 C-121.82914395 66.97442212 -120.05441488 66.83514061 -117.20703125 69.09765625 C-116.54058594 69.86980469 -115.87414062 70.64195312 -115.1875 71.4375 C-103.67100027 83.68459571 -87.44975621 90.02690769 -70.79003906 90.7097168 C-52.33045027 91.07422519 -34.98805951 84.5867288 -21.52612305 71.85620117 C-8.67694123 58.88403966 -2.16654652 42.04004137 -2.25 23.875 C-2.24613281 23.03324219 -2.24226563 22.19148438 -2.23828125 21.32421875 C-2.24479677 17.18686098 -2.44304258 13.42319006 -3.375 9.375 C-3.53763734 6.67713351 -3.46532235 4.08467054 -3.375 1.375 C-2.375 0.375 -2.375 0.375 0 0 Z " fill="#F56F08" transform="translate(240.375,156.625)"/>
<path d="M0 0 C5.44558109 3.23819449 9.33522474 7.4349599 11.85546875 13.27734375 C12.9538384 19.97739864 12.79602012 26.42771817 9.41796875 32.46484375 C5.87875632 37.37537496 1.74274648 40.31402881 -4.1640625 41.71875 C-10.4010568 42.54744155 -16.01220533 42.32590022 -21.51953125 39.08984375 C-27.48816569 34.2943547 -30.57819041 29.35472524 -31.47265625 21.73046875 C-31.58859203 15.19941991 -29.60926815 10.23122728 -25.51953125 5.08984375 C-18.28916674 -1.41748431 -9.44526934 -3.41201203 0 0 Z M-19.51953125 11.08984375 C-22.49369455 15.40717757 -23.16818615 18.90060451 -22.51953125 24.08984375 C-20.2674727 28.4271417 -18.08092885 31.22381746 -13.51953125 33.08984375 C-8.69230033 33.62620274 -6.54062339 33.61002276 -2.20703125 31.40234375 C1.94745685 27.82755166 3.30688654 25.65208364 3.91796875 20.15234375 C3.73173268 15.86081694 2.35032234 13.33730965 -0.51953125 10.08984375 C-7.3210146 5.65409374 -13.31846489 6.03190326 -19.51953125 11.08984375 Z " fill="#F56F08" transform="translate(100.51953125,106.91015625)"/>
<path d="M0 0 C1.2065625 0.0309375 1.2065625 0.0309375 2.4375 0.0625 C3.0975 1.7125 3.7575 3.3625 4.4375 5.0625 C-0.42452662 11.39743468 -5.58985327 17.32917682 -11.04541016 23.1484375 C-15.1798778 27.58376091 -19.03312064 32.1805108 -22.8203125 36.91796875 C-26.1395503 41.00375699 -26.1395503 41.00375699 -28.953125 41.39453125 C-32.20355278 40.98092891 -33.09153447 40.11808077 -35.3125 37.75 C-35.99183594 37.028125 -36.67117187 36.30625 -37.37109375 35.5625 C-40.5405321 31.94674146 -43.58565377 28.24052474 -46.58203125 24.48046875 C-48.44023727 22.11166478 -48.44023727 22.11166478 -50.3046875 20.3984375 C-51.5625 19.0625 -51.5625 19.0625 -51.875 16.5 C-51.5625 14.0625 -51.5625 14.0625 -49.5625 12.0625 C-45.64427037 12.1270862 -44.02523845 12.60284647 -41.21875 15.390625 C-40.5071875 16.35484375 -39.795625 17.3190625 -39.0625 18.3125 C-35.82704179 22.52242785 -32.81277888 25.90203622 -28.5625 29.0625 C-22.26962387 22.1006468 -22.26962387 22.1006468 -16.0625 15.0625 C-3.00440491 0.07327817 -3.00440491 0.07327817 0 0 Z " fill="#F56F08" transform="translate(195.5625,161.9375)"/>
</svg>
