<svg xmlns="http://www.w3.org/2000/svg" version="1.1" width="256" height="256">
<path d="M0 0 C6.21797048 0.09144983 12.2689912 0.59112983 18.42163086 1.48925781 C19.3052832 1.59882812 20.18893555 1.70839844 21.09936523 1.82128906 C22.37070312 2.00498047 22.37070312 2.00498047 23.66772461 2.19238281 C24.42625732 2.29711914 25.18479004 2.40185547 25.96630859 2.50976562 C28.72201736 3.50602186 29.58846556 4.68788567 30.98413086 7.23925781 C31.14111328 9.52929687 31.14111328 9.52929687 30.83959961 12.00488281 C30.73969727 12.89433594 30.63979492 13.78378906 30.53686523 14.70019531 C30.41633789 15.62058594 30.29581055 16.54097656 30.17163086 17.48925781 C30.06270508 18.42511719 29.9537793 19.36097656 29.84155273 20.32519531 C29.57084035 22.6321356 29.28456547 24.93603156 28.98413086 27.23925781 C31.13496172 28.20291975 31.13496172 28.20291975 33.98413086 28.23925781 C36.50743089 26.67679772 38.68983239 25.14749152 40.98413086 23.30175781 C47.12673954 18.39948358 47.12673954 18.39948358 50.72241211 17.72753906 C55.21373469 18.74371049 57.31082241 22.72926504 59.98413086 26.23925781 C60.41016602 26.78582031 60.83620117 27.33238281 61.27514648 27.89550781 C62.67725548 29.70416893 64.05266473 31.53041006 65.42163086 33.36425781 C65.87111084 33.94965332 66.32059082 34.53504883 66.78369141 35.13818359 C68.72819879 37.81607606 69.94959261 40.09115628 70.70288086 43.32128906 C69.60962017 47.75968978 66.70646364 49.30851896 63.04663086 51.80175781 C61.73690333 52.70691652 60.43568119 53.62453582 59.14428711 54.55566406 C58.56300049 54.95213135 57.98171387 55.34859863 57.3828125 55.75708008 C55.4928914 57.75982244 55.33190735 59.55781403 54.98413086 62.23925781 C55.61504639 62.35519287 56.24596191 62.47112793 56.89599609 62.59057617 C59.73863767 63.11526262 62.58013036 63.64592805 65.42163086 64.17675781 C66.41485352 64.35916016 67.40807617 64.5415625 68.43139648 64.72949219 C69.84775391 64.99536133 69.84775391 64.99536133 71.29272461 65.26660156 C72.60454712 65.51011353 72.60454712 65.51011353 73.94287109 65.75854492 C75.98413086 66.23925781 75.98413086 66.23925781 76.98413086 67.23925781 C77.7968383 74.44422184 76.64395126 81.67942204 75.60913086 88.80175781 C75.483125 89.69483643 75.35711914 90.58791504 75.22729492 91.50805664 C75.09806641 92.34876709 74.96883789 93.18947754 74.83569336 94.05566406 C74.66287842 95.19177124 74.66287842 95.19177124 74.48657227 96.35083008 C73.98413086 98.23925781 73.98413086 98.23925781 71.98413086 100.23925781 C64.77210688 101.08688613 57.17523728 99.93118558 49.98413086 99.23925781 C49.02583096 101.41537368 49.02583096 101.41537368 48.98413086 104.23925781 C50.55624771 106.58714821 52.07062011 108.57501254 53.92163086 110.67675781 C56.63160952 113.75677372 58.78759892 116.24042777 59.60131836 120.37597656 C58.7704096 124.23076214 57.29819899 125.26167927 54.17163086 127.61425781 C53.1700293 128.37222656 52.16842773 129.13019531 51.13647461 129.91113281 C50.09620117 130.67941406 49.05592773 131.44769531 47.98413086 132.23925781 C46.53200195 133.42261719 46.53200195 133.42261719 45.05053711 134.62988281 C44.12112305 135.36722656 43.19170898 136.10457031 42.23413086 136.86425781 C40.97342773 137.87359375 40.97342773 137.87359375 39.68725586 138.90332031 C35.89162105 140.77919763 33.99008151 140.55371037 29.98413086 139.23925781 C27.82095625 137.15714747 26.30715932 134.78415736 24.73413086 132.23925781 C21.80996917 127.16056434 21.80996917 127.16056434 16.98413086 124.23925781 C15.99413086 124.73425781 15.99413086 124.73425781 14.98413086 125.23925781 C14.2638939 128.9988193 13.72007476 132.74528397 13.21655273 136.53808594 C11.9746856 144.99787695 11.9746856 144.99787695 8.98413086 147.23925781 C2.66443908 147.8438112 -3.57034759 146.77515248 -9.82836914 145.86425781 C-10.76874023 145.73792969 -11.70911133 145.61160156 -12.67797852 145.48144531 C-13.57967773 145.35253906 -14.48137695 145.22363281 -15.41040039 145.09082031 C-16.22355713 144.97561035 -17.03671387 144.86040039 -17.87451172 144.74169922 C-20.01586914 144.23925781 -20.01586914 144.23925781 -23.01586914 142.23925781 C-23.52629727 134.58283593 -22.62420511 126.87604686 -22.01586914 119.23925781 C-23.00586914 118.90925781 -23.99586914 118.57925781 -25.01586914 118.23925781 C-27.51531931 119.78597639 -29.8027161 121.35237683 -32.14086914 123.11425781 C-33.10959961 123.82388672 -33.10959961 123.82388672 -34.09790039 124.54785156 C-37.17885503 126.7470929 -37.17885503 126.7470929 -40.01586914 129.23925781 C-42.62915039 129.84863281 -42.62915039 129.84863281 -46.01586914 129.23925781 C-48.82530107 126.63535595 -50.97390512 123.5919484 -53.20336914 120.48925781 C-53.81889648 119.66425781 -54.43442383 118.83925781 -55.06860352 117.98925781 C-56.21605328 116.44772183 -57.35585808 114.90044382 -58.48535156 113.34570312 C-59.51768119 111.92491193 -60.58092684 110.52614533 -61.67163086 109.1496582 C-63.01586914 107.23925781 -63.01586914 107.23925781 -63.66821289 104.34472656 C-62.8041788 100.23151038 -61.09444286 99.26570868 -57.73266602 96.94824219 C-57.02174805 96.48740234 -56.31083008 96.0265625 -55.57836914 95.55175781 C-54.17938749 94.61697791 -52.78463182 93.67583345 -51.39477539 92.72753906 C-50.77159424 92.32059814 -50.14841309 91.91365723 -49.50634766 91.49438477 C-47.71542174 90.20786423 -47.71542174 90.20786423 -47.01586914 87.23925781 C-49.26962758 84.61275728 -50.76138546 83.81793682 -54.17602539 83.36035156 C-54.96944336 83.24369141 -55.76286133 83.12703125 -56.58032227 83.00683594 C-57.40467773 82.89791016 -58.2290332 82.78898437 -59.07836914 82.67675781 C-60.71611682 82.45371825 -62.35291702 82.2235728 -63.98852539 81.98535156 C-65.07532593 81.84117798 -65.07532593 81.84117798 -66.18408203 81.6940918 C-68.01586914 81.23925781 -68.01586914 81.23925781 -70.01586914 79.23925781 C-70.38822113 72.90927393 -69.62092767 66.75674866 -68.76586914 60.48925781 C-68.65629883 59.55726562 -68.54672852 58.62527344 -68.43383789 57.66503906 C-67.920253 53.89694783 -67.37966873 50.90141156 -65.53930664 47.55175781 C-61.38048103 45.38865347 -57.41531254 46.34930825 -52.89086914 46.98925781 C-51.07577297 47.2132809 -49.26066917 47.43724228 -47.44555664 47.66113281 C-46.64359863 47.77038086 -45.84164062 47.87962891 -45.01538086 47.9921875 C-43.02083819 48.28013537 -43.02083819 48.28013537 -41.01586914 48.23925781 C-41.47201026 43.13435938 -44.06907302 40.04662551 -47.07836914 36.11425781 C-52.01586914 29.63421006 -52.01586914 29.63421006 -52.01586914 26.23925781 C-74.20459007 29.50777599 -93.59863068 36.86618744 -107.84399414 55.05175781 C-119.28920499 71.84904568 -124.5191787 90.94361728 -120.73461914 111.16113281 C-115.93178735 131.729782 -105.635433 146.02331958 -88.75415039 158.15332031 C-81.92265351 163.35734219 -77.31220967 169.28535097 -75.46899414 177.75097656 C-74.70679851 183.61856881 -74.69318335 189.53639759 -74.58618164 195.44824219 C-74.55524414 196.40408203 -74.52430664 197.35992187 -74.49243164 198.34472656 C-74.46270264 199.64639771 -74.46270264 199.64639771 -74.43237305 200.97436523 C-73.93313167 203.68917314 -73.15659736 204.55295109 -71.01586914 206.23925781 C-67.82609378 207.83414549 -64.37081085 207.40226935 -60.86743164 207.40722656 C-60.05849457 207.41055496 -59.2495575 207.41388336 -58.41610718 207.41731262 C-56.70294768 207.42237968 -54.98977831 207.42472102 -53.27661133 207.42456055 C-50.65828106 207.4267433 -48.04037461 207.44489075 -45.42211914 207.46386719 C-43.75805808 207.46680192 -42.09399502 207.46878618 -40.42993164 207.46972656 C-39.25631577 207.48050484 -39.25631577 207.48050484 -38.05899048 207.49150085 C-32.66136565 207.57634187 -32.66136565 207.57634187 -28.01586914 205.23925781 C-26.08190141 201.67753073 -25.77590132 198.64277637 -25.77758789 194.63378906 C-25.75341797 193.03374023 -25.75341797 193.03374023 -25.72875977 191.40136719 C-25.71198117 189.18788298 -25.7065664 186.97428024 -25.71313477 184.76074219 C-25.54620835 175.79517816 -23.53328094 169.3075204 -17.62133789 162.46972656 C-16.8234082 161.79554688 -16.02547852 161.12136719 -15.20336914 160.42675781 C-14.34356445 159.69972656 -13.48375977 158.97269531 -12.59790039 158.22363281 C-9.19663366 155.6096487 -5.7354142 153.3745522 -2.01586914 151.23925781 C-0.03586914 153.21925781 1.94413086 155.19925781 3.98413086 157.23925781 C2.64612106 161.2532872 0.59921336 162.18552342 -2.82836914 164.61425781 C-8.6321617 168.72851758 -12.71289704 172.40213531 -15.01586914 179.23925781 C-15.31397436 182.00486607 -15.31397436 182.00486607 -15.28930664 184.91503906 C-15.30993164 185.99076172 -15.33055664 187.06648437 -15.35180664 188.17480469 C-15.37771188 190.41431239 -15.39602245 192.65392165 -15.40649414 194.89355469 C-15.55443432 201.77688239 -16.25527302 206.4069151 -20.01586914 212.23925781 C-21.00586914 212.89925781 -21.99586914 213.55925781 -23.01586914 214.23925781 C-23.47671662 216.7051596 -23.47671662 216.7051596 -23.42211914 219.58691406 C-23.45499023 221.20823242 -23.45499023 221.20823242 -23.48852539 222.86230469 C-23.49754883 223.99732422 -23.50657227 225.13234375 -23.51586914 226.30175781 C-23.66094268 244.1147157 -23.66094268 244.1147157 -28.76977539 250.39550781 C-29.36661133 250.83894531 -29.96344727 251.28238281 -30.57836914 251.73925781 C-31.1777832 252.20332031 -31.77719727 252.66738281 -32.39477539 253.14550781 C-37.16277361 256.36247046 -42.64459758 255.50136217 -48.22729492 255.53442383 C-50.24475998 255.55157832 -52.26056008 255.59545652 -54.27758789 255.63964844 C-55.55762695 255.64802734 -56.83766602 255.65640625 -58.15649414 255.66503906 C-59.91268066 255.68691284 -59.91268066 255.68691284 -61.7043457 255.70922852 C-66.8735094 254.9756219 -69.93804669 252.46273194 -73.32836914 248.61425781 C-76.06720314 244.75960256 -76.13701277 242.60183341 -76.15649414 237.87597656 C-76.17583008 236.59658203 -76.19516602 235.3171875 -76.21508789 233.99902344 C-76.24401404 231.96463286 -76.26586804 229.93133785 -76.26635742 227.89672852 C-76.26970444 225.93131033 -76.30648917 223.96603972 -76.34399414 222.00097656 C-76.35333984 220.82494873 -76.36268555 219.6489209 -76.37231445 218.43725586 C-77.19531089 214.347563 -78.91781465 212.93458879 -82.01586914 210.23925781 C-86.0000704 204.54754173 -85.72678697 197.95792619 -86.01586914 191.23925781 C-86.88211914 192.08488281 -87.74836914 192.93050781 -88.64086914 193.80175781 C-90.98778394 195.71649016 -91.71174213 196.21898268 -94.82836914 196.42675781 C-99.37686448 194.73222033 -103.10548346 192.08080474 -107.01586914 189.23925781 C-107.4315918 190.73779297 -107.4315918 190.73779297 -107.85571289 192.26660156 C-108.22142463 193.57003572 -108.58731952 194.8734185 -108.95336914 196.17675781 C-109.22697266 197.16579102 -109.22697266 197.16579102 -109.50610352 198.17480469 C-110.90258789 203.12597656 -110.90258789 203.12597656 -112.01586914 204.23925781 C-115.82175059 204.49134503 -119.6401237 204.42448125 -123.45336914 204.42675781 C-124.5290918 204.43900391 -125.60481445 204.45125 -126.71313477 204.46386719 C-127.73987305 204.46580078 -128.76661133 204.46773437 -129.82446289 204.46972656 C-131.24456665 204.47588989 -131.24456665 204.47588989 -132.69335938 204.48217773 C-135.01586914 204.23925781 -135.01586914 204.23925781 -137.01586914 202.23925781 C-137.62936956 200.04979301 -138.16146726 197.83693924 -138.64086914 195.61425781 C-138.90125977 194.42574219 -139.16165039 193.23722656 -139.42993164 192.01269531 C-139.62329102 191.09746094 -139.81665039 190.18222656 -140.01586914 189.23925781 C-140.75192383 189.74457031 -141.48797852 190.24988281 -142.24633789 190.77050781 C-143.2221582 191.42019531 -144.19797852 192.06988281 -145.20336914 192.73925781 C-146.64776367 193.71378906 -146.64776367 193.71378906 -148.12133789 194.70800781 C-151.24367461 196.35977029 -152.56258481 196.63098645 -156.01586914 196.23925781 C-157.96044922 194.94165039 -157.96044922 194.94165039 -159.78540039 193.13378906 C-160.44604492 192.47958984 -161.10668945 191.82539063 -161.78735352 191.15136719 C-162.46088867 190.45849609 -163.13442383 189.765625 -163.82836914 189.05175781 C-164.52124023 188.37822266 -165.21411133 187.7046875 -165.92797852 187.01074219 C-166.58217773 186.35009766 -167.23637695 185.68945312 -167.91040039 185.00878906 C-168.50699463 184.40655518 -169.10358887 183.80432129 -169.71826172 183.18383789 C-171.38982255 180.67885538 -171.36654 179.19824626 -171.01586914 176.23925781 C-169.48461914 173.34472656 -169.48461914 173.34472656 -167.51586914 170.42675781 C-166.86618164 169.4509375 -166.21649414 168.47511719 -165.54711914 167.46972656 C-165.04180664 166.73367187 -164.53649414 165.99761719 -164.01586914 165.23925781 C-164.93110352 165.04589844 -165.84633789 164.85253906 -166.78930664 164.65332031 C-167.97782227 164.39292969 -169.16633789 164.13253906 -170.39086914 163.86425781 C-171.57422852 163.60902344 -172.75758789 163.35378906 -173.97680664 163.09082031 C-177.01586914 162.23925781 -177.01586914 162.23925781 -179.01586914 160.23925781 C-179.24291992 157.90087891 -179.24291992 157.90087891 -179.21118164 155.01269531 C-179.20473633 153.98144531 -179.19829102 152.95019531 -179.19165039 151.88769531 C-179.17489258 150.80746094 -179.15813477 149.72722656 -179.14086914 148.61425781 C-179.1318457 147.52628906 -179.12282227 146.43832031 -179.11352539 145.31738281 C-179.08990323 142.6244563 -179.0569647 139.93196526 -179.01586914 137.23925781 C-177.76654193 136.76223163 -176.51637379 136.28740756 -175.26586914 135.81347656 C-174.56977539 135.54881592 -173.87368164 135.28415527 -173.15649414 135.01147461 C-170.1468326 133.92575843 -167.10344869 133.07547727 -164.01586914 132.23925781 C-164.5327832 131.51480469 -165.04969727 130.79035156 -165.58227539 130.04394531 C-166.24098633 129.07714844 -166.89969727 128.11035156 -167.57836914 127.11425781 C-168.57030273 125.68726562 -168.57030273 125.68726562 -169.58227539 124.23144531 C-171.01586914 121.23925781 -171.01586914 121.23925781 -171.11352539 118.30175781 C-169.58398872 114.03429607 -167.08759197 111.50415001 -163.89086914 108.36425781 C-163.05555664 107.47480469 -163.05555664 107.47480469 -162.20336914 106.56738281 C-159.1902689 103.55428257 -157.6709348 102.34052063 -153.35180664 101.67285156 C-149.88468332 102.26153175 -148.38965027 102.91028021 -145.76586914 105.17675781 C-143.36612862 107.20693829 -142.05302189 108.22687356 -139.01586914 109.23925781 C-138.96688477 108.57539062 -138.91790039 107.91152344 -138.86743164 107.22753906 C-138.03233696 97.36478293 -138.03233696 97.36478293 -136.01586914 94.23925781 C-133.39086914 93.42675781 -133.39086914 93.42675781 -131.01586914 93.23925781 C-131.09836914 92.06363281 -131.18086914 90.88800781 -131.26586914 89.67675781 C-131.1600561 72.74667124 -122.23940915 55.47141422 -111.01586914 43.23925781 C-110.35200195 42.48386719 -109.68813477 41.72847656 -109.00415039 40.95019531 C-97.15003341 28.19770717 -78.26485546 17.87519336 -60.52783203 17.13549805 C-58.80710607 17.13959618 -57.086385 17.14944197 -55.36572266 17.16479492 C-45.41098409 17.20952506 -39.82864877 16.26941127 -32.48852539 9.17285156 C-30.01586914 7.23925781 -30.01586914 7.23925781 -26.99243164 6.63378906 C-22.90565658 7.46508845 -21.80223418 9.19077109 -19.32836914 12.48925781 C-18.20881836 13.95105469 -18.20881836 13.95105469 -17.06665039 15.44238281 C-15.83047007 17.12829731 -14.62829548 18.84104313 -13.49633789 20.59863281 C-13.0077832 21.14003906 -12.51922852 21.68144531 -12.01586914 22.23925781 C-10.69586914 22.23925781 -9.37586914 22.23925781 -8.01586914 22.23925781 C-6.45747085 16.45092132 -5.41995069 10.71447586 -4.57836914 4.77832031 C-3.90157558 1.7233494 -3.23401409 0.383836 0 0 Z M3.98413086 11.23925781 C3.68664685 13.29808277 3.42131768 15.36159113 3.17163086 17.42675781 C2.36918385 22.80787304 1.73841111 26.27044726 -2.01586914 30.23925781 C-5.83817997 32.75106207 -9.50719859 32.40974819 -13.87915039 31.76660156 C-20.15150109 30.21858082 -23.49417619 24.22529731 -27.01586914 19.23925781 C-30.72090555 19.8426009 -32.87555062 21.46400018 -35.76586914 23.80175781 C-36.96469727 24.76275391 -36.96469727 24.76275391 -38.18774414 25.74316406 C-38.79102539 26.236875 -39.39430664 26.73058594 -40.01586914 27.23925781 C-38.73152097 30.80550612 -37.18971915 33.4907578 -34.89086914 36.48925781 C-32.20542446 40.45474246 -31.15330622 43.36365714 -31.48071289 48.15722656 C-32.41858522 51.80602912 -34.30705894 53.65943857 -37.01586914 56.23925781 C-39.36439442 57.41352045 -40.75360979 57.35433954 -43.36743164 57.33691406 C-44.21821289 57.33369141 -45.06899414 57.33046875 -45.94555664 57.32714844 C-46.83500977 57.31876953 -47.72446289 57.31039062 -48.64086914 57.30175781 C-49.98665039 57.29499023 -49.98665039 57.29499023 -51.35961914 57.28808594 C-53.57843562 57.27628372 -55.79711933 57.25981937 -58.01586914 57.23925781 C-58.37673786 59.71762065 -58.72985071 62.19665568 -59.07836914 64.67675781 C-59.18213867 65.38380859 -59.2859082 66.09085938 -59.39282227 66.81933594 C-59.64276077 68.62061688 -59.83388228 70.42984822 -60.01586914 72.23925781 C-58.20393928 74.05118767 -55.28031884 73.7553074 -52.82836914 74.05175781 C-47.44216904 74.84905717 -44.03176578 75.54897441 -40.01586914 79.23925781 C-37.43096981 83.48779477 -37.60124938 87.40202732 -38.01586914 92.23925781 C-38.76586914 95.17675781 -38.76586914 95.17675781 -40.01586914 97.23925781 C-41.70336914 98.23925781 -41.70336914 98.23925781 -44.01586914 99.23925781 C-46.39372324 100.84494854 -48.70516665 102.53868463 -51.01586914 104.23925781 C-49.42543535 109.32864593 -46.27117404 113.11382424 -43.01586914 117.23925781 C-39.44484059 115.95093578 -36.72177016 114.39875145 -33.70336914 112.11425781 C-29.09288446 108.98188533 -26.52975751 108.4257333 -21.01586914 109.23925781 C-16.84265117 110.57783716 -15.43887569 111.4637458 -13.32836914 115.33300781 C-11.63737699 119.54331107 -11.86891697 123.23267623 -12.32836914 127.67675781 C-12.38959961 128.40830078 -12.45083008 129.13984375 -12.51391602 129.89355469 C-12.66543939 131.67686823 -12.83841848 133.45833732 -13.01586914 135.23925781 C-11.28779596 135.57821437 -9.5583494 135.91017306 -7.82836914 136.23925781 C-6.38397461 136.51769531 -6.38397461 136.51769531 -4.91040039 136.80175781 C-2.22244854 137.20803394 0.27184105 137.31859353 2.98413086 137.23925781 C3.14268555 136.14226562 3.30124023 135.04527344 3.46459961 133.91503906 C3.69921238 132.46043992 3.93494909 131.00602174 4.17163086 129.55175781 C4.27282227 128.83052734 4.37401367 128.10929687 4.47827148 127.36621094 C5.34805634 122.21802487 6.79839695 119.64382831 10.98413086 116.23925781 C15.1182689 114.17218879 19.7570814 114.88867225 24.04663086 116.11425781 C28.47751651 119.31957935 31.0809219 123.66112061 33.98413086 128.23925781 C37.68916727 127.63591473 39.84381234 126.01451544 42.73413086 123.67675781 C43.53334961 123.03609375 44.33256836 122.39542969 45.15600586 121.73535156 C45.75928711 121.24164063 46.36256836 120.74792969 46.98413086 120.23925781 C46.38838108 116.86582469 45.21698199 115.11202221 42.98413086 112.55175781 C39.69213628 108.29199616 38.54551092 104.62232067 38.98413086 99.23925781 C40.47563459 95.00024721 42.02269108 92.37806333 45.98413086 90.23925781 C49.24202311 89.87185193 52.46102022 89.95748062 55.73413086 90.05175781 C57.06637695 90.07206055 57.06637695 90.07206055 58.42553711 90.09277344 C60.61235664 90.12804472 62.79793052 90.17733029 64.98413086 90.23925781 C65.3250042 88.69924074 65.65644039 87.15713376 65.98413086 85.61425781 C66.16975586 84.75574219 66.35538086 83.89722656 66.54663086 83.01269531 C67.01452704 80.04656776 67.05446345 77.23718449 66.98413086 74.23925781 C65.88713867 74.08070312 64.79014648 73.92214844 63.65991211 73.75878906 C62.20531296 73.5241763 60.75089479 73.28843958 59.29663086 73.05175781 C58.57540039 72.95056641 57.85416992 72.849375 57.11108398 72.74511719 C51.99245179 71.88032545 49.26152739 70.51303302 45.98413086 66.23925781 C45.17163086 63.99316406 45.17163086 63.99316406 44.98413086 61.80175781 C44.90163086 61.08117188 44.81913086 60.36058594 44.73413086 59.61816406 C45.23087387 54.89134385 47.28124256 51.90450955 50.68334961 48.68457031 C52.16254883 47.53601562 52.16254883 47.53601562 53.67163086 46.36425781 C55.16243164 45.1925 55.16243164 45.1925 56.68334961 43.99707031 C57.44260742 43.41699219 58.20186523 42.83691406 58.98413086 42.23925781 C58.07351369 40.81869504 57.15533097 39.40298076 56.23413086 37.98925781 C55.72366211 37.20035156 55.21319336 36.41144531 54.68725586 35.59863281 C52.97030586 33.22010575 51.10991376 31.2541303 48.98413086 29.23925781 C48.29448242 29.80515625 47.60483398 30.37105469 46.89428711 30.95410156 C36.42673802 39.12424619 36.42673802 39.12424619 28.98413086 38.23925781 C25.47576805 37.06980354 23.65514327 36.06572937 21.33178711 33.20410156 C19.44685039 29.05724079 19.65831187 25.42035158 19.79663086 20.92675781 C19.81693359 19.67282227 19.81693359 19.67282227 19.83764648 18.39355469 C19.87281869 16.34184283 19.92662038 14.29046506 19.98413086 12.23925781 C18.42296267 11.89974162 16.86011747 11.56793237 15.29663086 11.23925781 C14.42651367 11.05363281 13.55639648 10.86800781 12.65991211 10.67675781 C8.02230318 9.67169239 8.02230318 9.67169239 3.98413086 11.23925781 Z M-154.01586914 113.23925781 C-155.59427486 114.79630975 -155.59427486 114.79630975 -157.14086914 116.73925781 C-157.67969727 117.38894531 -158.21852539 118.03863281 -158.77368164 118.70800781 C-159.18360352 119.21332031 -159.59352539 119.71863281 -160.01586914 120.23925781 C-159.58274414 120.79613281 -159.14961914 121.35300781 -158.70336914 121.92675781 C-153.58171991 128.94531416 -153.58171991 128.94531416 -153.39086914 133.55175781 C-154.10664864 137.77485689 -154.74540683 138.62614756 -158.01586914 141.23925781 C-161.03149414 142.28613281 -161.03149414 142.28613281 -164.26586914 142.98925781 C-165.88235352 143.35277344 -165.88235352 143.35277344 -167.53149414 143.72363281 C-168.35133789 143.89378906 -169.17118164 144.06394531 -170.01586914 144.23925781 C-170.01586914 147.20925781 -170.01586914 150.17925781 -170.01586914 153.23925781 C-166.07819209 154.89054173 -162.07951745 156.19772623 -158.00415039 157.45800781 C-156.01586914 158.23925781 -156.01586914 158.23925781 -154.01586914 160.23925781 C-152.94099809 167.76335514 -155.81526001 172.13837313 -160.01586914 178.23925781 C-156.55086914 181.70425781 -156.55086914 181.70425781 -153.01586914 185.23925781 C-152.38680664 184.80613281 -151.75774414 184.37300781 -151.10961914 183.92675781 C-145.46663042 180.25541575 -141.78120322 178.17104717 -135.01586914 179.23925781 C-131.68052611 181.6101643 -131.23974053 184.49303113 -130.39086914 188.36425781 C-129.82560061 192.1102261 -129.82560061 192.1102261 -128.01586914 195.23925781 C-126.49658876 195.31105745 -124.97419432 195.32317789 -123.45336914 195.30175781 C-122.62708008 195.29273438 -121.80079102 195.28371094 -120.94946289 195.27441406 C-120.31137695 195.2628125 -119.67329102 195.25121094 -119.01586914 195.23925781 C-118.76192383 194.25183594 -118.50797852 193.26441406 -118.24633789 192.24707031 C-117.89928018 190.95263885 -117.55159093 189.6583766 -117.20336914 188.36425781 C-116.86692383 187.08808594 -116.53047852 185.81191406 -116.18383789 184.49707031 C-115.01586914 181.23925781 -115.01586914 181.23925781 -112.01586914 179.23925781 C-105.32848834 178.31686046 -102.09473674 179.99251659 -96.70336914 183.92675781 C-95.86805664 184.57644531 -95.86805664 184.57644531 -95.01586914 185.23925781 C-93.88692038 184.30651672 -92.76286038 183.36785659 -91.64086914 182.42675781 C-91.01438477 181.9046875 -90.38790039 181.38261719 -89.74243164 180.84472656 C-87.79376434 179.15700042 -87.79376434 179.15700042 -86.01586914 176.23925781 C-89.25058725 170.71328104 -93.93059666 164.50881297 -100.26586914 162.54003906 C-100.84336914 162.44078125 -101.42086914 162.34152344 -102.01586914 162.23925781 C-102.39356445 162.77035156 -102.77125977 163.30144531 -103.16040039 163.84863281 C-108.33131358 170.4848399 -113.89396144 173.27960742 -122.18383789 174.57910156 C-129.35169359 174.93677899 -135.76164843 172.55577373 -141.32836914 168.17675781 C-146.79356224 162.98427894 -149.14066078 156.70824923 -149.51586914 149.23925781 C-149.20678196 142.47131444 -146.93548876 136.62581194 -142.70336914 131.36425781 C-138.19484827 127.79938085 -133.43539959 125.20999616 -128.01586914 123.23925781 C-128.67586914 119.93925781 -129.33586914 116.63925781 -130.01586914 113.23925781 C-130.51086914 114.04363281 -131.00586914 114.84800781 -131.51586914 115.67675781 C-134.16928869 118.39651285 -135.91673142 119.29064168 -139.71899414 119.59082031 C-143.67237556 118.98571091 -146.65337124 116.80293673 -149.91430664 114.58691406 C-151.88037412 113.05932172 -151.88037412 113.05932172 -154.01586914 113.23925781 Z M-135.82836914 137.67675781 C-139.60158803 142.09681422 -140.4213432 145.27812983 -140.26196289 150.99707031 C-139.72977058 155.84593362 -137.59320234 158.92826539 -134.01586914 162.05175781 C-129.20908449 165.55670495 -124.80351364 165.96271337 -119.01586914 165.23925781 C-115.66560749 163.61719997 -115.66560749 163.61719997 -113.01586914 161.23925781 C-112.21149414 160.57925781 -111.40711914 159.91925781 -110.57836914 159.23925781 C-108.80117621 157.42790138 -108.80117621 157.42790138 -109.15258789 155.46972656 C-110.34903653 152.37844977 -112.21429577 150.15019097 -114.26586914 147.55175781 C-118.03869576 142.68930347 -121.25130761 137.74059634 -124.01586914 132.23925781 C-128.676327 132.23925781 -132.44074729 134.74081887 -135.82836914 137.67675781 Z M-67.01586914 217.23925781 C-67.01586914 219.87925781 -67.01586914 222.51925781 -67.01586914 225.23925781 C-56.12586914 225.23925781 -45.23586914 225.23925781 -34.01586914 225.23925781 C-34.01586914 222.59925781 -34.01586914 219.95925781 -34.01586914 217.23925781 C-44.90586914 217.23925781 -55.79586914 217.23925781 -67.01586914 217.23925781 Z M-67.01586914 234.23925781 C-67.01586914 240.40089556 -66.99060303 241.14761998 -63.01586914 245.23925781 C-59.27429249 247.11004614 -54.75794226 246.4240131 -50.64086914 246.42675781 C-49.20227539 246.44512695 -49.20227539 246.44512695 -47.73461914 246.46386719 C-46.80907227 246.46580078 -45.88352539 246.46773437 -44.92993164 246.46972656 C-43.66076904 246.47588989 -43.66076904 246.47588989 -42.3659668 246.48217773 C-39.79707803 246.21664228 -38.20308831 245.59157074 -36.01586914 244.23925781 C-33.48627362 240.69782408 -34.01586914 239.02108171 -34.01586914 234.23925781 C-44.90586914 234.23925781 -55.79586914 234.23925781 -67.01586914 234.23925781 Z " fill="#cb1125" transform="translate(179.015869140625,0.7607421875)"/>
<path d="M0 0 C6.9380761 4.8995095 10.68659497 11.0928126 13.90234375 18.83984375 C15.88351421 30.52874949 14.57514204 40.79483532 7.96484375 50.77734375 C3.01131572 56.87206431 -4.59295098 61.88489788 -12.38671875 63.31640625 C-22.29748017 64.31861808 -31.38881619 63.69168186 -39.72265625 57.77734375 C-47.29680188 51.56226861 -53.46552588 43.59864747 -54.47265625 33.52734375 C-54.56740234 32.6146875 -54.56740234 32.6146875 -54.6640625 31.68359375 C-55.19821567 22.17222122 -52.44982486 13.24397611 -46.22265625 6.02734375 C-33.31002227 -7.01229974 -15.99457322 -9.52599385 0 0 Z M-37.78125 11.6875 C-43.40877355 17.80889398 -44.8575029 23.14836707 -44.73828125 31.39453125 C-44.02518762 39.80484141 -40.03432332 44.52208253 -33.7890625 49.8984375 C-27.47203257 54.34059851 -20.96481367 54.35496579 -13.47265625 53.52734375 C-6.04702434 51.34631798 -1.17404121 47.27263081 2.52734375 40.52734375 C5.62357358 34.22105212 6.37568582 28.34636845 4.52734375 21.52734375 C1.39720859 13.98605727 -3.12188501 9.07856094 -10.47265625 5.52734375 C-20.82338657 1.82552006 -29.92407713 4.17953481 -37.78125 11.6875 Z " fill="#cb1125" transform="translate(202.47265625,45.47265625)"/>
<path d="M0 0 C1.32 2.64 2.64 5.28 4 8 C3.21496094 8.66644531 2.42992188 9.33289063 1.62109375 10.01953125 C-9.28059267 19.49276871 -17.54456767 30.15459027 -19 45 C-19.93210725 60.20926213 -16.03861213 73.07750985 -6.1875 84.8125 C-0.78355666 90.5421047 5.12733661 94.14813272 12.21850586 97.4987793 C23.03057025 102.63640661 29.5336878 108.72879152 34 120 C35.24791398 124.05572042 35.07030919 127.7814483 35 132 C32.03 132 29.06 132 26 132 C25.75765625 131.13117188 25.5153125 130.26234375 25.265625 129.3671875 C22.37081985 119.41351132 20.06401886 113.75850336 10.91015625 108.5546875 C8.88833092 107.47457142 6.85331252 106.41893682 4.80859375 105.3828125 C-12.70772047 96.407511 -21.73370821 84.13365955 -28.11328125 65.80078125 C-31.90288653 49.55723085 -29.03651224 32.93132215 -20.76171875 18.6328125 C-16.80397388 12.71813392 -8.013139 0 0 0 Z " fill="#cb1125" transform="translate(98,48)"/>
<path d="M0 0 C3.28361989 0.627255 5.48758839 1.80432909 8.23046875 3.6953125 C9.03419922 4.24703125 9.83792969 4.79875 10.66601562 5.3671875 C11.91415039 6.23730469 11.91415039 6.23730469 13.1875 7.125 C14.00025391 7.681875 14.81300781 8.23875 15.65039062 8.8125 C21.25628087 12.68355229 26.66563291 16.76362548 32 21 C30.35 23.64 28.7 26.28 27 29 C24.00418464 27.50209232 21.47024517 26.04570864 18.734375 24.171875 C17.92613281 23.61886719 17.11789063 23.06585938 16.28515625 22.49609375 C15.03025391 21.63177734 15.03025391 21.63177734 13.75 20.75 C12.51830078 19.90888672 12.51830078 19.90888672 11.26171875 19.05078125 C6.07578965 15.4921326 0.99765952 11.81847545 -4 8 C-2.87548273 5.0280615 -1.77706209 2.66559313 0 0 Z " fill="#cb1125" transform="translate(15,23)"/>
<path d="M0 0 C1.14555837 4.340021 2.28469786 8.68166095 3.41796875 13.02490234 C3.80423656 14.50159898 4.19224196 15.97784226 4.58203125 17.45361328 C5.14262096 19.57727583 5.69690226 21.70250061 6.25 23.828125 C6.42499023 24.48556702 6.59998047 25.14300903 6.78027344 25.82037354 C7.61212245 29.04221933 8 31.63530998 8 35 C5.03 35.66 2.06 36.32 -1 37 C-4.3113918 25.39655743 -7.33343613 13.76863385 -10 2 C-6.45648927 0.38010938 -3.87280581 -0.10414268 0 0 Z " fill="#cb1125" transform="translate(57,0)"/>
<path d="M0 0 C2.29633824 3.44450737 2.54016485 5.93812283 3 10 C-1.50122738 11.14384489 -6.00359388 12.2830497 -10.50708008 13.41796875 C-12.03897796 13.80471497 -13.57055668 14.19272764 -15.10180664 14.58203125 C-17.30272078 15.14135594 -19.50474211 15.69611752 -21.70703125 16.25 C-22.39150833 16.42499023 -23.07598541 16.59998047 -23.78120422 16.78027344 C-26.60875429 17.48741106 -29.07154001 18 -32 18 C-32.66 15.03 -33.32 12.06 -34 9 C-22.70963045 5.81151601 -11.39811763 2.77964994 0 0 Z " fill="#cb1125" transform="translate(38,64)"/>
<path d="M0 0 C3.94560193 1.65829646 6.93425953 4.34702955 10.125 7.125 C11.27640559 8.1143741 12.42876071 9.10264417 13.58203125 10.08984375 C14.1538916 10.57952637 14.72575195 11.06920898 15.31494141 11.57373047 C19.13534571 14.80740215 23.06872387 17.90289984 27 21 C25.08864614 24.53600465 23.37357234 26.78972846 20 29 C19.11699219 28.23816406 18.23398438 27.47632813 17.32421875 26.69140625 C9.96504645 20.35531329 2.55342278 14.10439882 -5 8 C-3.7367158 4.64405806 -2.74084921 2.36709704 0 0 Z " fill="#cb1125" transform="translate(207,180)"/>
<path d="M0 0 C3.3 0 6.6 0 10 0 C10 9.9 10 19.8 10 30 C6.7 30 3.4 30 0 30 C0 20.1 0 10.2 0 0 Z " fill="#cb1125" transform="translate(183,192)"/>
<path d="M0 0 C9.9 0 19.8 0 30 0 C30 2.97 30 5.94 30 9 C20.1 9 10.2 9 0 9 C0 6.03 0 3.06 0 0 Z " fill="#cb1125" transform="translate(209,158)"/>
<path d="M0 0 C2.97 0 5.94 0 9 0 C9 4.29 9 8.58 9 13 C6.03 13 3.06 13 0 13 C0 8.71 0 4.42 0 0 Z " fill="#cb1125" transform="translate(124,188)"/>
</svg>