<?xml version="1.0" encoding="UTF-8"?>
<svg version="1.1" xmlns="http://www.w3.org/2000/svg" width="512" height="512">
<path d="M0 0 C1.27540708 -0.00453111 2.55081417 -0.00906223 3.86486995 -0.01373065 C7.38010569 -0.02588777 10.89524574 -0.02570885 14.41049767 -0.02334189 C18.21163248 -0.02293186 22.01273736 -0.03399062 25.81385803 -0.04345703 C33.25213614 -0.06002845 40.69038253 -0.06556485 48.12867756 -0.06668179 C54.17950782 -0.06763419 60.23032767 -0.07175408 66.28115463 -0.07808304 C83.46167421 -0.09568571 100.64216887 -0.10492355 117.82269754 -0.10342209 C119.21030555 -0.10330222 119.21030555 -0.10330222 120.62594604 -0.10317993 C122.01526171 -0.10305729 122.01526171 -0.10305729 123.43264435 -0.10293217 C138.43328392 -0.10211977 153.43382297 -0.12124829 168.43443348 -0.14945666 C183.86176376 -0.17823696 199.2890451 -0.1919941 214.71640289 -0.19026911 C223.36767124 -0.18960694 232.01883422 -0.19502319 240.67007828 -0.21662521 C248.03766058 -0.23490498 255.40508976 -0.23912898 262.77268501 -0.22560637 C266.5256377 -0.21911049 270.27829723 -0.21883559 274.03122139 -0.23631287 C308.76534308 -0.3880247 308.76534308 -0.3880247 324.39743042 8.01742554 C325.05678589 8.36031616 325.71614136 8.70320679 326.39547729 9.05648804 C332.15981732 12.15037475 337.20200551 15.83784589 342.02243042 20.26742554 C342.72754761 20.90422241 343.43266479 21.54101929 344.15914917 22.19711304 C357.44917968 34.80365626 367.27559581 53.49056332 368.15123159 71.98834693 C368.15302016 72.92213963 368.15480873 73.85593233 368.1566515 74.81802177 C368.16110934 75.90343691 368.16556718 76.98885204 368.17016011 78.10715854 C368.16988357 79.87969948 368.16988357 79.87969948 368.16960144 81.68804932 C368.17327813 82.9518716 368.17695482 84.21569388 368.18074292 85.5178138 C368.19072833 89.01925895 368.19447413 92.52068696 368.19713223 96.02214432 C368.20104566 99.80152865 368.21062335 103.58089955 368.21934509 107.36027527 C368.23908167 116.48510704 368.24917279 125.60993987 368.25807288 134.73478764 C368.26246096 139.03728475 368.26782647 143.33978063 368.27306175 147.64227676 C368.2900723 161.95461967 368.30456448 176.26696182 368.31181049 190.57931328 C368.31372023 194.29110592 368.31564059 198.00289855 368.31759644 201.71469116 C368.31808018 202.63718238 368.31856392 203.5596736 368.31906231 204.5101191 C368.32735519 219.43987643 368.35268033 234.36955345 368.38517711 249.29927574 C368.41830584 264.64511295 368.43626456 279.99090943 368.43945473 295.33678257 C368.44161461 303.94564046 368.45028624 312.55438128 368.47591591 321.16320419 C368.49770261 328.49793766 368.50563443 335.8325256 368.49594913 343.16728775 C368.49142717 346.90401711 368.49316638 350.64044675 368.51271057 354.37713432 C368.68400904 389.03720937 368.68400904 389.03720937 360.27243042 404.57992554 C359.75918213 405.56400391 359.75918213 405.56400391 359.23556519 406.56796265 C348.67188368 426.30276357 332.80848943 438.83430264 311.92795563 446.3866806 C298.55725804 450.33535641 284.92486676 449.83994955 271.10705543 449.79032421 C267.33464231 449.78118408 263.5623002 449.79528734 259.78990173 449.8062439 C252.42057825 449.82393914 245.05141862 449.82022956 237.68208897 449.80859333 C231.687648 449.79952361 225.69325264 449.79835023 219.69880676 449.8026886 C218.84245682 449.80330153 217.98610688 449.80391446 217.10380694 449.80454597 C215.36361618 449.805825 213.62342542 449.80712185 211.88323468 449.80843633 C195.60294762 449.81981578 179.32275097 449.80676994 163.04247874 449.78523487 C149.10297079 449.76736629 135.16359613 449.77047114 121.22409058 449.78890991 C104.99816145 449.81036335 88.77231136 449.81871739 72.54637003 449.80646086 C70.81293139 449.80518679 69.07949274 449.80392931 67.34605408 449.8026886 C66.49338698 449.8020715 65.64071989 449.80145439 64.76221439 449.80081859 C58.78178985 449.79737908 52.80141586 449.80316369 46.82099915 449.81260681 C39.52308107 449.82387806 32.22533487 449.82067986 24.92743623 449.79948384 C21.21090777 449.78904181 17.49466483 449.7847329 13.77813911 449.79808044 C-20.78070091 449.91193531 -20.78070091 449.91193531 -36.29006958 441.51742554 C-36.94684692 441.17453491 -37.60362427 440.83164429 -38.28030396 440.47836304 C-57.1590031 430.36543329 -71.13560397 414.6557455 -77.97756958 394.26742554 C-80.51826787 385.39648857 -81.41236536 377.08529374 -81.36524963 367.88439941 C-81.37063517 366.60163994 -81.37602071 365.31888046 -81.38156945 363.99724948 C-81.39589462 360.47541134 -81.39182041 356.95380977 -81.38440263 353.43195939 C-81.37964086 349.61861936 -81.3922072 345.80532833 -81.40242004 341.99200439 C-81.41955479 334.5364071 -81.42045917 327.08089428 -81.41520714 319.62528242 C-81.41115427 313.56116263 -81.41262222 307.49706768 -81.4179554 301.43294907 C-81.41870382 300.56757785 -81.41945224 299.70220663 -81.42022334 298.81061205 C-81.42175493 297.05221995 -81.42329328 295.29382786 -81.42483831 293.53543578 C-81.43854408 277.07160731 -81.4331392 260.60782645 -81.4216531 244.14399908 C-81.41172263 229.10730462 -81.4246616 214.07073324 -81.44858729 199.03405775 C-81.47301432 183.56482122 -81.48257732 168.09564194 -81.47593457 152.62638652 C-81.47245036 143.95340385 -81.47462147 135.28051578 -81.49218559 126.60754776 C-81.50695274 119.22463049 -81.50748435 111.84187445 -81.49011468 104.45896019 C-81.48163927 100.69801572 -81.47936947 96.93735874 -81.49476624 93.17642975 C-81.56118944 75.7126905 -81.60093731 59.74671 -73.22756958 43.95492554 C-72.88395386 43.29033325 -72.54033813 42.62574097 -72.18630981 41.94100952 C-69.09416231 36.14472938 -65.42247044 31.11177255 -60.97756958 26.26742554 C-60.31370239 25.51203491 -59.64983521 24.75664429 -58.96585083 23.97836304 C-43.45331891 7.29020485 -22.3758611 -0.0588395 0 0 Z M-38.97756958 51.26742554 C-46.4092389 61.64371856 -48.43070356 71.44056818 -48.36524963 84.05085754 C-48.37063517 85.30529114 -48.37602071 86.55972474 -48.38156945 87.85217148 C-48.39594519 91.30870013 -48.39180426 94.76498874 -48.38440263 98.22153008 C-48.37965365 101.95918167 -48.392196 105.69678261 -48.40242004 109.43441772 C-48.41957925 116.74670884 -48.4204541 124.05891391 -48.41520714 131.37121993 C-48.41115905 137.31673891 -48.41261657 143.26223254 -48.4179554 149.20775032 C-48.41870382 150.05525537 -48.41945224 150.90276042 -48.42022334 151.77594744 C-48.42175488 153.49786806 -48.42329323 155.21978868 -48.42483831 156.94170929 C-48.43855278 173.07396298 -48.43313293 189.20616812 -48.4216531 205.3384207 C-48.41172047 220.08378212 -48.42466377 234.82901806 -48.44858729 249.57436012 C-48.47299299 264.73159921 -48.48258263 279.88877988 -48.47593457 295.04603821 C-48.47244579 303.54902901 -48.47465191 312.05192332 -48.49218559 320.55489922 C-48.50692592 327.79271144 -48.50751909 335.0303592 -48.49011468 342.26816826 C-48.48161756 345.95771398 -48.47942326 349.64696614 -48.49476624 353.33649635 C-48.51122288 357.34357079 -48.49643173 361.34994059 -48.47877502 365.35700989 C-48.48838003 366.51266856 -48.49798504 367.66832723 -48.5078811 368.85900587 C-48.39156716 381.71949408 -43.53803378 393.56431571 -34.72756958 403.01742554 C-23.81696607 413.16404806 -10.69231279 416.88982212 3.91902161 416.77536011 C5.16150227 416.78160007 6.40398293 416.78784003 7.68411452 416.79426908 C11.09829894 416.80737152 14.5115908 416.80278191 17.92571914 416.79032421 C21.62111765 416.78121729 25.31644211 416.79527127 29.01182556 416.8062439 C36.23764757 416.82397446 43.46330281 416.82021347 50.68913119 416.80859333 C56.56546352 416.79953698 62.44174931 416.79834451 68.31808662 416.8026886 C69.15641716 416.80330153 69.9947477 416.80391446 70.8584822 416.80454597 C72.5618773 416.80582495 74.26527238 416.80712181 75.96866746 416.80843633 C91.91931355 416.81982631 107.8698675 416.80675368 123.82049847 416.78523487 C137.48640669 416.7673686 151.15217896 416.77046717 164.81808472 416.78890991 C180.71251443 416.8103503 196.60686348 416.81872438 212.50130564 416.80646086 C214.19852323 416.80518675 215.89574083 416.80392927 217.59295845 416.8026886 C218.42787886 416.8020715 219.26279927 416.80145439 220.1230203 416.80081859 C225.98708744 416.79737494 231.85110311 416.80317279 237.71516228 416.81260681 C244.86906909 416.8238636 252.02280051 416.82070997 259.17668741 416.79948384 C262.82193405 416.7890221 266.46688901 416.78476729 270.11213303 416.79808044 C274.07453629 416.81233226 278.03646929 416.79523497 281.99885559 416.77536011 C283.1356515 416.78428299 284.2724474 416.79320588 285.44369167 416.80239916 C299.04629238 416.67070814 311.7142472 412.3508925 321.77243042 403.01742554 C332.14961015 391.83448833 335.6497287 378.17195884 335.52363586 363.23039246 C335.52917026 361.98494067 335.53470466 360.73948889 335.54040676 359.45629615 C335.55157453 356.03857027 335.54506814 352.62174901 335.53067005 349.20409405 C335.51948127 345.50332503 335.53152862 341.80261741 335.54051208 338.10185242 C335.55439193 330.86847677 335.54692804 323.63527657 335.5318365 316.40190939 C335.51491617 307.96890069 335.51819412 299.53593497 335.52193058 291.10291453 C335.52779925 276.05297989 335.51367521 261.0031291 335.48898315 245.95321655 C335.46505248 231.3656195 335.45798516 216.7781344 335.46847534 202.19052124 C335.47989486 186.28220156 335.48180283 170.37393356 335.46737725 154.4656145 C335.46585149 152.76818542 335.46433113 151.07075634 335.46281624 149.37332726 C335.46205842 148.5382797 335.46130061 147.70323214 335.46051983 146.8428801 C335.455786 140.97089164 335.45762194 135.09892635 335.46188164 129.22693825 C335.4668175 122.06896597 335.46078265 114.91109935 335.44098734 107.75315122 C335.43114346 104.10426619 335.42597873 100.45554174 335.43387985 96.80664825 C335.44228145 92.84550007 335.42730363 88.88463175 335.41011047 84.92350769 C335.41612052 83.77865538 335.42213056 82.63380307 335.42832273 81.45425826 C335.32317083 68.11275935 331.06022496 56.23500601 321.77243042 46.45492554 C310.66538366 36.05485998 299.20226663 32.80206754 284.24572754 32.87974548 C282.99199951 32.87435995 281.73827147 32.86897441 280.44655168 32.86342567 C276.99195361 32.84904994 273.5375957 32.85319087 270.08298492 32.86059248 C266.34735921 32.86534152 262.61178416 32.85279901 258.87617493 32.84257507 C251.56755881 32.82541546 244.25902877 32.82454117 236.95039774 32.82978798 C231.00727103 32.8338363 225.06416967 32.83237827 219.12104416 32.82703972 C217.85021967 32.82591709 217.85021967 32.82591709 216.55372196 32.82477177 C214.83236707 32.82324023 213.11101218 32.82170188 211.3896573 32.82015681 C195.26214224 32.80644197 179.13467573 32.81186225 163.00716178 32.82334202 C148.26894242 32.83327277 133.53084863 32.82033466 118.79264863 32.79640783 C103.64105478 32.77199615 88.48951936 32.76241407 73.33790624 32.76906055 C64.83879594 32.77254825 56.33978218 32.77035048 47.8406868 32.75280952 C40.605465 32.73806162 33.37040773 32.73748578 26.13518907 32.75488044 C22.44754469 32.76337171 18.76019388 32.76558633 15.07256508 32.75022888 C11.06584084 32.73374983 7.05981987 32.74857693 3.05310059 32.76622009 C1.90035475 32.75661509 0.74760892 32.74701008 -0.4400686 32.73711401 C-15.89716084 32.87665635 -29.12212942 39.2863022 -38.97756958 51.26742554 Z " fill="#000000" transform="translate(112.97756958007813,31.732574462890625)"/>
<path d="M0 0 C4.48349839 3.75666532 7.10113759 6.68430291 8.01953125 12.5390625 C8.59305141 19.44520104 5.92417883 23.299527 1.70703125 28.546875 C-2.87600193 33.63005332 -7.79402328 38.39796278 -12.66015625 43.20703125 C-14.06471338 44.60598437 -15.46860313 46.00560783 -16.87185669 47.40586853 C-20.54440821 51.06703477 -24.22588237 54.71909656 -27.90936279 58.3692627 C-31.67553208 62.10459428 -35.43308981 65.84856716 -39.19140625 69.59179688 C-46.55024563 76.9185837 -53.91855122 84.23577013 -61.29296875 91.546875 C-51.46733873 92.36389578 -51.46733873 92.36389578 -41.6171875 92.72265625 C-40.52212891 92.74650391 -39.42707031 92.77035156 -38.29882812 92.79492188 C-36.06725942 92.83826606 -33.83542124 92.8693089 -31.60351562 92.88867188 C-23.56202078 93.0933991 -17.6313039 94.03734318 -11.85546875 100.109375 C-8.72601847 104.99131744 -8.6598577 109.91042801 -9.29296875 115.546875 C-11.78631378 120.53356507 -15.28647824 124.04362974 -20.29296875 126.546875 C-38.26590058 127.85196341 -56.80979056 126.42656587 -74.78778076 125.85415649 C-77.32691098 125.77449026 -79.86618414 125.69925332 -82.40557861 125.62850952 C-86.03140555 125.52539239 -89.65617067 125.40379688 -93.28125 125.27734375 C-94.37302048 125.24906494 -95.46479095 125.22078613 -96.58964539 125.19165039 C-103.79903007 124.91249313 -110.44385568 124.46904225 -115.73046875 119.046875 C-123.15001588 107.17559959 -119.84734515 84.24051607 -120.28875732 70.80792236 C-120.37784837 68.12223093 -120.47015553 65.43665392 -120.56247807 62.75107193 C-120.67376544 59.50077835 -120.78209063 56.2503865 -120.890625 53 C-120.9312355 51.81327698 -120.97184601 50.62655396 -121.01368713 49.40386963 C-121.18662982 44.08610073 -121.33291729 38.76859263 -121.39233398 33.44824219 C-121.40755348 32.16636017 -121.40755348 32.16636017 -121.42308044 30.85858154 C-121.14342919 25.88999169 -119.14313053 22.60957722 -116.04296875 18.734375 C-111.74964038 15.31922743 -107.64894762 14.25825066 -102.23046875 14.671875 C-96.67068534 15.61822111 -93.3662842 18.12545725 -89.98046875 22.609375 C-85.45955013 31.46545287 -87.16939228 43.6038829 -87.23046875 53.234375 C-87.23549847 54.62955567 -87.24005875 56.02473811 -87.24414062 57.41992188 C-87.25582124 60.79561937 -87.27220042 64.17122326 -87.29296875 67.546875 C-80.41626562 61.83666641 -74.17176389 55.53071135 -67.88915634 49.18766212 C-65.99939578 47.28031295 -64.10594347 45.37669869 -62.2114563 43.4740448 C-56.83113157 38.06943132 -51.45659648 32.65908717 -46.08642578 27.24438477 C-42.7876542 23.91877372 -39.48398031 20.59809771 -36.17728043 17.28037071 C-34.92432366 16.02122885 -33.67326452 14.7601956 -32.42419052 13.49720192 C-30.6778393 11.73154622 -28.92533179 9.97221925 -27.17138672 8.21411133 C-26.40908249 7.4386647 -26.40908249 7.4386647 -25.63137817 6.64755249 C-18.5136003 -0.45107408 -9.63109392 -6.10352119 0 0 Z " fill="#000000" transform="translate(233.29296875,274.453125)"/>
<path d="M0 0 C1.97466751 0.06727547 1.97466751 0.06727547 3.98922729 0.13591003 C7.4897734 0.25547649 10.98967771 0.38861415 14.48962402 0.5244751 C17.9758518 0.65719138 21.46254807 0.77607995 24.94921875 0.89648438 C31.59553991 1.12799228 38.24039711 1.38786537 44.88537598 1.65533447 C48.23027978 1.78297447 51.57500164 1.88837568 54.92089844 1.98583984 C56.79623356 2.05017659 58.67155985 2.11477136 60.546875 2.1796875 C61.36729279 2.1976387 62.18771057 2.2155899 63.0329895 2.23408508 C68.8523341 2.45880788 74.14212149 3.3645672 78.3671875 7.73046875 C80.19861901 11.08809319 80.61745524 14.29614267 80.7734375 18.08203125 C80.82856758 19.35065002 80.82856758 19.35065002 80.8848114 20.64489746 C80.93796257 22.01756775 80.93796257 22.01756775 80.9921875 23.41796875 C81.05289177 24.86266541 81.05289177 24.86266541 81.11482239 26.33654785 C81.2455973 29.4885084 81.36962157 32.64067887 81.4921875 35.79296875 C81.53443451 36.86409912 81.57668152 37.93522949 81.62020874 39.03881836 C81.8357792 44.5178795 82.04608994 49.99711001 82.25146484 55.4765625 C82.43518073 60.35860605 82.63499108 65.23975984 82.84231567 70.12084961 C82.97884851 73.41385172 83.10126367 76.70725341 83.21899414 80.00097656 C83.27559571 81.51486707 83.33766632 83.02856415 83.40551758 84.54199219 C84.04843825 99.08013763 84.04843825 99.08013763 80.4921875 105.79296875 C77.56848273 108.89093732 74.47730072 111.59215299 70.13671875 112.03125 C63.6125619 112.2022279 59.7042818 111.83500106 54.4921875 107.79296875 C47.32703873 99.4964807 49.20010929 86.77110708 48.93994141 76.3972168 C48.88818708 74.38710706 48.83089308 72.37714235 48.7734375 70.3671875 C48.74314453 69.17697998 48.71285156 67.98677246 48.68164062 66.76049805 C48.61532909 63.73715608 48.61532909 63.73715608 47.4921875 60.79296875 C40.56936503 67.69253319 33.64931128 74.59486164 26.73269558 81.5006485 C23.52031588 84.70782868 20.30702071 87.91407991 17.09155273 91.11816406 C13.98352616 94.215257 10.87800996 97.31484742 7.77415657 100.41612244 C6.59462032 101.5938232 5.41421018 102.77064944 4.23287773 103.94654846 C-4.16783881 112.30200849 -4.16783881 112.30200849 -12.04356384 121.15002441 C-15.53284941 125.06513947 -19.67506161 129.5307566 -25.08203125 130.03125 C-31.81291862 130.1917103 -36.24230185 130.18089429 -41.5078125 125.79296875 C-44.61373496 121.60229129 -46.29202132 117.1338462 -45.84562683 111.88647461 C-44.29761068 102.29309568 -36.13023658 95.92104404 -29.55078125 89.48046875 C-28.36162316 88.30133276 -27.17343233 87.12122057 -25.98616028 85.94018555 C-22.86899175 82.84386335 -19.74044629 79.75930867 -16.60882568 76.6776123 C-11.6054677 71.74974117 -6.6206594 66.803091 -1.63402748 61.85830688 C0.09703013 60.14475599 1.83234225 58.43561765 3.56855774 56.72729492 C8.61114655 51.75309717 13.57653712 46.76570998 18.15727234 41.35424805 C19.83362633 39.39363148 21.63198608 37.57876211 23.4921875 35.79296875 C19.33819743 35.01945371 15.35521585 34.64060099 11.1328125 34.546875 C9.93398438 34.51400391 8.73515625 34.48113281 7.5 34.44726562 C5.01050022 34.38645144 2.52091287 34.32911493 0.03125 34.27539062 C-17.15961211 33.78764133 -17.15961211 33.78764133 -23.4453125 30.04296875 C-27.98434782 25.09129385 -29.01959686 20.75376811 -28.79296875 14.19140625 C-28.24289757 9.56478018 -26.50230053 6.78745678 -23.2578125 3.54296875 C-15.88668043 -1.14775166 -8.44415975 -0.34292639 0 0 Z " fill="#000000" transform="translate(317.5078125,111.20703125)"/>
</svg>
