<svg xmlns="http://www.w3.org/2000/svg" version="1.1" width="256" height="256">
<path d="M0 0 C4.28590933 2.79515826 7.22425239 5.92275717 8.875 10.875 C8.95981773 13.46130224 8.99098229 16.01978056 8.97265625 18.60546875 C8.9712413 19.35588943 8.96982635 20.10631012 8.96836853 20.87947083 C8.9627756 23.2738546 8.95022444 25.66814453 8.9375 28.0625 C8.93248408 29.68684761 8.92792134 31.31119668 8.92382812 32.93554688 C8.9136598 36.91542975 8.89408312 40.89510993 8.875 44.875 C16.795 44.875 24.715 44.875 32.875 44.875 C32.84019531 42.49023438 32.80539063 40.10546875 32.76953125 37.6484375 C32.74609914 35.32504472 32.72790345 33.00166537 32.71020508 30.67822266 C32.69516824 29.07008928 32.67473328 27.46199656 32.64868164 25.85400391 C32.61207178 23.53537936 32.59522278 21.21729951 32.58203125 18.8984375 C32.56654739 18.18569672 32.55106354 17.47295593 32.53511047 16.73861694 C32.53331483 11.34793683 33.70327268 7.2559823 37.375 3.23046875 C42.33924803 -0.63492229 45.59299659 -1.55089854 51.875 -1.125 C57.1340971 0.76827496 59.66508594 3.47283215 62.875 7.875 C64.07661511 11.47984534 64.10517136 14.84789857 64.19140625 18.60546875 C64.21218735 19.35588943 64.23296844 20.10631012 64.25437927 20.87947083 C64.31969926 23.27372184 64.37867792 25.66808139 64.4375 28.0625 C64.48070193 29.68686013 64.52431676 31.31120933 64.56835938 32.93554688 C64.67536263 36.91525371 64.77667937 40.89506958 64.875 44.875 C65.56062012 45.19533203 66.24624023 45.51566406 66.95263672 45.84570312 C67.85256348 46.27818359 68.75249023 46.71066406 69.6796875 47.15625 C70.57155762 47.57970703 71.46342773 48.00316406 72.38232422 48.43945312 C76.42235059 50.76612845 78.4600954 53.46049764 79.875 57.875 C80.80375272 64.06668478 80.94149595 69.89383008 77.75 75.4375 C75.22593862 78.82920748 72.61567 80.92334609 68.875 82.875 C67.885 82.875 66.895 82.875 65.875 82.875 C65.9064209 84.28023926 65.9064209 84.28023926 65.93847656 85.71386719 C66.00735636 89.24766213 66.05713653 92.78072613 66.09472656 96.31494141 C66.11462882 97.83361185 66.14176104 99.35220788 66.17675781 100.87060547 C66.51122424 115.77403595 64.13966269 127.37930192 53.875 138.875 C43.07061243 148.875 43.07061243 148.875 36.875 148.875 C36.92140625 149.75542969 36.9678125 150.63585937 37.015625 151.54296875 C37.05171875 152.70441406 37.0878125 153.86585938 37.125 155.0625 C37.17140625 156.21105469 37.2178125 157.35960937 37.265625 158.54296875 C36.7898105 162.60166644 35.89172068 164.14296985 32.875 166.875 C30.88728059 167.27510331 28.88606057 167.61664653 26.875 167.875 C26.89444781 173.60485787 26.94624934 179.3331858 27.02758789 185.0625 C27.05073395 187.01000627 27.06515563 188.95763711 27.07055664 190.90527344 C27.07987109 193.71107302 27.12091506 196.51492254 27.16796875 199.3203125 C27.1640361 200.18616974 27.16010345 201.05202698 27.15605164 201.94412231 C27.25688081 206.15527159 27.54437735 209.01768981 30.2121582 212.38037109 C33.45408453 215.41750351 35.48576433 216.24265249 39.875 216.875 C42.71375957 216.53160166 45.14474463 216.10154654 47.875 215.375 C48.61339111 215.18776367 49.35178223 215.00052734 50.11254883 214.80761719 C63.34214423 211.3031261 77.29975516 205.8249728 88.0390625 197.12109375 C89.875 195.875 89.875 195.875 93.5625 196.125 C96.875 196.875 96.875 196.875 97.875 197.875 C98.5625 201 98.5625 201 97.875 204.875 C94.95460975 207.85567353 91.469751 209.79594625 87.875 211.875 C86.25851563 212.85146484 86.25851563 212.85146484 84.609375 213.84765625 C69.53828809 222.6181357 48.09052828 231.69103505 30.4296875 227.26171875 C24.48143602 224.61416368 19.8455699 219.55375414 16.796875 213.86230469 C15.46767605 209.55508056 15.62912041 205.46162578 15.6796875 200.98046875 C15.6825174 200.03311356 15.68534729 199.08575836 15.68826294 198.10969543 C15.69942813 195.09383334 15.72452611 192.07827184 15.75 189.0625 C15.76003453 187.01367617 15.76915955 184.96484768 15.77734375 182.91601562 C15.79935551 177.90222852 15.83386029 172.88866517 15.875 167.875 C14.76995117 167.75406982 13.66490234 167.63313965 12.52636719 167.50854492 C8.875 166.875 8.875 166.875 6.453125 164.73828125 C4.52691422 161.24344833 4.46483694 159.02653583 4.625 155.0625 C4.66109375 153.90105469 4.6971875 152.73960937 4.734375 151.54296875 C4.78078125 150.66253906 4.8271875 149.78210938 4.875 148.875 C3.94558594 148.58109375 3.01617187 148.2871875 2.05859375 147.984375 C-1.53517755 146.73206696 -4.05813692 145.12820553 -7.125 142.875 C-7.9603125 142.27751953 -7.9603125 142.27751953 -8.8125 141.66796875 C-17.00672007 135.32110633 -22.27123124 126.01085191 -24.125 115.875 C-24.46956526 110.15851184 -24.41030772 104.47328942 -24.3125 98.75 C-24.29742062 97.20574227 -24.28373799 95.66147024 -24.27148438 94.1171875 C-24.23874857 90.36948985 -24.18714757 86.62233891 -24.125 82.875 C-24.88554688 82.75511719 -25.64609375 82.63523437 -26.4296875 82.51171875 C-31.25441486 81.37196432 -34.1291431 78.2028092 -37 74.375 C-39.04920335 67.99970068 -39.67849414 60.0498437 -36.625 53.875 C-32.8929247 49.39650964 -28.63896892 46.71298964 -23.125 44.875 C-23.11041748 43.87645996 -23.09583496 42.87791992 -23.08081055 41.84912109 C-23.02259932 38.12513394 -22.94536923 34.40173708 -22.86254883 30.67822266 C-22.82940637 29.0702476 -22.80134146 27.46215919 -22.77856445 25.85400391 C-22.74482033 23.53499295 -22.69249806 21.21701069 -22.63671875 18.8984375 C-22.63032883 18.18569672 -22.6239389 17.47295593 -22.61735535 16.73861694 C-22.46194728 11.39781381 -21.26951784 7.22615106 -17.625 3.23046875 C-11.9106359 -1.21899705 -7.01014748 -2.52365309 0 0 Z M-9.79418945 10.91918945 C-11.78700285 13.84790495 -11.49521591 16.75319195 -11.41796875 20.16796875 C-11.41372391 20.87399734 -11.40947906 21.58002594 -11.40510559 22.30744934 C-11.38833034 24.55952303 -11.35068243 26.81069742 -11.3125 29.0625 C-11.29745157 30.59048185 -11.28376344 32.11847776 -11.27148438 33.64648438 C-11.23843089 37.38966872 -11.18665832 41.13218196 -11.125 44.875 C-8.155 44.875 -5.185 44.875 -2.125 44.875 C-2.05082977 40.37267666 -1.9963895 35.87070909 -1.96020508 31.36791992 C-1.94512064 29.83628139 -1.92465022 28.30468602 -1.89868164 26.77319336 C-1.86228153 24.57134346 -1.84527087 22.37006467 -1.83203125 20.16796875 C-1.81654739 19.48349167 -1.80106354 18.79901459 -1.78511047 18.09379578 C-1.7840985 15.23357488 -1.82146663 13.32108436 -3.45581055 10.91918945 C-5.8323744 9.43249008 -7.4176256 9.43249008 -9.79418945 10.91918945 Z M45.20581055 10.91918945 C43.21299715 13.84790495 43.50478409 16.75319195 43.58203125 20.16796875 C43.58627609 20.87399734 43.59052094 21.58002594 43.59489441 22.30744934 C43.61166966 24.55952303 43.64931757 26.81069742 43.6875 29.0625 C43.70254843 30.59048185 43.71623656 32.11847776 43.72851562 33.64648438 C43.76156911 37.38966872 43.81334168 41.13218196 43.875 44.875 C46.845 44.875 49.815 44.875 52.875 44.875 C52.94917023 40.37267666 53.0036105 35.87070909 53.03979492 31.36791992 C53.05487936 29.83628139 53.07534978 28.30468602 53.10131836 26.77319336 C53.13771847 24.57134346 53.15472913 22.37006467 53.16796875 20.16796875 C53.18345261 19.48349167 53.19893646 18.79901459 53.21488953 18.09379578 C53.2159015 15.23357488 53.17853337 13.32108436 51.54418945 10.91918945 C49.1676256 9.43249008 47.5823744 9.43249008 45.20581055 10.91918945 Z M-25.125 57.875 C-27.62531654 61.62547482 -27.66103554 63.43356266 -27.125 67.875 C-24.37403236 71.56342038 -22.87910222 72.7500709 -18.29248047 73.50991821 C-16.77599893 73.53948008 -15.25882892 73.54169453 -13.7421875 73.52197266 C-12.91068176 73.53073425 -12.07917603 73.53949585 -11.22247314 73.54852295 C-8.4811138 73.57048239 -5.74137498 73.55597711 -3 73.5390625 C-1.09097993 73.54243164 0.81803805 73.54728508 2.72705078 73.55355835 C6.72514295 73.56092498 10.72267602 73.55023094 14.72070312 73.52685547 C19.84238181 73.49836778 24.96275047 73.51477288 30.0843811 73.54471779 C34.02557219 73.56279644 37.96645332 73.55703014 41.90765381 73.54407883 C43.79587967 73.54074638 45.6841338 73.54482622 47.57232666 73.55647659 C50.21303705 73.56919484 52.8516343 73.54979623 55.4921875 73.52197266 C56.27051941 73.53209381 57.04885132 73.54221497 57.85076904 73.55264282 C61.82581062 73.47515447 63.68626761 73.02136126 66.86376953 70.55722046 C69.14846908 67.94599295 69.14846908 67.94599295 69.4375 64.3125 C68.79628811 60.39398289 67.98000781 59.24941774 64.875 56.875 C61.75183469 55.31341734 58.42892995 55.7277237 55.00048828 55.72973633 C54.18732147 55.72637772 53.37415466 55.7230191 52.53634644 55.71955872 C49.83931972 55.7100342 47.142355 55.70810479 44.4453125 55.70703125 C42.57445245 55.7038195 40.70359266 55.70045549 38.83273315 55.69694519 C34.90687477 55.69095002 30.98103842 55.68910567 27.05517578 55.68969727 C22.02226604 55.68979886 16.98949746 55.67615093 11.95662117 55.65892506 C8.09104767 55.64781094 4.22550835 55.64577788 0.3599205 55.64630699 C-1.4956422 55.64512582 -3.35120576 55.6406964 -5.20675278 55.63297462 C-7.80183565 55.62318746 -10.3966115 55.62604782 -12.99169922 55.63208008 C-13.75963806 55.62646057 -14.5275769 55.62084106 -15.31878662 55.61505127 C-20.54500413 55.63840448 -20.54500413 55.63840448 -25.125 57.875 Z M-14.125 83.875 C-15.17234719 109.39544369 -15.17234719 109.39544369 -4.375 130.94140625 C2.60905516 137.67810946 11.23275336 141.10622172 20.875 141.5 C29.99089399 141.1373788 38.64870253 138.01440005 45.34765625 131.67578125 C57.49763278 117.3506171 55.875 102.52033552 55.875 83.875 C32.775 83.875 9.675 83.875 -14.125 83.875 Z M14.875 151.875 C14.875 153.525 14.875 155.175 14.875 156.875 C18.835 156.875 22.795 156.875 26.875 156.875 C26.875 155.225 26.875 153.575 26.875 151.875 C22.915 151.875 18.955 151.875 14.875 151.875 Z " fill="#cb2115" transform="translate(107.125,27.125)"/>
<path d="M0 0 C18.55446167 16.21470151 31.27262662 37.29775302 38.36328125 60.80859375 C38.56211914 61.46456543 38.76095703 62.12053711 38.96582031 62.79638672 C42.17158455 73.9945666 43.02233076 85.06961536 42.98828125 96.68359375 C42.98773743 97.38436035 42.9871936 98.08512695 42.9866333 98.80712891 C42.89439503 124.75191066 35.67240108 152.36437187 18.94921875 172.921875 C17.61328125 174.18359375 17.61328125 174.18359375 14.98828125 175.37109375 C11.86486016 175.12450787 10.67752342 174.55364957 8.61328125 172.18359375 C8.28779587 168.96392754 8.19115007 166.9151973 9.828125 164.078125 C10.39660156 163.39105469 10.96507812 162.70398438 11.55078125 161.99609375 C29.06251842 138.30374346 34.50343127 106.90760543 30.29296875 78.21484375 C25.48233306 48.40888728 8.83240701 21.1620102 -15.38671875 3.18359375 C-41.98814876 -15.70226998 -73.65426282 -22.83112551 -105.91796875 -18.125 C-110.49442423 -17.30540422 -114.94225053 -16.17472733 -119.38671875 -14.81640625 C-120.07475586 -14.60741699 -120.76279297 -14.39842773 -121.47167969 -14.18310547 C-133.26683979 -10.45699597 -144.10994907 -4.66758604 -154.38671875 2.18359375 C-156.88671875 2.55859375 -156.88671875 2.55859375 -159.38671875 2.18359375 C-161.68893869 0.1115958 -162.33050277 -1.10433717 -162.57421875 -4.19140625 C-158.59305291 -12.99187811 -144.52164538 -18.36291904 -135.90820312 -21.80761719 C-129.81350714 -24.08110821 -123.63707454 -26.02021182 -117.38671875 -27.81640625 C-116.14148438 -28.17992187 -114.89625 -28.5434375 -113.61328125 -28.91796875 C-73.77423906 -38.32807364 -30.79557093 -26.02203395 0 0 Z " fill="#cb2115" transform="translate(213.38671875,31.81640625)"/>
<path d="M0 0 C6.875 0.875 6.875 0.875 8 2 C8.80715295 7.89221655 6.43390525 11.19690369 3.375 15.9375 C-12.4317606 41.67572016 -17.81727541 73.97468443 -10.83618164 103.53125 C-8.01717738 114.34556437 -3.99095402 124.48105052 1.1875 134.375 C1.68685059 135.33067871 1.68685059 135.33067871 2.19628906 136.30566406 C3.89756246 139.42267051 4.98668982 140.99112654 8 143 C8.99 142.67 9.98 142.34 11 142 C18.63783927 141.01899312 24.76458893 142.41734849 31 147 C35.90497121 151.9646666 37.97385615 157.28685723 38.2265625 164.2265625 C37.69257369 170.76332201 35.45465766 176.07885971 30.5625 180.5 C24.31819316 185.48385511 17.71968533 185.80204523 10 185 C4.13421788 183.30757762 0.37035861 180.1036859 -3 175 C-6.15085124 168.61247668 -6.46398617 162.9236639 -5 156 C-4.59394531 155.01 -4.18789063 154.02 -3.76953125 153 C-2.68357802 150.04998423 -2.68357802 150.04998423 -4.0546875 147.60546875 C-4.65539062 146.80753906 -5.25609375 146.00960937 -5.875 145.1875 C-19.8677492 124.83190618 -25.4440812 101.39364052 -25.375 76.9375 C-25.37445618 76.21111328 -25.37391235 75.48472656 -25.37335205 74.73632812 C-25.33333563 63.08866709 -24.45886156 52.17154374 -21 41 C-20.78569336 40.28005859 -20.57138672 39.56011719 -20.35058594 38.81835938 C-16.04038231 24.62668455 -9.77988086 11.27742512 0 0 Z M8 156 C5.84510584 159.23234123 4.98295325 161.16470921 5.0625 165.0625 C6.14143072 168.44314959 7.57606399 170.42915878 10 173 C13.20860529 174.60430264 16.5190457 174.48105318 20 174 C23.09251553 172.18482784 24.58688714 170.71355858 26.375 167.625 C27.17298003 164.27348387 27.03027506 162.29688018 26 159 C22.94044414 155.46974324 20.91062498 153.16983333 16.1875 152.75 C12.49460759 153.03963862 10.86914401 153.67366702 8 156 Z " fill="#cb2115" transform="translate(25,52)"/>
<path d="M0 0 C1.8125 1.0625 1.8125 1.0625 3.3125 3.75 C3.8125 7.0625 3.8125 7.0625 2.0625 10.25 C1.32 11.178125 0.5775 12.10625 -0.1875 13.0625 C-1.1775 14.5475 -1.1775 14.5475 -2.1875 16.0625 C-1.383125 16.371875 -0.57875 16.68125 0.25 17 C2.8125 18.0625 2.8125 18.0625 3.8125 19.0625 C4.68289379 25.82824143 2.11051904 30.19167137 -1.25 35.9375 C-1.71599609 36.80375 -2.18199219 37.67 -2.66210938 38.5625 C-6.24144019 44.77641309 -6.24144019 44.77641309 -10.93359375 46.1953125 C-14.1875 46.0625 -14.1875 46.0625 -16.1875 45.0625 C-17.82155335 41.79439331 -17.05841215 39.54614859 -16.1875 36.0625 C-14.99933196 33.59513491 -13.65655028 31.38454722 -12.1875 29.0625 C-13.321875 28.753125 -14.45625 28.44375 -15.625 28.125 C-19.1875 27.0625 -19.1875 27.0625 -20.1875 26.0625 C-20.6912079 22.64604642 -20.77473836 20.10391288 -19.04541016 17.03710938 C-17.44313634 14.88160246 -15.75669281 12.84397216 -14 10.8125 C-13.42185547 10.10609375 -12.84371094 9.3996875 -12.24804688 8.671875 C-5.10260525 0.14578872 -5.10260525 0.14578872 0 0 Z " fill="#cb2115" transform="translate(136.1875,111.9375)"/>
<path d="M0 0 C1.32 6.36 1.32 6.36 0 9 C-3.11708365 10.55854182 -5.6858308 9.68784644 -9 9 C-10.32 2.64 -10.32 2.64 -9 0 C-5.88291635 -1.55854182 -3.3141692 -0.68784644 0 0 Z " fill="#cb2115" transform="translate(45,38)"/>
<path d="M0 0 C1 1 1 1 1.1875 4.4375 C1 8 1 8 -1 10 C-3.9375 10.4375 -3.9375 10.4375 -7 10 C-9 7.8125 -9 7.8125 -10 5 C-9.3125 2.25 -9.3125 2.25 -8 0 C-5.11795733 -1.44102133 -3.08226581 -0.65580124 0 0 Z " fill="#cb2115" transform="translate(219,211)"/>
</svg>