<svg xmlns="http://www.w3.org/2000/svg" version="1.1" width="256" height="256">
<path d="M0 0 C1.258125 -0.02900391 2.51625 -0.05800781 3.8125 -0.08789062 C5.01648438 -0.09626953 6.22046875 -0.10464844 7.4609375 -0.11328125 C8.57001465 -0.12786377 9.6790918 -0.14244629 10.82177734 -0.1574707 C13.625 0.3125 13.625 0.3125 15.51025391 2.21411133 C16.625 4.3125 16.625 4.3125 16.625 6.3125 C17.92050781 6.47105469 17.92050781 6.47105469 19.2421875 6.6328125 C32.32630461 9.26172287 44.27167813 19.88511598 51.5625 30.6875 C55.87019877 38.04210766 59.15173706 45.95191538 60.5625 54.375 C61.23997456 57.95128399 61.43263557 58.16515703 64.5625 60.5625 C65.573125 61.14 66.58375 61.7175 67.625 62.3125 C71.28147196 66.59939816 71.9008331 71.82091382 71.625 77.3125 C70.38060526 81.62002024 68.83223801 84.52167692 65.04296875 87.00390625 C61.56192681 90.32748588 61.79006385 93.23527917 61.5625 97.875 C60.96373098 105.26153855 59.82291462 111.5484898 56.625 118.3125 C56.191875 119.23417969 55.75875 120.15585938 55.3125 121.10546875 C51.95641492 127.71732115 47.78408382 133.00938085 42.625 138.3125 C45.37471932 140.14564621 48.15318494 141.58644744 51.12060547 143.02709961 C62.39982827 148.51152794 71.44279991 154.68621599 80.625 163.3125 C84.6624469 161.92077683 87.52315847 160.01961315 90.8125 157.3125 C91.67230469 156.61125 92.53210938 155.91 93.41796875 155.1875 C95.64296735 153.34858063 95.64296735 153.34858063 97.625 151.3125 C100.8125 150.75 100.8125 150.75 104.625 151.3125 C106.4200808 152.78538681 107.86822469 154.44981247 109.42578125 156.171875 C118.16551153 164.67875279 129.4808819 169.6422034 141.1875 172.4375 C144.625 173.3125 144.625 173.3125 146.625 175.3125 C146.8573411 177.75962512 146.95727667 180.05199211 146.9375 182.5 C146.93258545 183.21325439 146.9276709 183.92650879 146.92260742 184.66137695 C146.38285519 209.75847186 134.42495203 231.00820665 117.5 248.75 C112.52292451 253.51195631 108.42656039 256.47788374 101.3125 256.9375 C95.00446915 256.7032265 90.5144147 254.15895081 85.625 250.3125 C84.93959137 249.4626503 84.25418274 248.6128006 83.54800415 247.73719788 C79.52345639 244.39874473 76.64264684 244.62721351 71.56787109 244.71655273 C70.66487778 244.7124942 69.76188446 244.70843567 68.83152771 244.70425415 C66.87595991 244.69874364 64.92033324 244.70472652 62.96482468 244.72091484 C59.87152243 244.74631476 56.77955385 244.74154436 53.68618774 244.72901917 C47.1239785 244.70827101 40.56218208 244.72797001 34 244.75 C26.38914296 244.77108232 18.77871345 244.77573434 11.16786575 244.74949837 C8.11692861 244.74612799 5.06680149 244.76738978 2.01596069 244.78990173 C0.15175193 244.78739145 -1.71245583 244.7838324 -3.57666016 244.77905273 C-4.42763779 244.79193832 -5.27861542 244.80482391 -6.15538025 244.81809998 C-11.87129012 244.76906014 -11.87129012 244.76906014 -14.43270874 242.44740295 C-15.68133865 239.61844359 -15.43503189 238.18972941 -14.375 235.3125 C-10.66776473 232.84100982 -7.79974044 233.00591856 -3.50708008 232.99365234 C-2.30673378 232.97858391 -2.30673378 232.97858391 -1.08213806 232.96321106 C1.56372355 232.93231264 4.20948367 232.91532553 6.85546875 232.8984375 C8.68965024 232.8797312 10.52382308 232.86015819 12.35798645 232.8397522 C17.18629867 232.78836814 22.01463881 232.74877603 26.84307861 232.71160889 C31.76980532 232.67160854 36.69641525 232.62049811 41.62304688 232.5703125 C51.29028263 232.47347895 60.95758422 232.38909796 70.625 232.3125 C70.08085449 231.38671143 69.53670898 230.46092285 68.97607422 229.50708008 C68.2520109 228.26138606 67.52823046 227.01552758 66.8046875 225.76953125 C66.44721436 225.16306763 66.08974121 224.556604 65.72143555 223.9317627 C58.76437082 211.90233634 55.26090415 198.78582618 55.3125 184.9375 C55.28833008 183.60525391 55.28833008 183.60525391 55.26367188 182.24609375 C55.26302734 181.39402344 55.26238281 180.54195312 55.26171875 179.6640625 C55.25873779 178.89916504 55.25575684 178.13426758 55.25268555 177.34619141 C55.72427807 174.77021388 56.58323354 173.90566417 58.625 172.3125 C61.10546875 171.58203125 61.10546875 171.58203125 63.8125 171.125 C64.71355469 170.96644531 65.61460937 170.80789062 66.54296875 170.64453125 C67.23003906 170.53496094 67.91710937 170.42539063 68.625 170.3125 C68.625 169.6525 68.625 168.9925 68.625 168.3125 C62.96068712 162.95564461 56.56789329 158.80071692 49.625 155.3125 C49.53863281 156.20710937 49.45226562 157.10171875 49.36328125 158.0234375 C47.82814045 171.23409874 43.05911974 180.87838026 33.625 190.3125 C30.82202148 190.72729492 30.82202148 190.72729492 27.625 190.3125 C25.03540039 188.37231445 25.03540039 188.37231445 22.47265625 185.67578125 C22.00943466 185.19932663 21.54621307 184.72287201 21.06895447 184.23197937 C19.59352749 182.70990521 18.13988491 181.16904846 16.6875 179.625 C15.23551069 178.10233543 13.77915998 176.58424556 12.3167572 175.07157898 C10.98362347 173.68944861 9.66340876 172.29489115 8.34399414 170.8996582 C5.28036937 167.98457948 2.11203572 165.69833827 -1.375 163.3125 C-2.12595947 164.09488037 -2.87691895 164.87726074 -3.65063477 165.68334961 C-6.45121025 168.59284533 -9.2718604 171.48217524 -12.09887695 174.3659668 C-13.31762924 175.61481972 -14.53093335 176.86901445 -15.73852539 178.12866211 C-17.4794499 179.94269255 -19.23932644 181.73635187 -21.00390625 183.52734375 C-21.53649551 184.09090073 -22.06908478 184.6544577 -22.61781311 185.23509216 C-26.29365762 188.91414014 -28.96055415 190.2772439 -34.375 190.3125 C-44.57367835 182.85005243 -49.15901114 169.31201689 -51.078125 157.3671875 C-51.22507812 156.35011719 -51.22507812 156.35011719 -51.375 155.3125 C-59.15658033 159.91339636 -65.925101 164.97361476 -72.375 171.3125 C-72.98988281 171.91449219 -73.60476562 172.51648438 -74.23828125 173.13671875 C-86.98631916 186.64670835 -96.94924251 208.3198884 -97.75 226.9375 C-97.62625 228.05125 -97.5025 229.165 -97.375 230.3125 C-94.34718443 232.33104371 -93.72079751 232.56626712 -90.31835938 232.61547852 C-89.50741821 232.63212051 -88.69647705 232.64876251 -87.86096191 232.66590881 C-86.98903198 232.67432297 -86.11710205 232.68273712 -85.21875 232.69140625 C-84.32007202 232.70840073 -83.42139404 232.7253952 -82.4954834 232.74290466 C-79.62206048 232.79606018 -76.7486516 232.83633563 -73.875 232.875 C-71.00142297 232.91894657 -68.12795715 232.96568029 -65.2545166 233.01780701 C-63.46610859 233.04972282 -61.6776027 233.07662576 -59.88903809 233.09803772 C-58.67262634 233.11827248 -58.67262634 233.11827248 -57.43164062 233.13891602 C-56.71899048 233.14842789 -56.00634033 233.15793976 -55.27209473 233.16773987 C-53.375 233.3125 -53.375 233.3125 -50.375 234.3125 C-48.99374982 237.07500036 -49.18420694 239.25981099 -49.375 242.3125 C-51.77548184 244.71298184 -52.32958058 244.57062442 -55.60595703 244.60302734 C-56.48091827 244.61578705 -57.35587952 244.62854675 -58.25735474 244.64169312 C-59.2062558 244.64391876 -60.15515686 244.64614441 -61.1328125 244.6484375 C-62.59834061 244.6584227 -62.59834061 244.6584227 -64.09347534 244.66860962 C-66.16646438 244.67875138 -68.23948617 244.68342617 -70.3125 244.68310547 C-73.46670485 244.6874541 -76.61948272 244.72368954 -79.7734375 244.76171875 C-81.78905773 244.76759169 -83.80468459 244.77155789 -85.8203125 244.7734375 C-86.75706818 244.78780853 -87.69382385 244.80217957 -88.65896606 244.81698608 C-94.72099705 244.77525622 -99.32187335 243.77830496 -104.375 240.3125 C-108.99597604 235.45455083 -109.79206929 231.35566895 -109.71484375 224.8515625 C-107.19974021 198.65979457 -93.2183802 172.37084438 -73.375 155.3125 C-53.85445205 140.3125 -53.85445205 140.3125 -43.375 140.3125 C-44.09945312 139.38050781 -44.82390625 138.44851562 -45.5703125 137.48828125 C-51.70294192 129.45808801 -56.75445639 121.81479316 -60.375 112.3125 C-60.77138672 111.29349609 -60.77138672 111.29349609 -61.17578125 110.25390625 C-63.27826901 103.60317967 -62.53671905 96.2125128 -62.375 89.3125 C-62.97957031 89.04308594 -63.58414063 88.77367188 -64.20703125 88.49609375 C-68.29243096 86.26568634 -70.92214266 82.67107201 -72.375 78.3125 C-73.15014301 71.75555257 -72.25212917 67.65665102 -68.375 62.3125 C-64.06730769 58.3125 -64.06730769 58.3125 -61.375 58.3125 C-61.36082031 57.74144531 -61.34664062 57.17039063 -61.33203125 56.58203125 C-60.43464868 41.32652762 -52.57400559 28.60995426 -41.69921875 18.2265625 C-34.71447741 12.47442257 -27.22384994 7.88902601 -18.30078125 6.078125 C-16.18858812 5.46416882 -16.18858812 5.46416882 -15.16796875 3.296875 C-14.90628906 2.64203125 -14.64460938 1.9871875 -14.375 1.3125 C-11.65679581 -1.40570419 -3.65813227 0.02793889 0 0 Z M-6.375 10.3125 C-6.41238281 11.91996094 -6.44976562 13.52742187 -6.48828125 15.18359375 C-6.84871001 27.84953067 -7.6978127 39.91595879 -10.375 52.3125 C-10.705 53.9625 -11.035 55.6125 -11.375 57.3125 C-3.785 57.3125 3.805 57.3125 11.625 57.3125 C10.985625 54.425 10.34625 51.5375 9.6875 48.5625 C7.80234284 39.58260914 7.05199032 30.82525047 6.80078125 21.66796875 C6.68996201 17.81298174 6.2497469 14.11685307 5.625 10.3125 C1.665 10.3125 -2.295 10.3125 -6.375 10.3125 Z M16.625 17.3125 C17.06251602 31.4638801 17.97244957 44.12321566 23.625 57.3125 C32.205 57.3125 40.785 57.3125 49.625 57.3125 C45.44162533 40.57900134 39.20148512 30.05670385 24.8984375 20.5390625 C22.22608053 19.09727541 19.52317412 18.20105195 16.625 17.3125 Z M-36.1171875 28.984375 C-43.40548174 36.49964034 -50.375 46.49804417 -50.375 57.3125 C-41.465 57.3125 -32.555 57.3125 -23.375 57.3125 C-17.65040543 43.95511267 -16.93342 31.59025329 -17.375 17.3125 C-24.15359238 17.3125 -31.59000262 24.69845076 -36.1171875 28.984375 Z M-61.375 71.3125 C-61.45833333 74.89583333 -61.45833333 74.89583333 -60.375 78.3125 C-57.49552541 80.26660529 -55.10471321 80.56710595 -51.67567444 80.58665466 C-50.73501633 80.59662979 -49.79435822 80.60660492 -48.82519531 80.61688232 C-47.28762573 80.61787933 -47.28762573 80.61787933 -45.71899414 80.61889648 C-44.09156532 80.63138176 -44.09156532 80.63138176 -42.43125916 80.64411926 C-38.84085515 80.66823678 -35.25063269 80.67699293 -31.66015625 80.68359375 C-29.16678309 80.69255758 -26.67341048 80.70167938 -24.18003845 80.71095276 C-18.95213067 80.72744926 -13.72426729 80.73517738 -8.49633789 80.73803711 C-3.12539095 80.74127181 2.24514903 80.76242652 7.6159668 80.79956055 C14.09805122 80.84370912 20.57975193 80.86349985 27.06198311 80.86476326 C29.53357259 80.86897453 32.00516216 80.88144484 34.4766674 80.90228081 C37.93143034 80.92909125 41.3847863 80.92439978 44.83959961 80.91186523 C46.37413284 80.93411667 46.37413284 80.93411667 47.93966675 80.95681763 C52.68379317 80.90772273 54.90379341 80.85088873 58.79908752 77.94300842 C60.8804115 75.47822594 60.8804115 75.47822594 60.625 72.625 C59.7358717 69.99386031 59.7358717 69.99386031 56.625 68.3125 C54.40817429 68.00911385 54.40817429 68.00911385 51.9185791 68.05180359 C50.95116287 68.04471878 49.98374664 68.03763397 48.98701477 68.03033447 C47.9271788 68.03281189 46.86734283 68.03528931 45.77539062 68.0378418 C44.65811081 68.03273087 43.54083099 68.02761993 42.38969421 68.02235413 C38.68682539 68.00842396 34.98414195 68.00941734 31.28125 68.01171875 C28.71439545 68.00783404 26.14754154 68.00349984 23.58068848 67.99873352 C18.1971603 67.99126416 12.81370436 67.99143025 7.43017578 67.99682617 C1.20496474 68.00286967 -5.02002049 67.99054588 -11.245193 67.9692561 C-17.23224006 67.94953271 -23.21916861 67.94646423 -29.20625305 67.94999123 C-31.75483226 67.94947653 -34.30341497 67.94421115 -36.85197449 67.93417931 C-40.40995878 67.92189242 -43.96741527 67.92856001 -47.52539062 67.94018555 C-48.58522659 67.93254181 -49.64506256 67.92489807 -50.73701477 67.91702271 C-51.704431 67.92403702 -52.67184723 67.93105133 -53.6685791 67.9382782 C-54.50996681 67.93811046 -55.35135452 67.93794271 -56.21823883 67.93776989 C-58.90211707 68.40408484 -59.81082456 69.10111931 -61.375 71.3125 Z M-51.375 91.3125 C-51.375 109.27262765 -45.46828273 120.91004658 -33.23046875 133.546875 C-24.52343842 141.97994952 -13.24643696 148.77209383 -0.87109375 149.4453125 C13.61028459 148.67478533 25.68791656 140.2198218 35.625 130.3125 C45.93273722 118.67635945 50.625 106.69080149 50.625 91.3125 C16.965 91.3125 -16.695 91.3125 -51.375 91.3125 Z M-38.375 149.3125 C-40.53487996 153.63225993 -39.82878192 158.66585571 -38.5859375 163.17578125 C-36.91740159 167.88207146 -35.03460275 172.07542513 -32.375 176.3125 C-29.2554428 174.92564777 -27.11644201 173.31060509 -24.703125 170.90625 C-24.03925781 170.24496094 -23.37539062 169.58367187 -22.69140625 168.90234375 C-22.00949219 168.21269531 -21.32757813 167.52304688 -20.625 166.8125 C-19.92761719 166.12285156 -19.23023437 165.43320313 -18.51171875 164.72265625 C-17.52365234 163.73072266 -17.52365234 163.73072266 -16.515625 162.71875 C-15.61118652 161.81092773 -15.61118652 161.81092773 -14.68847656 160.88476562 C-13.16129279 159.39813968 -13.16129279 159.39813968 -13.375 157.3125 C-14.17164062 156.99796875 -14.96828125 156.6834375 -15.7890625 156.359375 C-25.50704643 152.43434986 -25.50704643 152.43434986 -28.875 150 C-32.34157589 147.66006127 -34.49215785 148.01821928 -38.375 149.3125 Z M23.203125 152.67578125 C19.5312645 155.00685633 15.63917011 156.66416928 11.625 158.3125 C12.30949219 158.99699219 12.99398437 159.68148437 13.69921875 160.38671875 C19.0078125 165.6953125 24.31640625 171.00390625 29.625 176.3125 C35.40718885 171.12581897 37.15778393 165.81651473 38.625 158.3125 C38.65146051 155.09754819 38.26976395 152.48258943 37.625 149.3125 C31.36162207 147.40625454 28.53424184 149.16803719 23.203125 152.67578125 Z M100.625 164.3125 C99.76519531 164.96476563 98.90539062 165.61703125 98.01953125 166.2890625 C88.34909578 173.4905386 78.53244619 179.54332647 66.625 182.3125 C65.68711165 201.90394552 73.44420734 218.30614335 85.625 233.3125 C86.29660156 234.1478125 86.96820313 234.983125 87.66015625 235.84375 C91.51797747 240.42258983 94.94228262 244.20778986 100.625 246.3125 C114.15172198 240.94532881 123.57417677 225.15795269 129.5625 212.5 C133.7428087 202.55884187 135.81428824 193.10192989 135.625 182.3125 C134.69300781 182.044375 133.76101562 181.77625 132.80078125 181.5 C120.57395436 177.80742081 110.97217127 171.76246331 100.625 164.3125 Z " fill="#cb1125" transform="translate(109.375,-0.3125)"/>
<path d="M0 0 C2.5 0.375 2.5 0.375 4.3125 1.5625 C5.94132457 4.04860066 5.85145891 5.43474616 5.5 8.375 C3.84765625 10.69921875 3.84765625 10.69921875 1.5625 13.0625 C0.74910156 13.92101562 -0.06429687 14.77953125 -0.90234375 15.6640625 C-1.75957031 16.55867188 -2.61679688 17.45328125 -3.5 18.375 C-5.17287611 20.22356629 -6.83985191 22.07749459 -8.5 23.9375 C-12.37692308 28.25192308 -12.37692308 28.25192308 -13.5 29.375 C-19.5429509 29.375 -23.06452938 27.10436404 -27.66796875 23.28515625 C-29.5 21.375 -29.5 21.375 -30.6875 18.125 C-30.5 15.375 -30.5 15.375 -28.5 12.375 C-23.36683698 11.79388721 -20.75005931 12.60990117 -16.5 15.375 C-15.74074219 14.54355469 -14.98148438 13.71210938 -14.19921875 12.85546875 C-13.19534886 11.75777925 -12.1914406 10.66012484 -11.1875 9.5625 C-10.68798828 9.01529297 -10.18847656 8.46808594 -9.67382812 7.90429688 C-8.28777469 6.38973517 -6.89413878 4.88212253 -5.5 3.375 C-4.93925781 2.76011719 -4.37851563 2.14523438 -3.80078125 1.51171875 C-2.5 0.375 -2.5 0.375 0 0 Z " fill="#cb1125" transform="translate(224.5,190.625)"/>
<path d="M0 0 C2 3 2 3 1.75 6.125 C1.5025 7.07375 1.255 8.0225 1 9 C-1.76250036 10.38125018 -3.94731099 10.19079306 -7 10 C-9 8 -9 8 -9.375 5.0625 C-9 2 -9 2 -7.3125 0.0625 C-4.36948861 -1.28969442 -3.01471387 -1.11068406 0 0 Z " fill="#cb1125" transform="translate(81,234)"/>
</svg>