<svg xmlns="http://www.w3.org/2000/svg" version="1.1" width="256" height="256">
<path d="M0 0 C1.10730469 0.53238281 2.21460937 1.06476562 3.35546875 1.61328125 C9.59782874 4.79441612 14.92966324 8.16549285 20 13 C19.125 17.875 19.125 17.875 18 19 C15.25591954 19.26570395 13.57253622 19.34721552 11.18359375 17.8984375 C10.60738281 17.39570313 10.03117187 16.89296875 9.4375 16.375 C0.89593112 9.54821578 -9.00765517 4.84690328 -20 5 C-19.64921387 5.47606689 -19.29842773 5.95213379 -18.93701172 6.44262695 C-17.86881561 7.89232168 -16.80125221 9.34248271 -15.73413086 10.79296875 C-14.48166606 12.49033405 -13.22456516 14.18428702 -11.96313477 15.875 C-8.66359182 20.31097483 -5.45553716 24.77181484 -2.41015625 29.38671875 C4.06413014 39.85771599 4.06413014 39.85771599 14.4375 45.5 C16.62128786 45.70977273 18.80979073 45.87383587 21 46 C23.74598925 46.4639404 26.46344222 47.04773353 29.1875 47.625 C30.43917969 47.86476562 31.69085938 48.10453125 32.98046875 48.3515625 C36 49 36 49 38 50 C33.75127462 43.27494651 29.44635898 36.59624684 25 30 C25.66 28.68 26.32 27.36 27 26 C31.47996183 25.62666985 31.47996183 25.62666985 33.703125 27.22265625 C38.01188518 32.34746949 41.44579865 37.80463922 44.71582031 43.63110352 C47.04357988 47.70997793 49.50608038 50.79246723 53 54 C53.50176758 54.46704346 54.00353516 54.93408691 54.52050781 55.4152832 C56.10920725 56.89074762 57.70898378 58.35316386 59.3125 59.8125 C59.86228516 60.31458984 60.41207031 60.81667969 60.97851562 61.33398438 C62.31805239 62.55703968 63.65888992 63.77867008 65 65 C64.96519531 63.90042969 64.93039063 62.80085938 64.89453125 61.66796875 C64.57764085 47.47385257 66.43867752 34.6056115 76.33203125 23.5859375 C86.33641341 14.07357413 102.6207109 3.33481578 116.875 2.875 C117.90625 2.91625 118.9375 2.9575 120 3 C129.68513659 20.88929355 136.20389659 39.49821644 131 60 C125.31679953 76.36000806 111.02595366 85.23830119 96.296875 92.51953125 C93.23602575 93.89401213 90.20188704 95.00547448 87 96 C87.96038295 101.29211023 89.53770479 106.37555404 91.0625 111.52734375 C95.75815635 128.92083749 94.75847544 149.95851173 89 167 C88.5875 168.25167969 88.175 169.50335938 87.75 170.79296875 C78.97413646 195.63921157 60.43381957 215.37957054 36.97314453 227.10058594 C12.14632955 238.41733753 -16.53247501 239.71074822 -42.30078125 230.8671875 C-45.27867592 229.70074886 -48.12897049 228.40805955 -51 227 C-52.06734375 226.48566406 -53.1346875 225.97132813 -54.234375 225.44140625 C-62.00020503 221.49468746 -68.55036032 216.83941176 -75 211 C-75.91652344 210.17757812 -76.83304688 209.35515625 -77.77734375 208.5078125 C-94.79653964 192.41954037 -107.19032082 168.89482894 -108.10839844 145.20263672 C-108.17008506 141.94689783 -108.18560349 138.69380223 -108.1875 135.4375 C-108.19974609 134.32697266 -108.21199219 133.21644531 -108.22460938 132.07226562 C-108.23429846 126.67544451 -108.23524591 122.02709456 -106 117 C-103.625 116.375 -103.625 116.375 -101 116 C-99 118 -99 118 -98.83642578 120.60351562 C-98.8723584 121.69341797 -98.90829102 122.78332031 -98.9453125 123.90625 C-98.97286621 125.11659912 -99.00041992 126.32694824 -99.02880859 127.57397461 C-99.06055176 128.86956299 -99.09229492 130.16515137 -99.125 131.5 C-99.39978835 155.64739575 -93.30879353 174.45775768 -79 194 C-78.43667969 194.77085937 -77.87335938 195.54171875 -77.29296875 196.3359375 C-63.6320256 213.28242394 -41.23432152 223.87803634 -20 227 C7.28949416 228.90262999 30.56523423 223.36660448 52 206 C52.77730469 205.38640625 53.55460938 204.7728125 54.35546875 204.140625 C71.09182688 190.19846091 80.85719899 169.26767624 84 148 C85.91053906 120.59706569 80.29309356 97.57104962 63 76 C62.49855469 75.34644531 61.99710938 74.69289063 61.48046875 74.01953125 C57.80573247 69.43370333 53.32010442 64.58140719 48 62 C43.95832455 62.90578507 41.72758592 64.96934897 39 68 C39.54527344 68.40089844 40.09054688 68.80179687 40.65234375 69.21484375 C58.50471009 82.67278145 70.56922283 100.665926 74 123 C75.84079214 146.47163546 72.11448818 168.75448039 56.5703125 187.19140625 C56.05210937 187.78824219 55.53390625 188.38507813 55 189 C54.236875 190.010625 53.47375 191.02125 52.6875 192.0625 C40.2845611 205.61920066 22.27583445 214.83691815 4 217 C0.24896963 217.16032867 -3.49591925 217.18505594 -7.25 217.1875 C-8.25546875 217.19974609 -9.2609375 217.21199219 -10.296875 217.22460938 C-11.2559375 217.22654297 -12.215 217.22847656 -13.203125 217.23046875 C-14.07614258 217.23457764 -14.94916016 217.23868652 -15.84863281 217.24291992 C-18 217 -18 217 -20 215 C-19.44444444 210.44444444 -19.44444444 210.44444444 -18 209 C-16.59198265 208.87898095 -15.17848604 208.82040191 -13.765625 208.7890625 C8.84517023 208.12275705 28.42634784 203.00517637 45.203125 186.8828125 C59.45221947 171.60038675 65.42079445 153.99521405 65.125 133.4375 C65.11597656 132.23802734 65.10695312 131.03855469 65.09765625 129.80273438 C65.07427412 126.86827691 65.0415028 123.93424766 65 121 C54.34043234 126.99710061 54.34043234 126.99710061 48 137 C47.67865711 142.59514681 47.97600471 148.07377302 48.6875 153.625 C49.47497227 161.76607356 46.80408819 167.80577609 41.73046875 174.08203125 C36.09768576 180.32513835 30.37077266 185.56174215 21.671875 186.16015625 C17.21127175 185.97552863 15.43910163 185.40173128 12.0625 182.3125 C8.8157999 177.09810286 7.75929498 172.59881531 7.62109375 166.4921875 C7.58693359 165.25726563 7.55277344 164.02234375 7.51757812 162.75 C7.47793945 160.831875 7.47793945 160.831875 7.4375 158.875 C7.22048691 149.88049992 6.86664964 140.95780721 6 132 C5.05640625 132.144375 4.1128125 132.28875 3.140625 132.4375 C-21.13110468 135.94666574 -21.13110468 135.94666574 -29 131 C-35.12139265 125.85468363 -37.53999543 119.29337601 -38.375 111.5 C-37.36476342 102.07112529 -33.64256373 96.67411985 -27 90 C-28.19496094 89.62488281 -29.38992187 89.24976562 -30.62109375 88.86328125 C-38.88524044 86.21965693 -46.60905305 83.65355919 -54 79 C-59.88822271 84.33504939 -64.79184486 89.69590929 -69.0625 96.375 C-69.44398193 96.96941895 -69.82546387 97.56383789 -70.21850586 98.17626953 C-72.01045179 101.06946856 -73.53811702 103.61285815 -74 107 C-72.96393933 110.19917185 -71.24506718 113.06039985 -69.625 116 C-69.01591797 117.21042969 -69.01591797 117.21042969 -68.39453125 118.4453125 C-65.476002 123.78860171 -62.85284522 126.18691922 -57.10058594 128.24609375 C-52.31445169 129.9638509 -48.69659918 132.73233869 -46 137 C-44.61373531 144.58637159 -49.03399999 152.09551148 -52.29223633 158.66650391 C-54.44358035 163.00529904 -54.44358035 163.00529904 -54.8671875 167.73828125 C-53.94812642 170.1352919 -53.00153009 172.51109442 -52 174.875 C-50.08064754 179.7391124 -50.0204954 183.42985037 -50.25 188.625 C-50.14841088 193.60650602 -50.14841088 193.60650602 -47.39990234 197.54541016 C-42.91709127 200.68870553 -38.04013578 202.90325806 -33 205 C-32.875 207.375 -32.875 207.375 -33 210 C-33.66 210.66 -34.32 211.32 -35 212 C-45.25349718 211.02935913 -54.60044763 203.62876566 -62 197 C-62.845625 196.24847656 -63.69125 195.49695313 -64.5625 194.72265625 C-71.10781252 188.56647054 -75.7140352 181.87198457 -80 174 C-80.48339844 173.11699219 -80.96679688 172.23398438 -81.46484375 171.32421875 C-90.75814675 152.70936562 -92.11181578 129.78928902 -85.73632812 110.03955078 C-81.01160253 96.95256219 -73.55451584 84.74731468 -63.25 75.33984375 C-61.77261122 74.06166727 -61.77261122 74.06166727 -62 72 C-63.45649567 70.60658099 -63.45649567 70.60658099 -65.375 69.125 C-75.8141562 60.17452628 -83.19047472 48.80749039 -90 37 C-90.60972656 35.95585938 -91.21945313 34.91171875 -91.84765625 33.8359375 C-93.17235478 30.57583197 -93.25969344 29.26006499 -92 26 C-73.3493343 2.60189213 -27.61980144 -13.63003226 0 0 Z M-41.1875 6 C-41.84169922 6.19078125 -42.49589844 6.3815625 -43.16992188 6.578125 C-44.78099513 7.04851135 -46.39064067 7.52378271 -48 8 C-48 12.26057112 -47.73151067 12.85998087 -45.33203125 16.08203125 C-44.76806641 16.84966797 -44.20410156 17.61730469 -43.62304688 18.40820312 C-43.02556641 19.20162109 -42.42808594 19.99503906 -41.8125 20.8125 C-40.65227297 22.38145807 -39.49211576 23.95046779 -38.33203125 25.51953125 C-37.47085693 26.65273804 -37.47085693 26.65273804 -36.59228516 27.80883789 C-35 30 -35 30 -33.81005859 32.04858398 C-31.50586645 35.93431285 -29.74347014 37.42420671 -25.3125 38.55859375 C-23.54686477 38.88141512 -21.77542178 39.17375981 -20 39.4375 C-19.11054687 39.59669922 -18.22109375 39.75589844 -17.3046875 39.91992188 C-13.14679259 40.63669331 -9.2265947 41.07527453 -5 41 C-6.33018207 38.18976166 -7.82370237 35.71157711 -9.65234375 33.19921875 C-10.17650879 32.47589355 -10.70067383 31.75256836 -11.24072266 31.00732422 C-12.08062744 29.85901123 -12.08062744 29.85901123 -12.9375 28.6875 C-13.51290527 27.89875488 -14.08831055 27.11000977 -14.68115234 26.29736328 C-15.86951594 24.66855038 -17.05864949 23.04029898 -18.24853516 21.41259766 C-19.91703878 19.11427694 -21.56185957 16.80104255 -23.19921875 14.48046875 C-23.69365479 13.78671143 -24.18809082 13.0929541 -24.69750977 12.37817383 C-25.63381833 11.06426725 -26.56297075 9.74522528 -27.48413086 8.4206543 C-28.58292885 6.89177283 -29.78345716 5.43696176 -31 4 C-34.69170478 4 -37.64597235 4.96028546 -41.1875 6 Z M-66.3125 17.1875 C-66.97701172 17.57486328 -67.64152344 17.96222656 -68.32617188 18.36132812 C-72.47206033 20.84229995 -75.73060155 23.4397073 -79 27 C-71.17497072 28.88486107 -63.3173741 30.6111006 -55.4375 32.25 C-54.56899414 32.43723633 -53.70048828 32.62447266 -52.80566406 32.81738281 C-51.56961426 33.0702002 -51.56961426 33.0702002 -50.30859375 33.328125 C-49.20729126 33.55870605 -49.20729126 33.55870605 -48.08374023 33.79394531 C-45.80651504 34.01913313 -44.17079593 33.67980914 -42 33 C-42.34780518 32.53625977 -42.69561035 32.07251953 -43.05395508 31.59472656 C-54 17 -54 17 -55.55737305 14.75683594 C-56.03343994 14.17708008 -56.50950684 13.59732422 -57 13 C-60.51631458 13 -63.36517302 15.41460837 -66.3125 17.1875 Z M100.375 17.125 C99.74706543 17.43832275 99.11913086 17.75164551 98.47216797 18.07446289 C93.58457957 20.57369764 89.19547103 23.44297021 85 27 C85.93539524 29.52163182 86.87325455 32.04230241 87.8125 34.5625 C88.20405273 35.61920898 88.20405273 35.61920898 88.60351562 36.69726562 C90.28078041 41.1906787 92.07721815 45.60589494 94 50 C96.64625085 47.35374915 97.66979002 44.28955122 99.0390625 40.875 C99.32478119 40.1722998 99.61049988 39.46959961 99.90487671 38.74560547 C100.50739372 37.26043164 101.1073994 35.77423687 101.70507812 34.28710938 C102.62241472 32.00642753 103.54885294 29.72960424 104.4765625 27.453125 C105.06044092 26.01063718 105.64379226 24.56793588 106.2265625 23.125 C106.50464752 22.44163574 106.78273254 21.75827148 107.06924438 21.05419922 C108.5149661 17.6347455 108.5149661 17.6347455 109 14 C105.79582034 14 103.18758071 15.71578064 100.375 17.125 Z M117 17 C115.16293066 21.19749205 113.32996108 25.39674135 111.50073242 29.59765625 C110.87815312 31.02587876 110.25446532 32.45361861 109.62963867 33.88085938 C108.73062463 35.93493123 107.83563915 37.99071799 106.94140625 40.046875 C106.6622084 40.68244324 106.38301056 41.31801147 106.09535217 41.97283936 C104.80658227 44.94629064 103.64295213 47.81651808 103 51 C107.50276432 50.301897 111.55578171 48.71324524 115.75 47 C116.77673828 46.59007812 116.77673828 46.59007812 117.82421875 46.171875 C121.15900063 44.99342906 121.15900063 44.99342906 124 43 C124.35640118 37.02038023 123.51193023 32.27518995 121.625 26.625 C121.40328125 25.91472656 121.1815625 25.20445313 120.953125 24.47265625 C119.6319532 20.36015488 119.6319532 20.36015488 117 17 Z M-81 35 C-76.89532495 43.57219431 -70.95340367 50.67032788 -65 58 C-59.70612544 55.10867709 -54.88986192 51.8598624 -50.0625 48.25 C-49.37865234 47.74339844 -48.69480469 47.23679687 -47.99023438 46.71484375 C-46.32430167 45.47995657 -44.6617878 44.24045936 -43 43 C-46.54901353 40.93720191 -50.05428512 40.26004529 -54.06640625 39.4921875 C-54.74170883 39.36184113 -55.41701141 39.23149475 -56.11277771 39.09719849 C-57.5351807 38.8238812 -58.95813489 38.55341877 -60.3815918 38.28564453 C-62.55976813 37.87551438 -64.73599696 37.45608579 -66.91210938 37.03515625 C-73.9067559 35.56936413 -73.9067559 35.56936413 -81 35 Z M79 35 C73.1978189 42.48668529 72.06141524 50.72723495 73 60 C74.45015436 67.9828691 76.65651709 75.60410085 80 83 C83.20056777 79.27588256 84.88861328 75.0474462 86.75 70.5625 C87.07871094 69.81162109 87.40742188 69.06074219 87.74609375 68.28710938 C88.05160156 67.55427734 88.35710937 66.82144531 88.671875 66.06640625 C89.09098145 65.0755603 89.09098145 65.0755603 89.51855469 64.06469727 C90.5420867 59.67523972 88.60276294 55.71933045 86.93359375 51.69921875 C86.53076172 50.72275391 86.12792969 49.74628906 85.71289062 48.74023438 C85.29201172 47.73283203 84.87113281 46.72542969 84.4375 45.6875 C84.01275391 44.66076172 83.58800781 43.63402344 83.15039062 42.57617188 C82.10429072 40.04907659 81.05404084 37.52379106 80 35 C79.67 35 79.34 35 79 35 Z M-41.9375 51.1875 C-43.48827187 52.34766878 -45.039053 53.5078252 -46.58984375 54.66796875 C-47.32960449 55.22919434 -48.06936523 55.79041992 -48.83154297 56.36865234 C-51.84749024 58.63757372 -54.91848791 60.82119451 -58 63 C-56.66899329 66.99302012 -54.08965956 68.35958542 -50.75 70.625 C-50.17636719 71.03234375 -49.60273437 71.4396875 -49.01171875 71.859375 C-44.38639002 75.07321417 -44.38639002 75.07321417 -39 76 C-36.14967052 74.36827061 -36.14967052 74.36827061 -33.3125 71.875 C-32.1782924 70.95133494 -31.04141323 70.0309439 -29.90234375 69.11328125 C-28.97784424 68.36425537 -28.97784424 68.36425537 -28.03466797 67.60009766 C-23.48632047 64.02319947 -18.72259375 60.72881513 -14.00512695 57.38037109 C-13.26866943 56.8539502 -12.53221191 56.3275293 -11.7734375 55.78515625 C-11.11778809 55.31988525 -10.46213867 54.85461426 -9.78662109 54.37524414 C-8.03800711 53.02925582 -6.52111612 51.59543871 -5 50 C-9.82429984 48.5682723 -14.62597429 47.37749445 -19.5625 46.375 C-20.82191406 46.11460938 -22.08132812 45.85421875 -23.37890625 45.5859375 C-24.57386719 45.39257812 -25.76882812 45.19921875 -27 45 C-27.9590625 44.84402344 -28.918125 44.68804687 -29.90625 44.52734375 C-34.81380261 45.27710873 -38.06681731 48.20980468 -41.9375 51.1875 Z M2.18359375 54.60546875 C1.42731689 55.17120605 0.67104004 55.73694336 -0.1081543 56.31982422 C-0.91808838 56.93615723 -1.72802246 57.55249023 -2.5625 58.1875 C-4.2675891 59.46569803 -5.97333593 60.74301906 -7.6796875 62.01953125 C-8.99211426 63.00493896 -8.99211426 63.00493896 -10.33105469 64.01025391 C-14.58216671 67.17953336 -18.88314263 70.27862429 -23.1875 73.375 C-23.97133057 73.93985107 -24.75516113 74.50470215 -25.56274414 75.08666992 C-27.37452992 76.39199638 -29.18692108 77.69647064 -31 79 C-22.72603594 83.54711631 -10.09072419 81.42652149 -1.33203125 79.09375 C10.63817213 75.16449215 28.81681454 68.77477819 36 58 C30.54695462 55.97223438 25.01248777 54.93272969 19.3125 53.875 C18.36310547 53.69324219 17.41371094 53.51148438 16.43554688 53.32421875 C8.89708241 51.60712123 8.89708241 51.60712123 2.18359375 54.60546875 Z M98 62 C93.2630547 67.80937511 90.16554661 75.58904472 89 83 C89.33 83.99 89.66 84.98 90 86 C103.05407518 80.21843625 115.72093436 73.44457592 122.2421875 60.015625 C123.23763359 57.36794363 123.78324462 54.81781989 124 52 C115.51514633 52 104.75327718 57.18649393 98 62 Z M21.1875 77.125 C12.46229795 82.0244416 3.73075555 85.30881203 -6.0769043 87.4543457 C-12.50298297 88.88843738 -16.15304918 91.74731135 -21 96 C-21.928125 96.804375 -22.85625 97.60875 -23.8125 98.4375 C-27.01952547 102.19430126 -29.76590755 106.02925531 -30.1640625 111.08203125 C-29.77674499 115.90505648 -28.18835571 119.29461363 -25 123 C-20.28974742 125.98546892 -16.59386593 126.29867699 -11.1875 125.75 C-10.48262451 125.69352295 -9.77774902 125.6370459 -9.05151367 125.57885742 C-5.28877868 125.26583736 -1.55266883 124.82252302 2.1875 124.3125 C7.94124847 123.84088127 7.94124847 123.84088127 11 126 C16.76814236 136.09424913 15.28754414 149.35429283 15.51757812 160.60351562 C15.55173828 161.85197266 15.58589844 163.10042969 15.62109375 164.38671875 C15.6461499 165.51295654 15.67120605 166.63919434 15.69702148 167.79956055 C16.01207425 171.1275434 16.82289988 173.88137641 18 177 C20.52247209 178.02475429 22.27105852 178.29064404 24.83203125 177.26953125 C31.53530802 173.39564546 38.37714643 167.4685709 40.5625 159.8125 C40.98813465 156.10339806 40.61858921 153.64083938 40 150 C38.8671877 133.11923966 38.8671877 133.11923966 44 126 C49.0539329 120.37546177 55.45651767 116.66059565 62 113 C60.72310846 101.29516091 52.12440397 90.9903379 44 83 C43.13632813 82.14921875 42.27265625 81.2984375 41.3828125 80.421875 C33.58340992 73.06220135 30.3958709 71.67896337 21.1875 77.125 Z M-79 117 C-84.13216129 135.64990756 -80.89741135 155.06825936 -71.86328125 171.8984375 C-68.09344251 178.17359885 -64.06821833 183.77063571 -58 188 C-58.22342776 183.17396033 -58.66764772 179.19407489 -61.0625 174.9375 C-63.20725581 170.92396798 -63.90973468 167.49424483 -63 163 C-61.56088651 158.89312278 -59.79943291 154.95976904 -58 151 C-57.19466421 149.15172935 -56.40177388 147.29795491 -55.625 145.4375 C-55.28726563 144.65246094 -54.94953125 143.86742187 -54.6015625 143.05859375 C-53.73913406 140.83321581 -53.73913406 140.83321581 -55 138 C-57.82379097 136.85247713 -57.82379097 136.85247713 -61.1875 135.875 C-68.13153033 133.35266075 -70.76789183 130.47524742 -74 124 C-74.78651184 122.64283288 -75.57765389 121.28833036 -76.375 119.9375 C-76.91125 118.968125 -77.4475 117.99875 -78 117 C-78.33 117 -78.66 117 -79 117 Z " fill="#cb1125" transform="translate(108,4)"/>
</svg>