<?xml version="1.0" encoding="UTF-8"?>
<svg version="1.1" xmlns="http://www.w3.org/2000/svg" width="256" height="256">
<path d="M0 0 C0.97066406 -0.00451172 1.94132812 -0.00902344 2.94140625 -0.01367188 C4.53082031 -0.02140625 4.53082031 -0.02140625 6.15234375 -0.02929688 C7.25835937 -0.01382812 8.364375 0.00164062 9.50390625 0.01757812 C10.60992187 0.00210937 11.7159375 -0.01335937 12.85546875 -0.02929688 C13.91507812 -0.02414063 14.9746875 -0.01898438 16.06640625 -0.01367188 C17.03707031 -0.00916016 18.00773437 -0.00464844 19.0078125 0 C21.50390625 0.51757813 21.50390625 0.51757813 23.31176758 2.36230469 C24.88303289 5.20300306 25.01597461 7.539636 25.19140625 10.76757812 C25.25714844 11.84523438 25.32289062 12.92289063 25.390625 14.03320312 C25.44669922 15.26296875 25.44669922 15.26296875 25.50390625 16.51757812 C26.82455078 17.02417969 26.82455078 17.02417969 28.171875 17.54101562 C29.33332031 17.98703125 30.49476562 18.43304687 31.69140625 18.89257812 C32.83996094 19.3334375 33.98851563 19.77429688 35.171875 20.22851562 C37.95726619 21.30609956 40.73388346 22.40122242 43.50390625 23.51757812 C44.26574219 22.77701172 44.26574219 22.77701172 45.04296875 22.02148438 C48.05890702 19.21451561 50.74125301 16.86712753 54.50390625 15.14257812 C59.4525923 15.76116388 62.08263753 19.09630941 65.50390625 22.51757812 C66.509375 23.39929687 66.509375 23.39929687 67.53515625 24.29882812 C70.60472319 27.06647045 72.32545818 29.07145795 73.87890625 32.95507812 C73.38511139 37.64612929 71.40823001 39.53291519 68.16796875 42.81835938 C66.42042212 44.42930097 66.42042212 44.42930097 65.50390625 46.51757812 C66.43669284 48.7573266 66.43669284 48.7573266 67.81640625 51.20507812 C69.95210524 55.2925687 71.43375356 59.04239415 72.50390625 63.51757812 C73.31021484 63.2763623 73.31021484 63.2763623 74.1328125 63.03027344 C79.15010959 61.9453966 84.39161514 62.28975726 89.50390625 62.26757812 C90.69242188 62.24695312 91.8809375 62.22632813 93.10546875 62.20507812 C94.24757812 62.19992188 95.3896875 62.19476563 96.56640625 62.18945312 C98.13068359 62.17543457 98.13068359 62.17543457 99.7265625 62.16113281 C102.91714787 62.57061371 104.28848117 63.19910241 106.50390625 65.51757812 C106.95800781 67.41870117 106.95800781 67.41870117 106.89453125 69.52929688 C106.88164062 70.28662109 106.86875 71.04394531 106.85546875 71.82421875 C106.80519531 73.00274414 106.80519531 73.00274414 106.75390625 74.20507812 C106.73585937 75.00236328 106.7178125 75.79964844 106.69921875 76.62109375 C106.65212872 78.58710262 106.58038524 80.55249306 106.50390625 82.51757812 C107.2309375 82.66453125 107.95796875 82.81148438 108.70703125 82.96289062 C115.79722354 84.54454891 121.61378807 86.87529224 127.91015625 90.50585938 C130.40008225 91.7793561 130.40008225 91.7793561 132.62109375 90.90820312 C134.66615464 89.39774322 136.3799094 87.80038538 138.12890625 85.95507812 C140.87891804 83.06696531 142.24621367 81.65519269 146.32421875 81.20898438 C152.180241 81.77732069 155.52842266 86.49941296 159.50390625 90.51757812 C160.303125 91.29488281 161.10234375 92.0721875 161.92578125 92.87304688 C167.34145728 98.45196137 167.34145728 98.45196137 168.02734375 102.95117188 C167.36080588 107.4925829 165.85763851 108.89479744 162.50390625 111.95507812 C161.57578125 112.82003906 160.64765625 113.685 159.69140625 114.57617188 C158.96953125 115.21683594 158.24765625 115.8575 157.50390625 116.51757812 C158.74906034 120.45480149 160.20025411 124.11829399 162.00390625 127.83007812 C164.26772185 132.70496126 165.55171928 137.23726859 166.50390625 142.51757812 C167.6125 142.48277344 168.72109375 142.44796875 169.86328125 142.41210938 C171.32680773 142.38396463 172.79035064 142.35666521 174.25390625 142.33007812 C174.98351562 142.30494141 175.713125 142.27980469 176.46484375 142.25390625 C179.52404303 142.2121899 181.95856267 142.24054286 184.71606445 143.64135742 C187.27021846 146.32177167 187.00595515 148.17206534 187 151.83007812 C187.00064453 153.07015625 187.00128906 154.31023437 187.00195312 155.58789062 C186.98197266 156.8846875 186.96199219 158.18148437 186.94140625 159.51757812 C186.94849609 160.814375 186.95558594 162.11117187 186.96289062 163.44726562 C186.89876985 172.93714072 186.89876985 172.93714072 185.22753906 175.39379883 C183.1331915 176.75927784 181.9780113 176.86661809 179.4921875 176.81054688 C178.73486328 176.80087891 177.97753906 176.79121094 177.19726562 176.78125 C176.41158203 176.75611328 175.62589844 176.73097656 174.81640625 176.70507812 C174.01912109 176.69154297 173.22183594 176.67800781 172.40039062 176.6640625 C170.43460658 176.62874901 168.46917043 176.57494259 166.50390625 176.51757812 C166.35695312 177.24460938 166.21 177.97164062 166.05859375 178.72070312 C164.47693547 185.81089542 162.14619214 191.62745995 158.515625 197.92382812 C157.24212827 200.41375413 157.24212827 200.41375413 158.11328125 202.63476562 C159.62374116 204.67982651 161.221099 206.39358127 163.06640625 208.14257812 C165.85151094 210.79450733 167.26923834 212.2855716 168.00390625 216.14257812 C167.23911812 221.30489801 164.09140697 223.90310371 160.50390625 227.51757812 C159.7975 228.24976563 159.09109375 228.98195312 158.36328125 229.73632812 C151.07232647 237.18930413 151.07232647 237.18930413 146.81640625 238.08007812 C141.78311414 237.22536814 139.03691723 234.03552296 135.50390625 230.51757812 C134.93027344 229.94652344 134.35664063 229.37546875 133.765625 228.78710938 C133.34925781 228.36816406 132.93289062 227.94921875 132.50390625 227.51757812 C129.64203482 228.65463645 126.79084787 229.81266376 123.9453125 230.99023438 C122.65238931 231.52029343 121.35941964 232.05023914 120.06640625 232.58007812 C119.42380859 232.84884766 118.78121094 233.11761719 118.11914062 233.39453125 C114.25726396 234.96672673 110.64124348 235.99961164 106.50390625 236.51757812 C106.53871094 237.70996094 106.57351562 238.90234375 106.609375 240.13085938 C106.63751378 241.69725154 106.66481385 243.26365894 106.69140625 244.83007812 C106.71654297 245.61576172 106.74167969 246.40144531 106.76757812 247.2109375 C106.78208008 248.34692383 106.78208008 248.34692383 106.796875 249.50585938 C106.82044067 250.55060425 106.82044067 250.55060425 106.84448242 251.61645508 C106.50390625 253.51757812 106.50390625 253.51757812 105.38012695 255.24121094 C101.05668097 258.18239189 94.54013043 256.98261215 89.50390625 256.95507812 C88.20710937 256.97505859 86.9103125 256.99503906 85.57421875 257.015625 C84.33414063 257.01498047 83.0940625 257.01433594 81.81640625 257.01367188 C80.10904297 257.01645142 80.10904297 257.01645142 78.3671875 257.01928711 C75.50390625 256.51757812 75.50390625 256.51757812 73.62768555 254.72973633 C71.90775794 251.34406088 72.18892057 247.96793161 72.31640625 244.26757812 C72.32994141 243.5225 72.34347656 242.77742187 72.35742188 242.00976562 C72.39263421 240.17872397 72.44643774 238.34805643 72.50390625 236.51757812 C71.776875 236.370625 71.04984375 236.22367188 70.30078125 236.07226562 C63.21058896 234.49060734 57.39402443 232.15986401 51.09765625 228.52929688 C48.6127081 227.26331153 48.6127081 227.26331153 46.3984375 228.09179688 C44.20032644 229.74604541 42.50821744 231.57785177 40.69140625 233.64257812 C38.0355636 236.30820288 36.7799618 237.43067175 33.12890625 238.58007812 C27.26936597 236.86262666 23.6926282 232.82023331 19.50390625 228.51757812 C18.79105469 227.81375 18.07820313 227.10992187 17.34375 226.38476562 C14.45405491 223.35859622 12.66984134 220.93995836 11.12890625 217.01757812 C11.69530282 211.73121013 14.79109011 209.10559372 18.50390625 205.51757812 C19.07625 204.94523438 19.64859375 204.37289062 20.23828125 203.78320312 C20.6559375 203.36554688 21.07359375 202.94789063 21.50390625 202.51757812 C20.32668133 198.55782158 18.77500917 194.92491671 17.00390625 191.20507812 C14.74009065 186.33019499 13.45609322 181.79788766 12.50390625 176.51757812 C11.3953125 176.55238281 10.28671875 176.5871875 9.14453125 176.62304688 C7.68100477 176.65119162 6.21746186 176.67849104 4.75390625 176.70507812 C4.02429688 176.73021484 3.2946875 176.75535156 2.54296875 176.78125 C-0.52597307 176.82309921 -2.95266083 176.79698609 -5.71264648 175.37792969 C-8.22749702 172.75463591 -7.96990365 171.04892708 -7.921875 167.45898438 C-7.90930664 165.67331055 -7.90930664 165.67331055 -7.89648438 163.8515625 C-7.86748047 162.60697266 -7.83847656 161.36238281 -7.80859375 160.08007812 C-7.7940918 158.21899414 -7.7940918 158.21899414 -7.77929688 156.3203125 C-7.65555988 146.37293431 -7.65555988 146.37293431 -6.49609375 142.51757812 C-7.20894531 142.26363281 -7.92179687 142.0096875 -8.65625 141.74804688 C-14.01420192 139.82264558 -19.29320165 137.82997461 -24.49609375 135.51757812 C-25.13224609 136.25814453 -25.13224609 136.25814453 -25.78125 137.01367188 C-28.69237153 140.19351232 -30.88490313 142.27310188 -34.93359375 143.89257812 C-40.33882206 143.32360672 -42.80173652 140.28423198 -46.49609375 136.51757812 C-47.16511719 135.91816406 -47.83414063 135.31875 -48.5234375 134.70117188 C-51.41491004 132.05804667 -53.25323444 130.1438995 -54.68359375 126.45507812 C-54.31741499 120.71827748 -49.95813871 116.83966794 -46.49609375 112.51757812 C-47.12837891 111.17953125 -47.12837891 111.17953125 -47.7734375 109.81445312 C-48.32128906 108.64398438 -48.86914062 107.47351563 -49.43359375 106.26757812 C-49.97886719 105.10742188 -50.52414063 103.94726562 -51.0859375 102.75195312 C-52.16057641 100.28713036 -52.98389456 98.13692586 -53.49609375 95.51757812 C-54.3159375 95.48019531 -55.13578125 95.4428125 -55.98046875 95.40429688 C-57.058125 95.33855469 -58.13578125 95.2728125 -59.24609375 95.20507812 C-60.3134375 95.14707031 -61.38078125 95.0890625 -62.48046875 95.02929688 C-65.82337063 94.4620428 -67.09460197 93.86827827 -69.49609375 91.51757812 C-70.33994701 87.56904004 -70.09849952 83.5457131 -70.05859375 79.51757812 C-70.08244141 78.4115625 -70.10628906 77.30554688 -70.13085938 76.16601562 C-70.12892578 75.10640625 -70.12699219 74.04679687 -70.125 72.95507812 C-70.1257251 71.98441406 -70.1264502 71.01375 -70.12719727 70.01367188 C-69.49609375 67.51757812 -69.49609375 67.51757812 -67.13769531 65.7097168 C-64.2011273 64.38446157 -61.89040477 64.02325951 -58.68359375 63.83007812 C-57.70777344 63.76433594 -56.73195313 63.69859375 -55.7265625 63.63085938 C-54.62248047 63.57478516 -54.62248047 63.57478516 -53.49609375 63.51757812 C-53.15835938 62.63714844 -52.820625 61.75671875 -52.47265625 60.84960938 C-52.02664062 59.68816406 -51.580625 58.52671875 -51.12109375 57.33007812 C-50.68023437 56.18152344 -50.239375 55.03296875 -49.78515625 53.84960938 C-48.70757232 51.06421818 -47.61244945 48.28760092 -46.49609375 45.51757812 C-47.23666016 44.75574219 -47.23666016 44.75574219 -47.9921875 43.97851562 C-50.79915627 40.96257735 -53.14654435 38.28023137 -54.87109375 34.51757812 C-54.25250799 29.56889208 -50.91736247 26.93884684 -47.49609375 23.51757812 C-46.90828125 22.84726562 -46.32046875 22.17695313 -45.71484375 21.48632812 C-42.9838982 18.45746124 -40.91168487 16.69458916 -37.12109375 15.08007812 C-31.44275792 15.76539452 -28.35775185 19.51581452 -24.49609375 23.51757812 C-23.04976562 22.88529297 -23.04976562 22.88529297 -21.57421875 22.24023438 C-20.29824699 21.6866878 -19.02220142 21.13331131 -17.74609375 20.58007812 C-17.111875 20.30228516 -16.47765625 20.02449219 -15.82421875 19.73828125 C-12.75242217 18.41036919 -9.78609349 17.17391646 -6.49609375 16.51757812 C-6.45871094 15.69773437 -6.42132813 14.87789062 -6.3828125 14.03320312 C-6.31707031 12.95554687 -6.25132813 11.87789062 -6.18359375 10.76757812 C-6.09658203 9.1665625 -6.09658203 9.1665625 -6.0078125 7.53320312 C-5.31196699 3.43249522 -4.29122412 0.88980782 0 0 Z M3.50390625 8.51757812 C3.35953125 10.27070313 3.21515625 12.02382812 3.06640625 13.83007812 C2.80705267 16.97937165 2.50650132 19.50979292 1.50390625 22.51757812 C-0.18261719 23.453125 -0.18261719 23.453125 -2.35546875 24.23632812 C-3.14179687 24.52894531 -3.928125 24.8215625 -4.73828125 25.12304688 C-5.56585938 25.41824219 -6.3934375 25.7134375 -7.24609375 26.01757812 C-12.29812743 27.85395227 -16.92607138 29.64110222 -21.49609375 32.51757812 C-24.30859375 33.14257812 -24.30859375 33.14257812 -27.49609375 32.51757812 C-30.39419676 30.4108197 -32.95859444 28.04219672 -35.49609375 25.51757812 C-39.26097417 27.23912601 -41.64673272 29.50991926 -44.49609375 32.51757812 C-43.28659205 35.37640033 -42.00732629 37.05289486 -39.87109375 39.39257812 C-37.11029653 43.02520605 -37.04250923 44.09103039 -37.49609375 48.51757812 C-38.703125 51.37695312 -38.703125 51.37695312 -40.30859375 54.26757812 C-42.81690447 58.97873784 -44.49865363 63.35512888 -45.66015625 68.55664062 C-46.49609375 70.51757812 -46.49609375 70.51757812 -48.22265625 71.75195312 C-52.52938252 73.20232829 -56.98462003 73.19533 -61.49609375 73.51757812 C-61.49609375 77.47757812 -61.49609375 81.43757813 -61.49609375 85.51757812 C-56.54609375 86.17757812 -51.59609375 86.83757812 -46.49609375 87.51757812 C-46.12484375 89.08507812 -45.75359375 90.65257813 -45.37109375 92.26757812 C-43.87417099 97.87199909 -41.53251086 102.64727706 -38.703125 107.69335938 C-37.30533937 110.96390634 -37.01996832 112.99613555 -37.49609375 116.51757812 C-39.02734375 118.85351563 -39.02734375 118.85351563 -40.99609375 120.89257812 C-41.64578125 121.5809375 -42.29546875 122.26929687 -42.96484375 122.97851562 C-43.47015625 123.48640625 -43.97546875 123.99429688 -44.49609375 124.51757812 C-42.77454587 128.28245854 -40.50375261 130.6682171 -37.49609375 133.51757812 C-34.63727154 132.30807642 -32.96077701 131.02881067 -30.62109375 128.89257812 C-26.98977835 126.13277842 -25.92087665 126.063614 -21.49609375 126.51757812 C-18.671875 127.72460937 -18.671875 127.72460937 -15.80859375 129.33007812 C-11.64636091 131.56448527 -7.99246576 132.9955817 -3.37109375 133.95507812 C1.18696326 135.03064841 1.18696326 135.03064841 2.6328125 137.25195312 C3.19140625 139.20507812 3.19140625 139.20507812 3.50390625 142.51757812 C6.47390625 142.51757812 9.44390625 142.51757812 12.50390625 142.51757812 C13.08398438 140.92429688 13.08398438 140.92429688 13.67578125 139.29882812 C14.20086214 137.871391 14.72696966 136.44433126 15.25390625 135.01757812 C15.52396484 134.2837793 15.79402344 133.54998047 16.07226562 132.79394531 C17.50343366 128.96786545 19.0108605 125.34413968 21.00390625 121.76757812 C21.49890625 120.69507812 21.99390625 119.62257813 22.50390625 118.51757812 C20.90242232 114.31776822 18.35539555 110.85349943 14.50390625 108.51757812 C10.98195628 107.76713842 7.50158147 107.37902723 3.921875 106.99804688 C-4.5531757 105.80669689 -9.59097369 101.33573592 -14.68359375 94.64257812 C-18.77603038 87.5866529 -19.80233666 79.83016363 -17.85546875 71.91210938 C-15.91859375 65.94007812 -15.91859375 65.94007812 -14.49609375 64.51757812 C-12.8299226 64.4769398 -11.1622128 64.47485712 -9.49609375 64.51757812 C-8.24198559 69.03236749 -8.24198559 69.03236749 -9.4453125 71.33007812 C-11.56886968 75.7508663 -11.09523514 80.74890174 -10.49609375 85.51757812 C-7.89721555 92.17586112 -2.97386639 96.63898464 3.50390625 99.51757812 C6.66120933 100.25147451 9.34147095 100.24776128 12.50390625 99.51757812 C16.00744242 97.31874615 18.72004224 94.56115173 21.56640625 91.58007812 C22.33662109 90.84466797 23.10683594 90.10925781 23.90039062 89.3515625 C27.50261256 85.6918073 29.99373893 83.00660713 30.13671875 77.72070312 C29.52333197 71.44423481 26.48332732 67.35216351 21.94140625 63.14257812 C21.13703125 62.60632812 20.33265625 62.07007813 19.50390625 61.51757812 C18.97410156 61.15664063 18.44429688 60.79570313 17.8984375 60.42382812 C14.2244148 59.0333334 10.64403135 59.30871141 6.75390625 59.39257812 C5.96113281 59.40160156 5.16835937 59.410625 4.3515625 59.41992188 C2.40221344 59.44340801 0.4530205 59.47927675 -1.49609375 59.51757812 C-1.82609375 57.86757813 -2.15609375 56.21757813 -2.49609375 54.51757812 C2.70094134 51.05288807 8.40245095 50.97103083 14.50390625 51.51757812 C22.38237635 53.19076492 28.81478549 56.60733634 33.31640625 63.39257812 C35.7605523 67.68786429 37.44336591 71.88407339 37.55859375 76.89648438 C37.71191859 82.47580502 38.529001 85.13355534 42.56640625 89.14257812 C43.85817573 90.29132216 45.16422787 91.42508414 46.50390625 92.51757812 C50.44495727 91.34591431 54.09864299 89.81364189 57.81640625 88.08007812 C62.63437221 85.84929389 67.43709497 84.09576525 72.50390625 82.51757812 C72.50390625 79.54757813 72.50390625 76.57757813 72.50390625 73.51757812 C71.41078125 73.41445312 70.31765625 73.31132813 69.19140625 73.20507812 C67.23828125 72.64648438 67.23828125 72.64648438 65.50390625 71.51757812 C64.40306989 68.93807597 63.89410454 66.41475154 63.32421875 63.66992188 C62.15297707 59.16900742 59.97541839 55.38039662 57.7109375 51.34179688 C56.31315187 48.07124991 56.02778082 46.0390207 56.50390625 42.51757812 C58.03515625 40.18164062 58.03515625 40.18164062 60.00390625 38.14257812 C60.65359375 37.45421875 61.30328125 36.76585938 61.97265625 36.05664062 C62.47796875 35.54875 62.98328125 35.04085937 63.50390625 34.51757812 C61.78235837 30.75269771 59.51156511 28.36693915 56.50390625 25.51757812 C53.64508404 26.72707983 51.96858951 28.00634558 49.62890625 30.14257812 C45.99759085 32.90237783 44.92868915 32.97154225 40.50390625 32.51757812 C37.6796875 31.31054688 37.6796875 31.31054688 34.81640625 29.70507812 C29.12694221 26.69300893 23.75859691 24.99895223 17.50390625 23.51757812 C16.84390625 18.56757813 16.18390625 13.61757812 15.50390625 8.51757812 C11.54390625 8.51757812 7.58390625 8.51757812 3.50390625 8.51757812 Z M80.50390625 71.51757812 C80.26697329 74.66916264 80.10800549 77.81302725 79.98632812 80.97070312 C79.79730645 84.63701038 79.58746667 86.39223749 77.50390625 89.51757812 C75.76733398 90.32958984 75.76733398 90.32958984 73.6875 90.94726562 C72.92735596 91.18300293 72.16721191 91.41874023 71.3840332 91.66162109 C70.17493286 92.02344482 70.17493286 92.02344482 68.94140625 92.39257812 C63.02436787 94.23928598 57.66639954 96.07166774 52.5234375 99.63476562 C49.32371105 101.0334855 46.9502978 100.94370463 43.50390625 100.51757812 C40.6328125 98.33007812 40.6328125 98.33007812 38.06640625 95.51757812 C36.76896484 94.12539062 36.76896484 94.12539062 35.4453125 92.70507812 C34.80464844 91.98320313 34.16398437 91.26132813 33.50390625 90.51757812 C28.623407 94.45951982 24.44584795 98.63707888 20.50390625 103.51757812 C21.58671875 104.47857422 21.58671875 104.47857422 22.69140625 105.45898438 C23.61953125 106.32394531 24.54765625 107.18890625 25.50390625 108.08007812 C26.43203125 108.92699219 27.36015625 109.77390625 28.31640625 110.64648438 C30.50390625 113.51757812 30.50390625 113.51757812 31.01953125 116.94335938 C30.43801321 120.97433669 29.23275754 123.5922861 27.25390625 127.14257812 C24.1325889 132.92407347 22.07739505 138.58238561 20.42578125 144.97070312 C19.50390625 147.51757812 19.50390625 147.51757812 16.50390625 149.51757812 C13.74284295 149.81899183 11.08317588 150.02615806 8.31640625 150.14257812 C5.73828125 150.26632813 3.16015625 150.39007813 0.50390625 150.51757812 C0.50390625 156.45757812 0.50390625 162.39757812 0.50390625 168.51757812 C5.63394417 168.7666996 5.63394417 168.7666996 10.76489258 168.99560547 C14.47348704 169.20125078 16.35624081 169.4191345 19.50390625 171.51757812 C20.31591797 173.25415039 20.31591797 173.25415039 20.93359375 175.33398438 C21.16933105 176.09412842 21.40506836 176.85427246 21.64794922 177.63745117 C21.88916504 178.44351807 22.13038086 179.24958496 22.37890625 180.08007812 C24.2256141 185.9971165 26.05799587 191.35508484 29.62109375 196.49804688 C31.01981363 199.69777332 30.93003275 202.07118657 30.50390625 205.51757812 C28.31640625 208.38867188 28.31640625 208.38867188 25.50390625 210.95507812 C24.57578125 211.82003906 23.64765625 212.685 22.69140625 213.57617188 C21.96953125 214.21683594 21.24765625 214.8575 20.50390625 215.51757812 C24.44584795 220.39807737 28.623407 224.57563643 33.50390625 228.51757812 C34.44363281 227.56044922 34.44363281 227.56044922 35.40234375 226.58398438 C36.62824219 225.34455078 36.62824219 225.34455078 37.87890625 224.08007812 C38.69101563 223.25636719 39.503125 222.43265625 40.33984375 221.58398438 C42.81129042 219.22406508 43.77542464 218.59923683 47.15234375 218.22070312 C51.47677291 218.60375279 54.37047519 220.2019659 58.12890625 222.26757812 C64.07033936 225.40756726 69.86092545 227.86132255 76.34375 229.72851562 C78.50390625 230.51757812 78.50390625 230.51757812 79.50390625 232.51757812 C79.7363113 235.23183954 79.92299427 237.92391579 80.06640625 240.64257812 C80.28296875 244.54070312 80.28296875 244.54070312 80.50390625 248.51757812 C86.44390625 248.51757812 92.38390625 248.51757812 98.50390625 248.51757812 C98.71357282 243.3876407 98.71357282 243.3876407 98.8918457 238.2565918 C99.03663171 235.44858875 99.15862346 233.10077662 100.609375 230.65039062 C103.43407035 228.96139753 106.35396214 228.14425204 109.50390625 227.20507812 C115.50611268 225.35272429 120.68824726 223.01017942 126.0390625 219.65429688 C129.12727232 218.23009869 131.13670748 218.089431 134.50390625 218.51757812 C136.69921875 219.94335938 136.69921875 219.94335938 138.62890625 221.83007812 C141.20355804 224.29616026 143.61862935 226.35362045 146.50390625 228.51757812 C150.46390625 224.55757812 154.42390625 220.59757813 158.50390625 216.51757812 C157.59640625 215.46570313 156.68890625 214.41382813 155.75390625 213.33007812 C155.20992187 212.688125 154.6659375 212.04617187 154.10546875 211.38476562 C152.81361803 209.87865673 151.4777283 208.41038613 150.12890625 206.95507812 C148.01306378 203.78131443 148.12115998 202.30498594 148.50390625 198.51757812 C149.532735 195.8525704 150.87947894 193.39338162 152.25390625 190.89257812 C155.39389539 184.95114501 157.84765068 179.16055893 159.71484375 172.67773438 C160.50390625 170.51757812 160.50390625 170.51757812 162.50390625 169.51757812 C165.21816766 169.28517308 167.91024392 169.09849011 170.62890625 168.95507812 C173.22765625 168.81070313 175.82640625 168.66632813 178.50390625 168.51757812 C178.50390625 162.57757813 178.50390625 156.63757813 178.50390625 150.51757812 C173.37396883 150.30791156 173.37396883 150.30791156 168.24291992 150.12963867 C165.43491687 149.98485267 163.08710475 149.86286092 160.63671875 148.41210938 C158.94772565 145.58741402 158.13058016 142.66752224 157.19140625 139.51757812 C155.33905241 133.51537169 152.99650754 128.33323711 149.640625 122.98242188 C148.21642681 119.89421206 148.07575912 117.88477689 148.50390625 114.51757812 C149.9296875 112.32226562 149.9296875 112.32226562 151.81640625 110.39257812 C154.28248838 107.81792634 156.33994858 105.40285502 158.50390625 102.51757812 C154.54390625 98.55757812 150.58390625 94.59757812 146.50390625 90.51757812 C145.43140625 91.42507812 144.35890625 92.33257812 143.25390625 93.26757812 C142.609375 93.8115625 141.96484375 94.35554688 141.30078125 94.91601562 C139.37600196 96.55504035 139.37600196 96.55504035 137.50390625 98.89257812 C134.49967957 101.33351231 132.29832428 100.82269628 128.50390625 100.51757812 C125.21484375 99.12695312 125.21484375 99.12695312 121.87890625 97.26757812 C116.0974109 94.14626078 110.43909876 92.09106692 104.05078125 90.43945312 C101.50390625 89.51757812 101.50390625 89.51757812 99.50390625 86.51757812 C99.20324471 83.76340494 98.99465326 81.09112665 98.87890625 78.33007812 C98.84023437 77.58048828 98.8015625 76.83089844 98.76171875 76.05859375 C98.66762409 74.21198613 98.58468306 72.36481623 98.50390625 70.51757812 C95.69134344 70.490735 92.87903384 70.47081625 90.06640625 70.45507812 C89.26396484 70.44669922 88.46152344 70.43832031 87.63476562 70.4296875 C83.75953718 70.02060853 83.75953718 70.02060853 80.50390625 71.51757812 Z " fill="#F56F08" transform="translate(69.49609375,-0.517578125)"/>
<path d="M0 0 C0.72058594 0.7425 1.44117188 1.485 2.18359375 2.25 C2.77011719 2.8275 3.35664063 3.405 3.9609375 4 C12.06356759 12.57682982 14.56032136 23.64607686 15.49609375 35.0625 C15.04888457 47.90003397 10.67062293 60.12051914 1.9375 69.62890625 C-8.46055913 79.23958451 -21.44272804 84.9759107 -35.74609375 84.42578125 C-36.42929688 84.36777344 -37.1125 84.30976563 -37.81640625 84.25 C-38.62335938 84.18167969 -39.4303125 84.11335938 -40.26171875 84.04296875 C-49.65979369 82.79628534 -59.62015913 78.57772196 -66.69140625 72.125 C-68.81640625 69.25 -68.81640625 69.25 -69.25390625 66.4375 C-68.81640625 64.25 -68.81640625 64.25 -67.81640625 63.25 C-64.73014614 62.72307754 -62.63401665 62.72267565 -59.95703125 64.44921875 C-58.62166981 65.50949573 -57.29249309 66.57759648 -55.96875 67.65234375 C-47.15593953 74.19397621 -37.47607166 75.02970384 -26.81640625 74.25 C-15.51299082 72.00822346 -7.05523804 66.01689168 -0.32421875 56.75 C5.4616417 47.15686351 7.0033563 36.14245329 4.48828125 25.234375 C1.06167973 14.92577546 -4.80612488 5.97200551 -14.53125 0.80859375 C-25.1700326 -4.20377228 -36.03080526 -5.70008702 -47.375 -1.78515625 C-59.05674762 3.16790474 -65.81732874 10.07330279 -70.87109375 21.63671875 C-74.1672131 30.74871812 -73.34499143 40.08387874 -70.81640625 49.25 C-70.56640625 52.625 -70.56640625 52.625 -70.81640625 55.25 C-72.81640625 57.25 -72.81640625 57.25 -75.25390625 57.3125 C-77.81640625 56.25 -77.81640625 56.25 -79.50390625 53.375 C-84.25643734 40.01359832 -83.6806998 26.18333624 -77.81640625 13.25 C-71.08502995 1.59118944 -61.73626456 -7.38959911 -48.75390625 -11.5625 C-47.11563545 -11.98855185 -45.4696128 -12.38618756 -43.81640625 -12.75 C-43.12289062 -12.9046875 -42.429375 -13.059375 -41.71484375 -13.21875 C-26.38206258 -15.74550045 -10.97278317 -10.67432347 0 0 Z " fill="#F56F08" transform="translate(192.81640625,123.75)"/>
<path d="M0 0 C6.70100479 6.55209357 9.38202413 13.41209922 10.125 22.625 C9.84069236 31.15422917 6.8089342 38.67535144 0.8125 44.75 C-6.04808683 50.4671557 -12.97849998 53.31203425 -22.05859375 52.9921875 C-31.36641101 51.93331655 -38.75792106 48.05469087 -44.7890625 40.83203125 C-49.95591165 33.26305048 -50.69995871 25.58211821 -49.73046875 16.6171875 C-48.31021831 9.11744776 -44.04676221 2.8765092 -38.125 -1.875 C-25.69899092 -10.22950823 -11.64771883 -8.22191917 0 0 Z M-36.5625 9.1875 C-41.13296751 15.07446087 -42.07736811 20.37197959 -41.1875 27.75 C-39.3709964 33.91741044 -35.52482796 38.2657568 -30.1875 41.75 C-24.89267631 44.26763675 -19.95854245 44.53512078 -14.1875 43.75 C-7.88735673 41.27456428 -3.51046515 36.63524101 -0.078125 30.89453125 C1.90567634 26.11774643 1.56331257 20.38009192 0.16015625 15.46484375 C-2.52500432 9.48373502 -6.94353662 5.67884309 -12.5 2.375 C-22.04465944 0.15531176 -29.92124858 1.8404151 -36.5625 9.1875 Z " fill="#F56F08" transform="translate(179.1875,136.25)"/>
</svg>
